<svg xmlns="http://www.w3.org/2000/svg" width="104" height="104" viewBox="0 0 104 104">
  <g id="icon_hour04" transform="translate(-580.989 -198.622)">
    <path id="パス_84" data-name="パス 84" d="M580.989,198.622h104v104h-104Zm70.931,42.384c.907.072,1.8.163,2.7.214,4.555.257,7.314,2.252,8.482,6.148,1.546,5.156.556,9.482-3.154,11.953a30.238,30.238,0,0,1-6.268,2.738c-1.572.587-2.482,1.681-2.191,3.06a2.716,2.716,0,0,0,3.393,1.945,18.324,18.324,0,0,0,9.373-4.566c4.587-4.255,5.413-9.553,4.073-15.387a13.361,13.361,0,0,0-10.461-10.7,2.21,2.21,0,0,1-1.447-1.026c-2.332-7.325-7.746-9.971-14.94-10.1a3.283,3.283,0,0,1-2.146-.964c-8.461-9.349-22.914-6.112-28.644,2.606a26.821,26.821,0,0,0-3.842,11.279c-.106.758-.6,1.88-1.184,2.09-7.862,2.83-10.593,12.949-5.773,20.364a14.249,14.249,0,0,0,11.945,6.6,2.333,2.333,0,0,0,2.678-2.162c.215-1.6-.733-2.481-2.2-2.87a10.7,10.7,0,0,0-1.086-.112c-3.912-.613-6.771-2.554-8.065-6.442-1.834-5.511.912-10.057,6.6-10.94.642-.1,1.287-.177,1.951-.268a29.7,29.7,0,0,1,1.786-11.9c2.088-5.272,6.191-8.049,11.651-8.667,5.025-.569,8.964,1.494,11.78,5.756a2.965,2.965,0,0,0,2.032.991c1.8.145,3.638-.09,5.432.1a7.715,7.715,0,0,1,7.075,6.545C651.715,238.464,651.769,239.677,651.92,241.006Zm-34.848,23.378a3.74,3.74,0,0,0,3.73,3.872,3.957,3.957,0,0,0,3.828-3.861,3.864,3.864,0,0,0-3.728-3.738A3.647,3.647,0,0,0,617.072,264.384Zm23.7.1a3.719,3.719,0,0,0,3.817,3.773,3.943,3.943,0,0,0,3.72-3.771,3.825,3.825,0,0,0-3.81-3.827A3.648,3.648,0,0,0,640.776,264.483Zm-8.063-1.652a3.757,3.757,0,0,0-3.876,3.742,3.929,3.929,0,0,0,3.841,3.849,3.888,3.888,0,0,0,3.763-3.719A3.733,3.733,0,0,0,632.713,262.831Zm0,19.362a3.728,3.728,0,0,0,3.731-3.867,3.8,3.8,0,0,0-7.6.114A3.788,3.788,0,0,0,632.71,282.193Zm-11.85-2.168a3.824,3.824,0,0,0,3.77-3.664,3.951,3.951,0,0,0-3.957-3.907,3.837,3.837,0,0,0-3.6,3.825A3.608,3.608,0,0,0,620.86,280.025Zm23.579,0a3.781,3.781,0,0,0,3.87-3.738,3.956,3.956,0,0,0-3.845-3.832,3.9,3.9,0,0,0-3.753,3.718A3.731,3.731,0,0,0,644.439,280.024Z" fill="#fefefe" opacity="0"/>
    <path id="パス_85" data-name="パス 85" d="M651.92,241.006c-.151-1.329-.2-2.542-.437-3.72a7.715,7.715,0,0,0-7.075-6.545c-1.794-.19-3.63.045-5.432-.1a2.965,2.965,0,0,1-2.032-.991c-2.816-4.262-6.755-6.325-11.78-5.756-5.46.618-9.563,3.4-11.651,8.667a29.7,29.7,0,0,0-1.786,11.9c-.664.091-1.309.169-1.951.268-5.692.883-8.438,5.429-6.6,10.94,1.294,3.888,4.153,5.829,8.065,6.442a10.7,10.7,0,0,1,1.086.112c1.462.389,2.41,1.267,2.2,2.87a2.333,2.333,0,0,1-2.678,2.162,14.249,14.249,0,0,1-11.945-6.6c-4.82-7.415-2.089-17.534,5.773-20.364.584-.21,1.078-1.332,1.184-2.09a26.821,26.821,0,0,1,3.842-11.279c5.73-8.718,20.183-11.955,28.644-2.606a3.283,3.283,0,0,0,2.146.964c7.194.131,12.608,2.777,14.94,10.1a2.21,2.21,0,0,0,1.447,1.026,13.361,13.361,0,0,1,10.461,10.7c1.34,5.834.514,11.132-4.073,15.387a18.324,18.324,0,0,1-9.373,4.566,2.716,2.716,0,0,1-3.393-1.945c-.291-1.379.619-2.473,2.191-3.06a30.238,30.238,0,0,0,6.268-2.738c3.71-2.471,4.7-6.8,3.154-11.953-1.168-3.9-3.927-5.891-8.482-6.148C653.725,241.169,652.827,241.078,651.92,241.006Z" fill="#8d8d8d"/>
    <path id="パス_86" data-name="パス 86" d="M617.072,264.384a3.647,3.647,0,0,1,3.83-3.727,3.864,3.864,0,0,1,3.728,3.738,3.957,3.957,0,0,1-3.828,3.861A3.74,3.74,0,0,1,617.072,264.384Z" fill="#8e8e8e"/>
    <path id="パス_87" data-name="パス 87" d="M640.776,264.483a3.648,3.648,0,0,1,3.727-3.825,3.825,3.825,0,0,1,3.81,3.827,3.943,3.943,0,0,1-3.72,3.771A3.719,3.719,0,0,1,640.776,264.483Z" fill="#8e8e8e"/>
    <path id="パス_88" data-name="パス 88" d="M632.713,262.831a3.733,3.733,0,0,1,3.728,3.872,3.888,3.888,0,0,1-3.763,3.719,3.929,3.929,0,0,1-3.841-3.849A3.757,3.757,0,0,1,632.713,262.831Z" fill="#8e8e8e"/>
    <path id="パス_89" data-name="パス 89" d="M632.71,282.193a3.788,3.788,0,0,1-3.874-3.753,3.8,3.8,0,0,1,7.6-.114A3.728,3.728,0,0,1,632.71,282.193Z" fill="#8e8e8e"/>
    <path id="パス_90" data-name="パス 90" d="M620.86,280.025a3.608,3.608,0,0,1-3.788-3.746,3.837,3.837,0,0,1,3.6-3.825,3.951,3.951,0,0,1,3.957,3.907A3.824,3.824,0,0,1,620.86,280.025Z" fill="#8e8e8e"/>
    <path id="パス_91" data-name="パス 91" d="M644.439,280.024a3.731,3.731,0,0,1-3.728-3.852,3.9,3.9,0,0,1,3.753-3.718,3.956,3.956,0,0,1,3.845,3.832A3.781,3.781,0,0,1,644.439,280.024Z" fill="#8e8e8e"/>
  </g>
</svg>
