<svg xmlns="http://www.w3.org/2000/svg" width="216.26" height="104.333" viewBox="0 0 216.26 104.333">
  <g id="icon_day03_03" transform="translate(-1375.272 -744.727)">
    <line id="線_7" data-name="線 7" y2="53.207" transform="translate(1484.46 769.457)" fill="none" stroke="#bbb" stroke-linecap="round" stroke-miterlimit="10" stroke-width="4"/>
    <g id="グループ_32" data-name="グループ 32">
      <path id="パス_226" data-name="パス 226" d="M1479.272,849.06h-104v-104h104Zm-33.142-61.988c.886,0,1.556-.037,2.22.006,5.383.354,8.4,2.711,9.354,7.286,1.211,5.8-.563,9.979-5.567,12.276a26.587,26.587,0,0,1-6.115,1.538c-1.517.289-2.486.951-2.535,2.568a2.414,2.414,0,0,0,2.5,2.552c9.534.708,17.891-7.557,17.134-17.065-.439-5.508-2.519-10.125-7.784-12.729a19.483,19.483,0,0,1-6.2-5.687c-2.969-4.78-7.537-6.377-12.883-6.52a3.789,3.789,0,0,1-2.524-.891c-6.273-7.132-16.742-7.293-24.065-2.221-5.605,3.881-7.678,9.657-8.468,16.074a2.339,2.339,0,0,1-1.612,2.279,12.715,12.715,0,0,0-7.713,13.361c1.135,8.442,7.174,13.564,15.814,13.413,1.979-.035,3.111-.954,3.121-2.535s-1.123-2.43-3.093-2.594a19.427,19.427,0,0,1-4.812-.8c-4.169-1.472-6.418-5.588-5.815-10.224.512-3.941,2.949-6.041,7.718-6.469,1.226-.11,1.258-.646,1.244-1.65a25.549,25.549,0,0,1,2.537-12.181c3.838-7.538,16.742-10.594,22.518-1.3a2.1,2.1,0,0,0,2.534,1.073,15.068,15.068,0,0,1,3.814-.119c4.982.421,7.842,2.948,8.513,7.468C1446.111,784.916,1446.074,785.886,1446.13,787.072Zm-10.417,28.046c0,2.85-.03,5.7.01,8.549.026,1.845,1.006,2.916,2.532,2.916s2.552-1.082,2.564-2.908q.057-8.457,0-16.915c-.012-1.955-1.036-3.034-2.651-2.986-1.552.046-2.426,1.058-2.45,2.978C1435.685,809.54,1435.711,812.329,1435.713,815.118Zm-21.532-.02c0,2.85-.025,5.7.009,8.549.022,1.839.992,2.927,2.506,2.939s2.573-1.063,2.587-2.892q.069-8.547,0-17.1c-.016-1.836-1.076-2.86-2.632-2.825s-2.439,1.051-2.46,2.959C1414.158,809.52,1414.181,812.309,1414.181,815.1Zm10.742,3.116c0,2.848-.018,5.7.007,8.545.017,1.98.959,3.042,2.6,3.021,1.579-.021,2.482-1.032,2.489-2.922q.03-8.454,0-16.908c-.007-1.9-.9-2.9-2.481-2.928-1.637-.026-2.586,1.037-2.6,3.01C1424.9,812.759,1424.923,815.486,1424.923,818.214Z" fill="#fefefe" opacity="0"/>
      <path id="パス_227" data-name="パス 227" d="M1446.13,787.072c-.056-1.186-.019-2.156-.16-3.1-.671-4.52-3.531-7.047-8.513-7.468a15.068,15.068,0,0,0-3.814.119,2.1,2.1,0,0,1-2.534-1.073c-5.776-9.289-18.68-6.233-22.518,1.3a25.549,25.549,0,0,0-2.537,12.181c.014,1-.018,1.54-1.244,1.65-4.769.428-7.206,2.528-7.718,6.469-.6,4.636,1.646,8.752,5.815,10.224a19.427,19.427,0,0,0,4.812.8c1.97.164,3.1,1.017,3.093,2.594s-1.142,2.5-3.121,2.535c-8.64.151-14.679-4.971-15.814-13.413a12.715,12.715,0,0,1,7.713-13.361,2.339,2.339,0,0,0,1.612-2.279c.79-6.417,2.863-12.193,8.468-16.074,7.323-5.072,17.792-4.911,24.065,2.221a3.789,3.789,0,0,0,2.524.891c5.346.143,9.914,1.74,12.883,6.52a19.483,19.483,0,0,0,6.2,5.687c5.265,2.6,7.345,7.221,7.784,12.729.757,9.508-7.6,17.773-17.134,17.065a2.414,2.414,0,0,1-2.5-2.552c.049-1.617,1.018-2.279,2.535-2.568a26.587,26.587,0,0,0,6.115-1.538c5-2.3,6.778-6.476,5.567-12.276-.955-4.575-3.971-6.932-9.354-7.286C1447.686,787.035,1447.016,787.072,1446.13,787.072Z" fill="#77769c"/>
      <path id="パス_228" data-name="パス 228" d="M1435.712,815.118c0-2.789-.027-5.578.008-8.366.024-1.92.9-2.932,2.45-2.978,1.615-.048,2.639,1.031,2.651,2.986q.051,8.457,0,16.915c-.012,1.826-1.045,2.907-2.564,2.908s-2.506-1.071-2.532-2.916C1435.683,820.818,1435.713,817.968,1435.712,815.118Z" fill="#36479a"/>
      <path id="パス_229" data-name="パス 229" d="M1414.181,815.1c0-2.789-.023-5.578.008-8.366.021-1.908.9-2.924,2.46-2.959s2.616.989,2.632,2.825q.075,8.547,0,17.1c-.014,1.829-1.073,2.9-2.587,2.892s-2.484-1.1-2.506-2.939C1414.156,820.8,1414.181,817.948,1414.181,815.1Z" fill="#36479a"/>
      <path id="パス_230" data-name="パス 230" d="M1424.923,818.214c0-2.728-.019-5.455.007-8.182.018-1.973.967-3.036,2.6-3.01,1.584.025,2.474,1.028,2.481,2.928q.03,8.454,0,16.908c-.007,1.89-.91,2.9-2.489,2.922-1.637.021-2.579-1.041-2.6-3.021C1424.905,823.91,1424.923,821.062,1424.923,818.214Z" fill="#349"/>
    </g>
    <g id="グループ_39" data-name="グループ 39">
      <path id="パス_264" data-name="パス 264" d="M1487.532,744.727h104v104h-104Zm70.93,42.384c.907.073,1.8.163,2.7.214,4.554.257,7.313,2.253,8.481,6.148,1.546,5.156.557,9.483-3.154,11.953a30.214,30.214,0,0,1-6.268,2.739c-1.572.586-2.482,1.681-2.191,3.059a2.717,2.717,0,0,0,3.393,1.945,18.316,18.316,0,0,0,9.373-4.566c4.588-4.255,5.414-9.553,4.073-15.387a13.36,13.36,0,0,0-10.461-10.7,2.207,2.207,0,0,1-1.446-1.025c-2.333-7.326-7.747-9.972-14.94-10.1a3.29,3.29,0,0,1-2.147-.963c-8.46-9.35-22.914-6.113-28.643,2.6A26.792,26.792,0,0,0,1513.4,784.3c-.107.758-.6,1.881-1.184,2.09-7.863,2.831-10.594,12.949-5.773,20.364a14.246,14.246,0,0,0,11.945,6.6,2.333,2.333,0,0,0,2.677-2.162c.216-1.6-.733-2.481-2.194-2.87a10.776,10.776,0,0,0-1.086-.112c-3.913-.613-6.772-2.553-8.066-6.442-1.833-5.511.912-10.056,6.6-10.939.642-.1,1.288-.178,1.952-.268a29.686,29.686,0,0,1,1.785-11.9c2.088-5.272,6.191-8.049,11.651-8.667,5.026-.569,8.964,1.494,11.781,5.756a2.956,2.956,0,0,0,2.031.991c1.8.146,3.638-.089,5.432.1a7.715,7.715,0,0,1,7.075,6.545C1558.258,784.569,1558.312,785.782,1558.462,787.111Zm-34.848,23.378a3.74,3.74,0,0,0,3.73,3.872,3.957,3.957,0,0,0,3.828-3.861,3.862,3.862,0,0,0-3.728-3.737A3.646,3.646,0,0,0,1523.614,810.489Zm23.7.1a3.721,3.721,0,0,0,3.817,3.773,3.943,3.943,0,0,0,3.72-3.771,3.824,3.824,0,0,0-3.81-3.827A3.649,3.649,0,0,0,1547.318,810.588Zm-8.063-1.652a3.757,3.757,0,0,0-3.876,3.742,3.928,3.928,0,0,0,3.841,3.849,3.886,3.886,0,0,0,3.763-3.719A3.733,3.733,0,0,0,1539.255,808.936Zm0,19.363a3.729,3.729,0,0,0,3.731-3.867,3.8,3.8,0,0,0-7.6.113A3.79,3.79,0,0,0,1539.252,828.3Zm-11.85-2.169a3.823,3.823,0,0,0,3.77-3.664,3.952,3.952,0,0,0-3.957-3.907,3.838,3.838,0,0,0-3.6,3.826A3.608,3.608,0,0,0,1527.4,826.13Zm23.579,0a3.781,3.781,0,0,0,3.87-3.738,3.956,3.956,0,0,0-3.844-3.833,3.9,3.9,0,0,0-3.753,3.718A3.731,3.731,0,0,0,1550.981,826.13Z" fill="#fefefe" opacity="0"/>
      <path id="パス_265" data-name="パス 265" d="M1558.462,787.111c-.15-1.329-.2-2.542-.437-3.72a7.715,7.715,0,0,0-7.075-6.545c-1.794-.189-3.63.046-5.432-.1a2.956,2.956,0,0,1-2.031-.991c-2.817-4.262-6.755-6.325-11.781-5.756-5.46.618-9.563,3.395-11.651,8.667a29.686,29.686,0,0,0-1.785,11.9c-.664.09-1.31.168-1.952.268-5.692.883-8.437,5.428-6.6,10.939,1.294,3.889,4.153,5.829,8.066,6.442a10.776,10.776,0,0,1,1.086.112c1.461.389,2.41,1.268,2.194,2.87a2.333,2.333,0,0,1-2.677,2.162,14.246,14.246,0,0,1-11.945-6.6c-4.821-7.415-2.09-17.533,5.773-20.364.583-.209,1.077-1.332,1.184-2.09a26.792,26.792,0,0,1,3.842-11.279c5.729-8.718,20.183-11.955,28.643-2.6a3.29,3.29,0,0,0,2.147.963c7.193.131,12.607,2.777,14.94,10.1a2.207,2.207,0,0,0,1.446,1.025,13.36,13.36,0,0,1,10.461,10.7c1.341,5.834.515,11.132-4.073,15.387a18.316,18.316,0,0,1-9.373,4.566,2.717,2.717,0,0,1-3.393-1.945c-.291-1.378.619-2.473,2.191-3.059a30.214,30.214,0,0,0,6.268-2.739c3.711-2.47,4.7-6.8,3.154-11.953-1.168-3.9-3.927-5.891-8.481-6.148C1560.267,787.274,1559.369,787.184,1558.462,787.111Z" fill="#8d8d8d"/>
      <path id="パス_266" data-name="パス 266" d="M1523.614,810.489a3.646,3.646,0,0,1,3.83-3.726,3.862,3.862,0,0,1,3.728,3.737,3.957,3.957,0,0,1-3.828,3.861A3.74,3.74,0,0,1,1523.614,810.489Z" fill="#8e8e8e"/>
      <path id="パス_267" data-name="パス 267" d="M1547.318,810.588a3.649,3.649,0,0,1,3.727-3.825,3.824,3.824,0,0,1,3.81,3.827,3.943,3.943,0,0,1-3.72,3.771A3.721,3.721,0,0,1,1547.318,810.588Z" fill="#8e8e8e"/>
      <path id="パス_268" data-name="パス 268" d="M1539.255,808.936a3.733,3.733,0,0,1,3.728,3.872,3.886,3.886,0,0,1-3.763,3.719,3.928,3.928,0,0,1-3.841-3.849A3.757,3.757,0,0,1,1539.255,808.936Z" fill="#8e8e8e"/>
      <path id="パス_269" data-name="パス 269" d="M1539.252,828.3a3.79,3.79,0,0,1-3.874-3.754,3.8,3.8,0,0,1,7.6-.113A3.729,3.729,0,0,1,1539.252,828.3Z" fill="#8e8e8e"/>
      <path id="パス_270" data-name="パス 270" d="M1527.4,826.13a3.608,3.608,0,0,1-3.788-3.745,3.838,3.838,0,0,1,3.6-3.826,3.952,3.952,0,0,1,3.957,3.907A3.823,3.823,0,0,1,1527.4,826.13Z" fill="#8e8e8e"/>
      <path id="パス_271" data-name="パス 271" d="M1550.981,826.13a3.731,3.731,0,0,1-3.727-3.853,3.9,3.9,0,0,1,3.753-3.718,3.956,3.956,0,0,1,3.844,3.833A3.781,3.781,0,0,1,1550.981,826.13Z" fill="#8e8e8e"/>
    </g>
  </g>
</svg>
