<svg xmlns="http://www.w3.org/2000/svg" width="216" height="104" viewBox="0 0 216 104">
  <g id="icon_day04_00" transform="translate(-1984.881 -322.66)">
    <path id="パス_369" data-name="パス 369" d="M1984.881,322.66h216v104h-216Zm126.564,42.383c.907.073,1.8.163,2.7.214,4.555.257,7.314,2.253,8.482,6.149,1.546,5.155.556,9.482-3.154,11.953a30.291,30.291,0,0,1-6.268,2.738c-1.572.586-2.482,1.681-2.191,3.059a2.717,2.717,0,0,0,3.393,1.946,18.325,18.325,0,0,0,9.373-4.567c4.587-4.254,5.413-9.553,4.073-15.387a13.36,13.36,0,0,0-10.461-10.7,2.217,2.217,0,0,1-1.447-1.026c-2.332-7.325-7.746-9.971-14.94-10.1a3.287,3.287,0,0,1-2.146-.963c-8.461-9.35-22.914-6.113-28.643,2.605a26.8,26.8,0,0,0-3.842,11.279c-.107.758-.6,1.881-1.185,2.091-7.862,2.83-10.593,12.948-5.773,20.363a14.247,14.247,0,0,0,11.945,6.6,2.333,2.333,0,0,0,2.678-2.161c.215-1.6-.733-2.482-2.194-2.87a10.479,10.479,0,0,0-1.087-.113c-3.912-.613-6.771-2.553-8.065-6.442-1.833-5.511.912-10.056,6.6-10.939.642-.1,1.287-.178,1.951-.268a29.7,29.7,0,0,1,1.786-11.9c2.088-5.272,6.191-8.05,11.651-8.668,5.025-.569,8.964,1.494,11.78,5.757a2.964,2.964,0,0,0,2.032.99c1.8.146,3.638-.089,5.432.1a7.716,7.716,0,0,1,7.075,6.545C2111.24,362.5,2111.294,363.714,2111.445,365.043ZM2076.6,388.421a3.742,3.742,0,0,0,3.73,3.873,3.958,3.958,0,0,0,3.828-3.862,3.862,3.862,0,0,0-3.728-3.737A3.646,3.646,0,0,0,2076.6,388.421Zm23.7.1a3.719,3.719,0,0,0,3.817,3.773,3.943,3.943,0,0,0,3.72-3.771,3.825,3.825,0,0,0-3.81-3.827A3.649,3.649,0,0,0,2100.3,388.52Zm-8.063-1.651a3.756,3.756,0,0,0-3.876,3.741,3.927,3.927,0,0,0,3.841,3.849,3.887,3.887,0,0,0,3.763-3.719A3.733,3.733,0,0,0,2092.238,386.869Zm0,19.362a3.729,3.729,0,0,0,3.731-3.867,3.8,3.8,0,0,0-7.6.114A3.788,3.788,0,0,0,2092.235,406.231Zm-11.85-2.169a3.823,3.823,0,0,0,3.77-3.664,3.951,3.951,0,0,0-3.957-3.906,3.837,3.837,0,0,0-3.6,3.825A3.607,3.607,0,0,0,2080.385,404.062Zm23.579,0a3.782,3.782,0,0,0,3.87-3.738,3.957,3.957,0,0,0-3.844-3.833,3.9,3.9,0,0,0-3.753,3.718A3.73,3.73,0,0,0,2103.964,404.062Z" fill="#fefefe" opacity="0"/>
    <path id="パス_370" data-name="パス 370" d="M2111.445,365.043c-.151-1.329-.205-2.542-.437-3.72a7.716,7.716,0,0,0-7.075-6.545c-1.794-.189-3.63.046-5.432-.1a2.964,2.964,0,0,1-2.032-.99c-2.816-4.263-6.755-6.326-11.78-5.757-5.46.618-9.563,3.4-11.651,8.668a29.7,29.7,0,0,0-1.786,11.9c-.664.09-1.309.168-1.951.268-5.692.883-8.437,5.428-6.6,10.939,1.294,3.889,4.153,5.829,8.065,6.442a10.479,10.479,0,0,1,1.087.113c1.461.388,2.409,1.267,2.194,2.87a2.333,2.333,0,0,1-2.678,2.161,14.247,14.247,0,0,1-11.945-6.6c-4.82-7.415-2.089-17.533,5.773-20.363.584-.21,1.078-1.333,1.185-2.091a26.8,26.8,0,0,1,3.842-11.279c5.729-8.718,20.182-11.955,28.643-2.605a3.287,3.287,0,0,0,2.146.963c7.194.132,12.608,2.778,14.94,10.1a2.217,2.217,0,0,0,1.447,1.026,13.36,13.36,0,0,1,10.461,10.7c1.34,5.834.514,11.133-4.073,15.387a18.325,18.325,0,0,1-9.373,4.567,2.717,2.717,0,0,1-3.393-1.946c-.291-1.378.619-2.473,2.191-3.059a30.291,30.291,0,0,0,6.268-2.738c3.71-2.471,4.7-6.8,3.154-11.953-1.168-3.9-3.927-5.892-8.482-6.149C2113.25,365.206,2112.352,365.116,2111.445,365.043Z" fill="#8d8d8d"/>
    <path id="パス_371" data-name="パス 371" d="M2076.6,388.421a3.646,3.646,0,0,1,3.83-3.726,3.862,3.862,0,0,1,3.728,3.737,3.958,3.958,0,0,1-3.828,3.862A3.742,3.742,0,0,1,2076.6,388.421Z" fill="#8e8e8e"/>
    <path id="パス_372" data-name="パス 372" d="M2100.3,388.52a3.649,3.649,0,0,1,3.727-3.825,3.825,3.825,0,0,1,3.81,3.827,3.943,3.943,0,0,1-3.72,3.771A3.719,3.719,0,0,1,2100.3,388.52Z" fill="#8e8e8e"/>
    <path id="パス_373" data-name="パス 373" d="M2092.238,386.869a3.733,3.733,0,0,1,3.728,3.871,3.887,3.887,0,0,1-3.763,3.719,3.927,3.927,0,0,1-3.841-3.849A3.756,3.756,0,0,1,2092.238,386.869Z" fill="#8e8e8e"/>
    <path id="パス_374" data-name="パス 374" d="M2092.235,406.231a3.788,3.788,0,0,1-3.874-3.753,3.8,3.8,0,0,1,7.6-.114A3.729,3.729,0,0,1,2092.235,406.231Z" fill="#8e8e8e"/>
    <path id="パス_375" data-name="パス 375" d="M2080.385,404.062a3.607,3.607,0,0,1-3.788-3.745,3.837,3.837,0,0,1,3.6-3.825,3.951,3.951,0,0,1,3.957,3.906A3.823,3.823,0,0,1,2080.385,404.062Z" fill="#8e8e8e"/>
    <path id="パス_376" data-name="パス 376" d="M2103.964,404.062a3.73,3.73,0,0,1-3.727-3.853,3.9,3.9,0,0,1,3.753-3.718,3.957,3.957,0,0,1,3.844,3.833A3.782,3.782,0,0,1,2103.964,404.062Z" fill="#8e8e8e"/>
  </g>
</svg>
