<svg xmlns="http://www.w3.org/2000/svg" width="215.868" height="104.145" viewBox="0 0 215.868 104.145">
  <g id="icon_day02_02" transform="translate(-787.87 -597.932)">
    <line id="線_5" data-name="線 5" y2="53.207" transform="translate(896.527 622.807)" fill="none" stroke="#bbb" stroke-linecap="round" stroke-miterlimit="10" stroke-width="4"/>
    <g id="グループ_6" data-name="グループ 6">
      <path id="パス_52" data-name="パス 52" d="M891.87,701.932h-104v-104h104Zm-53.295-28.085c6.632,0,13.265.09,19.893-.052a20.607,20.607,0,0,0,6.219-1.145c6.993-2.432,11-8.128,10.661-15.074-.35-7.187-3.618-13-11.394-14.767-.491-.112-.967-.752-1.244-1.259a35.109,35.109,0,0,0-2.115-4.2c-2.995-4.043-7.28-5.4-12.131-5.538a4.056,4.056,0,0,1-2.676-1c-8.69-9.693-24.734-6.01-29.706,4.566a46.217,46.217,0,0,0-2.654,8.841c-.343,1.414-.615,2.387-2.189,3.085-4.651,2.063-6.995,5.975-7.268,10.947a14.527,14.527,0,0,0,14.711,15.591C825.312,673.912,831.944,673.852,838.575,673.847Z" fill="#fefefe" opacity="0"/>
      <path id="パス_53" data-name="パス 53" d="M838.575,673.85c-6.631,0-13.263.062-19.893-.013a14.527,14.527,0,0,1-14.711-15.591c.273-4.972,2.617-8.884,7.268-10.947,1.574-.7,1.846-1.671,2.189-3.085a46.217,46.217,0,0,1,2.654-8.841c4.972-10.576,21.016-14.259,29.706-4.566a4.056,4.056,0,0,0,2.676,1c4.851.142,9.136,1.495,12.131,5.538a35.109,35.109,0,0,1,2.115,4.2c.277.507.753,1.147,1.244,1.259,7.776,1.769,11.044,7.58,11.394,14.767.339,6.946-3.668,12.642-10.661,15.074a20.607,20.607,0,0,1-6.219,1.145C851.84,673.937,845.207,673.847,838.575,673.85Zm-20.826-22.767c-.388.036-.981.075-1.57.148-3.677.457-6.006,2.383-6.808,5.622a9.408,9.408,0,0,0,9.206,11.844q20.158.157,40.32,0c7.431-.061,12.229-5.984,11.051-13.274a8.471,8.471,0,0,0-8.046-7.587c-1.189-.127-2.375-.282-3.675-.438,0-.661.035-1.205-.005-1.743-.324-4.327-2.376-7.259-6.1-8.1a23.356,23.356,0,0,0-6.117-.342c-1.276.056-2.123-.038-2.856-1.252a11.1,11.1,0,0,0-6.97-5.214A13.868,13.868,0,0,0,819.3,641.1C818.5,644.3,818.265,647.644,817.749,651.083Z" fill="#a1a1a1"/>
      <path id="パス_54" data-name="パス 54" d="M817.749,651.083c.516-3.439.747-6.783,1.552-9.982a13.868,13.868,0,0,1,16.875-10.358,11.1,11.1,0,0,1,6.97,5.214c.733,1.214,1.58,1.308,2.856,1.252a23.356,23.356,0,0,1,6.117.342c3.727.845,5.779,3.777,6.1,8.1.04.538.005,1.082.005,1.743,1.3.156,2.486.311,3.675.438a8.471,8.471,0,0,1,8.046,7.587c1.178,7.29-3.62,13.213-11.051,13.274q-20.158.166-40.32,0a9.408,9.408,0,0,1-9.206-11.844c.8-3.239,3.131-5.165,6.808-5.622C816.768,651.158,817.361,651.119,817.749,651.083Z" fill="#fefefe" opacity="0"/>
    </g>
    <g id="グループ_43" data-name="グループ 43">
      <path id="パス_294" data-name="パス 294" d="M1003.738,702.077h-104v-104h104ZM970.6,640.089c.885,0,1.555-.037,2.219.006,5.383.354,8.4,2.71,9.355,7.286,1.21,5.8-.564,9.979-5.567,12.276a26.592,26.592,0,0,1-6.116,1.538c-1.516.289-2.485.95-2.534,2.568a2.413,2.413,0,0,0,2.5,2.552c9.535.707,17.892-7.557,17.134-17.065-.438-5.508-2.518-10.125-7.784-12.729a19.481,19.481,0,0,1-6.2-5.687c-2.969-4.78-7.537-6.377-12.883-6.52a3.784,3.784,0,0,1-2.523-.891c-6.273-7.132-16.743-7.293-24.066-2.222-5.6,3.881-7.678,9.658-8.468,16.074a2.336,2.336,0,0,1-1.612,2.279,12.718,12.718,0,0,0-7.713,13.362c1.135,8.442,7.174,13.564,15.815,13.412,1.979-.034,3.11-.953,3.121-2.534s-1.124-2.43-3.093-2.594a19.426,19.426,0,0,1-4.813-.8c-4.168-1.472-6.418-5.589-5.815-10.225.513-3.94,2.95-6.04,7.718-6.468,1.227-.11,1.258-.646,1.244-1.65a25.555,25.555,0,0,1,2.538-12.182c3.837-7.537,16.741-10.594,22.517-1.3a2.1,2.1,0,0,0,2.534,1.073,15.067,15.067,0,0,1,3.814-.119c4.982.421,7.842,2.947,8.514,7.468C970.577,637.932,970.541,638.9,970.6,640.089Zm-10.418,28.046c0,2.85-.029,5.7.011,8.549.025,1.845,1.005,2.916,2.531,2.916s2.552-1.082,2.564-2.908q.057-8.457,0-16.915c-.011-1.956-1.036-3.034-2.65-2.986-1.553.046-2.426,1.058-2.45,2.978C960.152,662.557,960.178,665.346,960.179,668.135Zm-21.532-.02c0,2.85-.025,5.7.009,8.548.023,1.84.993,2.928,2.506,2.94s2.573-1.063,2.588-2.892q.067-8.548,0-17.1c-.016-1.836-1.076-2.861-2.632-2.825s-2.439,1.051-2.46,2.959C938.624,662.537,938.647,665.326,938.647,668.115Zm10.743,3.115c0,2.849-.019,5.7.006,8.545.017,1.98.96,3.043,2.6,3.022,1.579-.022,2.482-1.032,2.489-2.922q.031-8.454,0-16.908c-.006-1.9-.9-2.9-2.48-2.928-1.637-.026-2.586,1.037-2.6,3.01C949.37,665.776,949.389,668.5,949.39,671.23Z" fill="#fefefe" opacity="0"/>
      <path id="パス_295" data-name="パス 295" d="M970.6,640.089c-.056-1.186-.02-2.157-.16-3.1-.672-4.521-3.532-7.047-8.514-7.468a15.067,15.067,0,0,0-3.814.119,2.1,2.1,0,0,1-2.534-1.073c-5.776-9.29-18.68-6.233-22.517,1.3a25.555,25.555,0,0,0-2.538,12.182c.014,1-.017,1.54-1.244,1.65-4.768.428-7.205,2.528-7.718,6.468-.6,4.636,1.647,8.753,5.815,10.225a19.426,19.426,0,0,0,4.813.8c1.969.164,3.1,1.017,3.093,2.594s-1.142,2.5-3.121,2.534c-8.641.152-14.68-4.97-15.815-13.412a12.718,12.718,0,0,1,7.713-13.362,2.336,2.336,0,0,0,1.612-2.279c.79-6.416,2.863-12.193,8.468-16.074,7.323-5.071,17.793-4.91,24.066,2.222a3.784,3.784,0,0,0,2.523.891c5.346.143,9.914,1.74,12.883,6.52a19.481,19.481,0,0,0,6.2,5.687c5.266,2.6,7.346,7.221,7.784,12.729.758,9.508-7.6,17.772-17.134,17.065a2.413,2.413,0,0,1-2.5-2.552c.049-1.618,1.018-2.279,2.534-2.568a26.592,26.592,0,0,0,6.116-1.538c5-2.3,6.777-6.476,5.567-12.276-.956-4.576-3.972-6.932-9.355-7.286C972.152,640.052,971.482,640.089,970.6,640.089Z" fill="#77769c"/>
      <path id="パス_296" data-name="パス 296" d="M960.178,668.135c0-2.789-.026-5.578.009-8.366.024-1.92.9-2.932,2.45-2.978,1.614-.048,2.639,1.03,2.65,2.986q.051,8.457,0,16.915c-.012,1.826-1.045,2.907-2.564,2.908s-2.506-1.071-2.531-2.916C960.15,673.835,960.179,670.985,960.178,668.135Z" fill="#36479a"/>
      <path id="パス_297" data-name="パス 297" d="M938.647,668.115c0-2.789-.023-5.578.008-8.366.021-1.908.9-2.924,2.46-2.959s2.616.989,2.632,2.825q.075,8.547,0,17.1c-.015,1.829-1.073,2.9-2.588,2.892s-2.483-1.1-2.506-2.94C938.622,673.814,938.647,670.965,938.647,668.115Z" fill="#36479a"/>
      <path id="パス_298" data-name="パス 298" d="M949.389,671.23c0-2.727-.019-5.454.007-8.181.019-1.973.968-3.036,2.6-3.01,1.584.025,2.474,1.028,2.48,2.928q.03,8.454,0,16.908c-.007,1.89-.91,2.9-2.489,2.922-1.636.021-2.579-1.042-2.6-3.022C949.371,676.927,949.39,674.079,949.389,671.23Z" fill="#349"/>
    </g>
  </g>
</svg>
