<svg xmlns="http://www.w3.org/2000/svg" width="216.422" height="104.042" viewBox="0 0 216.422 104.042">
  <g id="icon_day02_01" transform="translate(-787.87 -455.23)">
    <line id="線_6" data-name="線 6" y2="53.207" transform="translate(896.527 480.147)" fill="none" stroke="#bbb" stroke-linecap="round" stroke-miterlimit="10" stroke-width="4"/>
    <g id="グループ_5" data-name="グループ 5">
      <path id="パス_49" data-name="パス 49" d="M891.87,559.272h-104v-104h104Zm-53.295-28.085c6.632,0,13.265.09,19.893-.053a20.6,20.6,0,0,0,6.219-1.144c6.993-2.433,11-8.128,10.661-15.074-.35-7.187-3.618-13-11.394-14.767-.491-.112-.967-.752-1.244-1.259a35.037,35.037,0,0,0-2.115-4.2c-2.995-4.043-7.28-5.4-12.131-5.538a4.061,4.061,0,0,1-2.676-1c-8.69-9.693-24.734-6.01-29.706,4.566a46.215,46.215,0,0,0-2.654,8.841c-.343,1.414-.615,2.387-2.189,3.085-4.651,2.063-6.995,5.975-7.268,10.947a14.527,14.527,0,0,0,14.711,15.591C825.312,531.252,831.944,531.192,838.575,531.187Z" fill="#fefefe" opacity="0"/>
      <path id="パス_50" data-name="パス 50" d="M838.575,531.19c-6.631,0-13.263.062-19.893-.013a14.527,14.527,0,0,1-14.711-15.591c.273-4.972,2.617-8.884,7.268-10.947,1.574-.7,1.846-1.671,2.189-3.085a46.215,46.215,0,0,1,2.654-8.841c4.972-10.576,21.016-14.259,29.706-4.566a4.061,4.061,0,0,0,2.676,1c4.851.142,9.136,1.495,12.131,5.538a35.037,35.037,0,0,1,2.115,4.2c.277.507.753,1.147,1.244,1.259,7.776,1.769,11.044,7.58,11.394,14.767.339,6.946-3.668,12.641-10.661,15.074a20.6,20.6,0,0,1-6.219,1.144C851.84,531.277,845.207,531.187,838.575,531.19Zm-20.826-22.767c-.388.036-.981.075-1.57.148-3.677.457-6.006,2.383-6.808,5.621a9.409,9.409,0,0,0,9.206,11.845q20.158.158,40.32,0c7.431-.061,12.229-5.984,11.051-13.274a8.471,8.471,0,0,0-8.046-7.587c-1.189-.127-2.375-.282-3.675-.438,0-.661.035-1.205-.005-1.743-.324-4.328-2.376-7.259-6.1-8.1a23.358,23.358,0,0,0-6.117-.342c-1.276.056-2.123-.039-2.856-1.252a11.1,11.1,0,0,0-6.97-5.214A13.868,13.868,0,0,0,819.3,498.441C818.5,501.64,818.265,504.984,817.749,508.423Z" fill="#a1a1a1"/>
      <path id="パス_51" data-name="パス 51" d="M817.749,508.423c.516-3.439.747-6.783,1.552-9.982a13.868,13.868,0,0,1,16.875-10.358,11.1,11.1,0,0,1,6.97,5.214c.733,1.213,1.58,1.308,2.856,1.252a23.358,23.358,0,0,1,6.117.342c3.727.845,5.779,3.776,6.1,8.1.04.538.005,1.082.005,1.743,1.3.156,2.486.311,3.675.438a8.471,8.471,0,0,1,8.046,7.587c1.178,7.29-3.62,13.213-11.051,13.274q-20.158.167-40.32,0a9.409,9.409,0,0,1-9.206-11.845c.8-3.238,3.131-5.164,6.808-5.621C816.768,508.5,817.361,508.459,817.749,508.423Z" fill="#fefefe" opacity="0"/>
    </g>
    <g id="グループ_21" data-name="グループ 21">
      <path id="パス_143" data-name="パス 143" d="M1004.292,559.23h-104v-104h104ZM952.5,488.652c-9.712-.256-18.376,7.857-18.649,17.462-.3,10.608,7.51,19.228,17.683,19.514,10.294.29,18.956-7.669,19.2-17.636C970.991,497.243,963.158,488.932,952.5,488.652Zm2.333,50.71c0-1.273.056-2.548-.014-3.816a2.618,2.618,0,0,0-2.58-2.727,2.574,2.574,0,0,0-2.561,2.743c-.074,2.542-.063,5.089-.006,7.632a2.634,2.634,0,0,0,2.494,2.824c1.466.057,2.564-1.07,2.656-2.841C954.891,541.908,954.838,540.634,954.836,539.362Zm-5.175-64.012h.01c0,1.331-.086,2.67.022,3.992a2.428,2.428,0,0,0,2.548,2.523,2.344,2.344,0,0,0,2.541-2.5c.1-2.659.1-5.326.017-7.986a2.51,2.51,0,0,0-2.628-2.643,2.613,2.613,0,0,0-2.5,2.8C949.616,472.8,949.661,474.079,949.661,475.35Zm-23.033,3.612c-.769.623-1.877,1.083-2.074,1.795a3.669,3.669,0,0,0,.512,2.923,72.836,72.836,0,0,0,5.339,5.44c1.331,1.289,2.734,1.335,3.843.219,1.064-1.069.992-2.56-.264-3.852-1.729-1.781-3.478-3.544-5.275-5.257A12.6,12.6,0,0,0,926.628,478.962Zm8.723,47.993c-.683-.765-1.178-1.8-1.912-2.014a3.408,3.408,0,0,0-2.756.508c-1.974,1.686-3.755,3.6-5.565,5.474a2.513,2.513,0,0,0-.214,3.719c1.078,1.123,2.536,1.1,3.857-.165,1.791-1.718,3.553-3.471,5.258-5.275A13.018,13.018,0,0,0,935.351,526.955Zm45.236-45.389c-.617-.691-1.113-1.731-1.844-1.937a3.453,3.453,0,0,0-2.771.522c-1.982,1.693-3.765,3.621-5.589,5.493a2.48,2.48,0,0,0-.2,3.6,2.421,2.421,0,0,0,3.717.072c1.941-1.839,3.82-3.746,5.659-5.687A9.071,9.071,0,0,0,980.587,481.566ZM971.9,524.259c-.781.656-1.846,1.116-2.005,1.79a3.832,3.832,0,0,0,.5,2.953,70.548,70.548,0,0,0,5.227,5.339c1.378,1.347,2.725,1.463,3.859.408s1.056-2.676-.247-4.015c-1.655-1.7-3.319-3.392-5.045-5.016A15.322,15.322,0,0,0,971.9,524.259Zm-51.662-19.422c-1.33,0-2.661-.021-3.992.006a2.531,2.531,0,0,0-.145,5.059c2.718.1,5.444.1,8.163.007a2.454,2.454,0,0,0,2.532-2.556,2.546,2.546,0,0,0-2.748-2.511C922.78,504.8,921.509,504.834,920.239,504.837Zm64.067,5.108q1.732,0,3.464,0c.121,0,.243,0,.364-.005,1.71-.119,2.7-1.071,2.693-2.583-.01-1.537-.98-2.481-2.725-2.512-2.49-.043-4.982-.035-7.473-.005-1.769.021-2.951,1.083-2.929,2.543.022,1.482,1.173,2.5,2.961,2.554C981.875,509.975,983.091,509.945,984.306,509.945Z" fill="#fefefe" opacity="0"/>
      <path id="パス_144" data-name="パス 144" d="M952.5,488.652c10.655.28,18.488,8.591,18.23,19.34-.24,9.967-8.9,17.926-19.2,17.636-10.173-.286-17.984-8.906-17.683-19.514C934.127,496.509,942.791,488.4,952.5,488.652Zm-.207,5.161A13.361,13.361,0,1,0,965.643,507.1,13.275,13.275,0,0,0,952.3,493.813Z" fill="#ef8a3e"/>
      <path id="パス_145" data-name="パス 145" d="M954.837,539.362c0,1.272.054,2.546-.012,3.815-.092,1.771-1.19,2.9-2.656,2.841a2.634,2.634,0,0,1-2.494-2.824c-.057-2.543-.068-5.09.006-7.632a2.574,2.574,0,0,1,2.561-2.743,2.618,2.618,0,0,1,2.58,2.727C954.892,536.814,954.836,538.089,954.837,539.362Z" fill="#f08c41"/>
      <path id="パス_146" data-name="パス 146" d="M949.661,475.35c0-1.271-.045-2.545.011-3.813a2.613,2.613,0,0,1,2.5-2.8,2.51,2.51,0,0,1,2.628,2.643c.086,2.66.078,5.327-.017,7.986a2.344,2.344,0,0,1-2.541,2.5,2.428,2.428,0,0,1-2.548-2.523c-.108-1.322-.022-2.661-.022-3.992Z" fill="#f08c41"/>
      <path id="パス_147" data-name="パス 147" d="M926.628,478.962a12.6,12.6,0,0,1,2.081,1.268c1.8,1.713,3.546,3.476,5.275,5.257,1.256,1.292,1.328,2.783.264,3.852-1.109,1.116-2.512,1.07-3.843-.219a72.836,72.836,0,0,1-5.339-5.44,3.669,3.669,0,0,1-.512-2.923C924.751,480.045,925.859,479.585,926.628,478.962Z" fill="#ef8b40"/>
      <path id="パス_148" data-name="パス 148" d="M935.351,526.955a13.018,13.018,0,0,1-1.332,2.247c-1.7,1.8-3.467,3.557-5.258,5.275-1.321,1.268-2.779,1.288-3.857.165a2.513,2.513,0,0,1,.214-3.719c1.81-1.871,3.591-3.788,5.565-5.474a3.408,3.408,0,0,1,2.756-.508C934.173,525.154,934.668,526.19,935.351,526.955Z" fill="#ef8b40"/>
      <path id="パス_149" data-name="パス 149" d="M980.587,481.566a9.071,9.071,0,0,1-1.028,2.067c-1.839,1.941-3.718,3.848-5.659,5.687a2.421,2.421,0,0,1-3.717-.072,2.48,2.48,0,0,1,.2-3.6c1.824-1.872,3.607-3.8,5.589-5.493a3.453,3.453,0,0,1,2.771-.522C979.474,479.835,979.97,480.875,980.587,481.566Z" fill="#ef8b3f"/>
      <path id="パス_150" data-name="パス 150" d="M971.9,524.259a15.322,15.322,0,0,1,2.288,1.459c1.726,1.624,3.39,3.317,5.045,5.016,1.3,1.339,1.377,2.962.247,4.015s-2.481.939-3.859-.408A70.548,70.548,0,0,1,970.4,529a3.832,3.832,0,0,1-.5-2.953C970.055,525.375,971.12,524.915,971.9,524.259Z" fill="#ef8b3f"/>
      <path id="パス_151" data-name="パス 151" d="M920.239,504.836c1.27,0,2.541-.035,3.81.006a2.546,2.546,0,0,1,2.748,2.511,2.454,2.454,0,0,1-2.532,2.556c-2.719.088-5.445.1-8.163-.007a2.531,2.531,0,0,1,.145-5.059C917.578,504.816,918.909,504.837,920.239,504.836Z" fill="#ef8b3e"/>
      <path id="パス_152" data-name="パス 152" d="M984.306,509.945c-1.215,0-2.431.03-3.645-.008-1.788-.055-2.939-1.072-2.961-2.554-.022-1.46,1.16-2.522,2.929-2.543,2.491-.03,4.983-.038,7.473.005,1.745.031,2.715.975,2.725,2.512.01,1.512-.983,2.464-2.693,2.583-.121.008-.243.005-.364.005Q986.037,509.947,984.306,509.945Z" fill="#ef8a3e"/>
      <path id="パス_153" data-name="パス 153" d="M952.3,493.813A13.361,13.361,0,1,1,938.945,507.1,13.278,13.278,0,0,1,952.3,493.813Z" fill="#fefdfd" opacity="0"/>
    </g>
  </g>
</svg>
