<svg xmlns="http://www.w3.org/2000/svg" width="217.979" height="104" viewBox="0 0 217.979 104">
  <g id="icon_day01_03" transform="translate(-156.452 -744.727)">
    <line id="線_1" data-name="線 1" y2="53.207" transform="translate(265.644 769.457)" fill="none" stroke="#bbb" stroke-linecap="round" stroke-miterlimit="10" stroke-width="4"/>
    <g id="グループ_19" data-name="グループ 19">
      <path id="パス_121" data-name="パス 121" d="M260.452,848.727h-104v-104h104ZM208.663,778.15c-9.713-.256-18.377,7.857-18.649,17.462-.3,10.608,7.51,19.227,17.683,19.514,10.293.29,18.955-7.669,19.195-17.637C227.151,786.741,219.317,778.43,208.663,778.15Zm2.332,50.709c0-1.272.056-2.547-.014-3.815a2.617,2.617,0,0,0-2.579-2.727,2.575,2.575,0,0,0-2.562,2.743c-.074,2.542-.063,5.089,0,7.632a2.635,2.635,0,0,0,2.493,2.824c1.466.056,2.565-1.07,2.656-2.841C211.05,831.406,211,830.131,210.995,828.859Zm-5.175-64.012h.01c0,1.332-.085,2.67.023,3.993a2.428,2.428,0,0,0,2.547,2.523,2.344,2.344,0,0,0,2.541-2.5c.1-2.66.1-5.327.018-7.986a2.512,2.512,0,0,0-2.629-2.644,2.613,2.613,0,0,0-2.5,2.8C205.775,762.3,205.82,763.576,205.82,764.847Zm-23.033,3.613c-.768.623-1.877,1.082-2.074,1.794a3.675,3.675,0,0,0,.512,2.924,72.641,72.641,0,0,0,5.34,5.439c1.33,1.289,2.733,1.335,3.843.22,1.063-1.069.992-2.56-.264-3.853-1.73-1.78-3.479-3.544-5.276-5.256A12.6,12.6,0,0,0,182.787,768.46Zm8.723,47.993c-.683-.766-1.178-1.8-1.912-2.015a3.412,3.412,0,0,0-2.755.508c-1.974,1.687-3.755,3.6-5.566,5.475a2.512,2.512,0,0,0-.213,3.719c1.077,1.122,2.536,1.1,3.856-.165,1.792-1.719,3.553-3.471,5.258-5.275A12.991,12.991,0,0,0,191.51,816.453Zm45.236-45.39c-.617-.691-1.113-1.73-1.843-1.936a3.451,3.451,0,0,0-2.772.522c-1.981,1.692-3.764,3.621-5.589,5.492a2.483,2.483,0,0,0-.2,3.6,2.422,2.422,0,0,0,3.717.072c1.941-1.839,3.82-3.747,5.66-5.687A9.084,9.084,0,0,0,236.746,771.063Zm-8.685,42.694c-.782.656-1.846,1.116-2.006,1.79a3.832,3.832,0,0,0,.5,2.953,70.54,70.54,0,0,0,5.227,5.339c1.378,1.346,2.725,1.463,3.859.407s1.057-2.676-.247-4.015c-1.654-1.7-3.318-3.391-5.045-5.016A15.225,15.225,0,0,0,228.061,813.757ZM176.4,794.335c-1.33,0-2.661-.022-3.991.005a2.531,2.531,0,0,0-.145,5.06c2.717.1,5.444.095,8.162.006a2.454,2.454,0,0,0,2.533-2.556,2.546,2.546,0,0,0-2.748-2.51C178.94,794.3,177.669,794.332,176.4,794.335Zm64.068,5.108h3.463c.122,0,.244,0,.365-.005,1.71-.119,2.7-1.072,2.692-2.584-.009-1.536-.98-2.481-2.724-2.511-2.491-.044-4.983-.035-7.474-.005-1.769.021-2.95,1.083-2.929,2.542.022,1.482,1.173,2.5,2.961,2.555C238.034,799.473,239.25,799.442,240.466,799.443Z" fill="#fefefe" opacity="0"/>
      <path id="パス_122" data-name="パス 122" d="M208.663,778.15c10.654.28,18.488,8.591,18.229,19.339-.24,9.968-8.9,17.927-19.195,17.637-10.173-.287-17.985-8.906-17.683-19.514C190.286,786.007,198.95,777.894,208.663,778.15Zm-.208,5.161A13.36,13.36,0,1,0,221.8,796.6,13.275,13.275,0,0,0,208.455,783.311Z" fill="#ef8a3e"/>
      <path id="パス_123" data-name="パス 123" d="M211,828.859c0,1.272.054,2.547-.012,3.816-.091,1.771-1.19,2.9-2.656,2.841a2.635,2.635,0,0,1-2.493-2.824c-.058-2.543-.069-5.09,0-7.632a2.575,2.575,0,0,1,2.562-2.743,2.617,2.617,0,0,1,2.579,2.727C211.051,826.312,210.995,827.587,211,828.859Z" fill="#f08c41"/>
      <path id="パス_124" data-name="パス 124" d="M205.82,764.847c0-1.271-.045-2.544.012-3.813a2.613,2.613,0,0,1,2.5-2.8,2.512,2.512,0,0,1,2.629,2.644c.085,2.659.077,5.326-.018,7.986a2.344,2.344,0,0,1-2.541,2.5,2.428,2.428,0,0,1-2.547-2.523c-.108-1.323-.023-2.661-.023-3.993Z" fill="#f08c41"/>
      <path id="パス_125" data-name="パス 125" d="M182.787,768.46a12.6,12.6,0,0,1,2.081,1.268c1.8,1.712,3.546,3.476,5.276,5.256,1.256,1.293,1.327,2.784.264,3.853-1.11,1.115-2.513,1.069-3.843-.22a72.641,72.641,0,0,1-5.34-5.439,3.675,3.675,0,0,1-.512-2.924C180.91,769.542,182.019,769.083,182.787,768.46Z" fill="#ef8b40"/>
      <path id="パス_126" data-name="パス 126" d="M191.51,816.453a12.991,12.991,0,0,1-1.332,2.247c-1.7,1.8-3.466,3.556-5.258,5.275-1.32,1.267-2.779,1.287-3.856.165a2.512,2.512,0,0,1,.213-3.719c1.811-1.871,3.592-3.788,5.566-5.475a3.412,3.412,0,0,1,2.755-.508C190.332,814.651,190.827,815.687,191.51,816.453Z" fill="#ef8b40"/>
      <path id="パス_127" data-name="パス 127" d="M236.746,771.063a9.084,9.084,0,0,1-1.027,2.068c-1.84,1.94-3.719,3.848-5.66,5.687a2.422,2.422,0,0,1-3.717-.072,2.483,2.483,0,0,1,.2-3.6c1.825-1.871,3.608-3.8,5.589-5.492a3.451,3.451,0,0,1,2.772-.522C235.633,769.333,236.129,770.372,236.746,771.063Z" fill="#ef8b3f"/>
      <path id="パス_128" data-name="パス 128" d="M228.061,813.757a15.225,15.225,0,0,1,2.287,1.458c1.727,1.625,3.391,3.317,5.045,5.016,1.3,1.339,1.378,2.963.247,4.015s-2.481.939-3.859-.407a70.54,70.54,0,0,1-5.227-5.339,3.832,3.832,0,0,1-.5-2.953C226.215,814.873,227.279,814.413,228.061,813.757Z" fill="#ef8b3f"/>
      <path id="パス_129" data-name="パス 129" d="M176.4,794.333c1.271,0,2.542-.034,3.811.007a2.546,2.546,0,0,1,2.748,2.51,2.454,2.454,0,0,1-2.533,2.556c-2.718.089-5.445.1-8.162-.006a2.531,2.531,0,0,1,.145-5.06C173.737,794.313,175.068,794.335,176.4,794.333Z" fill="#ef8b3e"/>
      <path id="パス_130" data-name="パス 130" d="M240.466,799.443c-1.216,0-2.432.03-3.646-.008-1.788-.056-2.939-1.073-2.961-2.555-.021-1.459,1.16-2.521,2.929-2.542,2.491-.03,4.983-.039,7.474.005,1.744.03,2.715.975,2.724,2.511.01,1.512-.982,2.465-2.692,2.584-.121.008-.243.005-.365.005Z" fill="#ef8a3e"/>
      <path id="パス_131" data-name="パス 131" d="M208.455,783.311A13.36,13.36,0,1,1,195.1,796.6,13.276,13.276,0,0,1,208.455,783.311Z" fill="#fefdfd" opacity="0"/>
    </g>
    <g id="グループ_25" data-name="グループ 25">
      <path id="パス_179" data-name="パス 179" d="M270.431,744.727h104v104h-104Q270.432,796.728,270.431,744.727Zm70.931,42.384c.907.073,1.8.163,2.7.214,4.555.257,7.314,2.253,8.482,6.148,1.546,5.156.556,9.483-3.154,11.953a30.238,30.238,0,0,1-6.268,2.739c-1.572.586-2.482,1.681-2.191,3.059a2.717,2.717,0,0,0,3.393,1.945A18.316,18.316,0,0,0,353.7,808.6c4.588-4.255,5.413-9.553,4.073-15.387a13.362,13.362,0,0,0-10.461-10.7,2.212,2.212,0,0,1-1.447-1.025c-2.332-7.326-7.746-9.972-14.94-10.1a3.287,3.287,0,0,1-2.146-.963c-8.461-9.35-22.914-6.113-28.643,2.6A26.793,26.793,0,0,0,296.3,784.3c-.107.758-.6,1.881-1.184,2.09-7.863,2.831-10.594,12.949-5.774,20.364a14.249,14.249,0,0,0,11.945,6.6,2.333,2.333,0,0,0,2.678-2.162c.216-1.6-.733-2.481-2.194-2.87a10.767,10.767,0,0,0-1.087-.112c-3.912-.613-6.771-2.553-8.065-6.442-1.833-5.511.912-10.056,6.6-10.939.642-.1,1.288-.178,1.951-.268a29.706,29.706,0,0,1,1.786-11.9c2.088-5.272,6.191-8.049,11.651-8.667,5.026-.569,8.964,1.494,11.78,5.756a2.961,2.961,0,0,0,2.032.991c1.8.146,3.638-.089,5.432.1a7.715,7.715,0,0,1,7.075,6.545C341.157,784.569,341.211,785.782,341.362,787.111Zm-34.848,23.378a3.74,3.74,0,0,0,3.73,3.872,3.957,3.957,0,0,0,3.828-3.861,3.862,3.862,0,0,0-3.728-3.737A3.646,3.646,0,0,0,306.514,810.489Zm23.7.1a3.72,3.72,0,0,0,3.817,3.773,3.943,3.943,0,0,0,3.72-3.771,3.825,3.825,0,0,0-3.81-3.827A3.649,3.649,0,0,0,330.218,810.588Zm-8.063-1.652a3.757,3.757,0,0,0-3.876,3.742,3.928,3.928,0,0,0,3.841,3.849,3.888,3.888,0,0,0,3.763-3.719A3.733,3.733,0,0,0,322.155,808.936Zm0,19.363a3.729,3.729,0,0,0,3.731-3.867,3.8,3.8,0,0,0-7.6.113A3.789,3.789,0,0,0,322.152,828.3ZM310.3,826.13a3.823,3.823,0,0,0,3.77-3.664,3.952,3.952,0,0,0-3.957-3.907,3.838,3.838,0,0,0-3.6,3.826A3.607,3.607,0,0,0,310.3,826.13Zm23.579,0a3.781,3.781,0,0,0,3.87-3.738,3.956,3.956,0,0,0-3.844-3.833,3.9,3.9,0,0,0-3.753,3.718A3.73,3.73,0,0,0,333.881,826.13Z" fill="#fefefe" opacity="0"/>
      <path id="パス_180" data-name="パス 180" d="M341.362,787.111c-.151-1.329-.2-2.542-.437-3.72a7.715,7.715,0,0,0-7.075-6.545c-1.794-.189-3.63.046-5.432-.1a2.961,2.961,0,0,1-2.032-.991c-2.816-4.262-6.754-6.325-11.78-5.756-5.46.618-9.563,3.395-11.651,8.667a29.706,29.706,0,0,0-1.786,11.9c-.663.09-1.309.168-1.951.268-5.692.883-8.437,5.428-6.6,10.939,1.294,3.889,4.153,5.829,8.065,6.442a10.767,10.767,0,0,1,1.087.112c1.461.389,2.41,1.268,2.194,2.87a2.333,2.333,0,0,1-2.678,2.162,14.249,14.249,0,0,1-11.945-6.6c-4.82-7.415-2.089-17.533,5.774-20.364.583-.209,1.077-1.332,1.184-2.09a26.793,26.793,0,0,1,3.842-11.279c5.729-8.718,20.182-11.955,28.643-2.6a3.287,3.287,0,0,0,2.146.963c7.194.131,12.608,2.777,14.94,10.1a2.212,2.212,0,0,0,1.447,1.025,13.362,13.362,0,0,1,10.461,10.7c1.34,5.834.515,11.132-4.073,15.387a18.316,18.316,0,0,1-9.373,4.566,2.717,2.717,0,0,1-3.393-1.945c-.291-1.378.619-2.473,2.191-3.059a30.238,30.238,0,0,0,6.268-2.739c3.71-2.47,4.7-6.8,3.154-11.953-1.168-3.9-3.927-5.891-8.482-6.148C343.167,787.274,342.269,787.184,341.362,787.111Z" fill="#8d8d8d"/>
      <path id="パス_181" data-name="パス 181" d="M306.514,810.489a3.646,3.646,0,0,1,3.83-3.726,3.862,3.862,0,0,1,3.728,3.737,3.957,3.957,0,0,1-3.828,3.861A3.74,3.74,0,0,1,306.514,810.489Z" fill="#8e8e8e"/>
      <path id="パス_182" data-name="パス 182" d="M330.218,810.588a3.649,3.649,0,0,1,3.727-3.825,3.825,3.825,0,0,1,3.81,3.827,3.943,3.943,0,0,1-3.72,3.771A3.72,3.72,0,0,1,330.218,810.588Z" fill="#8e8e8e"/>
      <path id="パス_183" data-name="パス 183" d="M322.155,808.936a3.733,3.733,0,0,1,3.728,3.872,3.888,3.888,0,0,1-3.763,3.719,3.928,3.928,0,0,1-3.841-3.849A3.757,3.757,0,0,1,322.155,808.936Z" fill="#8e8e8e"/>
      <path id="パス_184" data-name="パス 184" d="M322.152,828.3a3.789,3.789,0,0,1-3.874-3.754,3.8,3.8,0,0,1,7.6-.113A3.729,3.729,0,0,1,322.152,828.3Z" fill="#8e8e8e"/>
      <path id="パス_185" data-name="パス 185" d="M310.3,826.13a3.607,3.607,0,0,1-3.788-3.745,3.838,3.838,0,0,1,3.6-3.826,3.952,3.952,0,0,1,3.957,3.907A3.823,3.823,0,0,1,310.3,826.13Z" fill="#8e8e8e"/>
      <path id="パス_186" data-name="パス 186" d="M333.881,826.13a3.73,3.73,0,0,1-3.727-3.853,3.9,3.9,0,0,1,3.753-3.718,3.956,3.956,0,0,1,3.844,3.833A3.781,3.781,0,0,1,333.881,826.13Z" fill="#8e8e8e"/>
    </g>
  </g>
</svg>
