<svg xmlns="http://www.w3.org/2000/svg" width="216.789" height="104" viewBox="0 0 216.789 104">
  <g id="icon_day01_02" transform="translate(-156.452 -598.077)">
    <line id="線_2" data-name="線 2" y2="53.207" transform="translate(265.644 622.807)" fill="none" stroke="#bbb" stroke-linecap="round" stroke-miterlimit="10" stroke-width="4"/>
    <g id="グループ_26" data-name="グループ 26">
      <path id="パス_187" data-name="パス 187" d="M260.452,702.077h-104v-104h104ZM208.663,631.5c-9.713-.256-18.377,7.857-18.649,17.462-.3,10.608,7.51,19.228,17.683,19.514,10.293.29,18.955-7.669,19.195-17.636C227.151,640.09,219.317,631.78,208.663,631.5Zm2.332,50.71c0-1.273.056-2.548-.014-3.816a2.617,2.617,0,0,0-2.579-2.727,2.575,2.575,0,0,0-2.562,2.743c-.074,2.542-.063,5.089,0,7.632a2.634,2.634,0,0,0,2.493,2.824c1.466.057,2.565-1.07,2.656-2.841C211.05,684.755,211,683.481,210.995,682.209ZM205.82,618.2h.01c0,1.331-.085,2.67.023,3.992a2.427,2.427,0,0,0,2.547,2.523,2.344,2.344,0,0,0,2.541-2.5c.1-2.659.1-5.326.018-7.986a2.51,2.51,0,0,0-2.629-2.643,2.612,2.612,0,0,0-2.5,2.8C205.775,615.652,205.82,616.926,205.82,618.2Zm-23.033,3.612c-.768.623-1.877,1.083-2.074,1.795a3.672,3.672,0,0,0,.512,2.923,72.84,72.84,0,0,0,5.34,5.44c1.33,1.289,2.733,1.335,3.843.219,1.063-1.069.992-2.56-.264-3.852-1.73-1.781-3.479-3.544-5.276-5.257A12.6,12.6,0,0,0,182.787,621.809ZM191.51,669.8c-.683-.765-1.178-1.8-1.912-2.014a3.4,3.4,0,0,0-2.755.508c-1.974,1.686-3.755,3.6-5.566,5.474a2.512,2.512,0,0,0-.213,3.719c1.077,1.123,2.536,1.1,3.856-.165,1.792-1.718,3.553-3.471,5.258-5.275A12.953,12.953,0,0,0,191.51,669.8Zm45.236-45.389c-.617-.691-1.113-1.731-1.843-1.936a3.451,3.451,0,0,0-2.772.521c-1.981,1.693-3.764,3.621-5.589,5.493a2.482,2.482,0,0,0-.2,3.6,2.421,2.421,0,0,0,3.717.072c1.941-1.839,3.82-3.746,5.66-5.687A9.053,9.053,0,0,0,236.746,624.413Zm-8.685,42.693c-.782.657-1.846,1.116-2.006,1.79a3.831,3.831,0,0,0,.5,2.953,70.54,70.54,0,0,0,5.227,5.339c1.378,1.347,2.725,1.463,3.859.408s1.057-2.676-.247-4.015c-1.654-1.7-3.318-3.392-5.045-5.016A15.305,15.305,0,0,0,228.061,667.106ZM176.4,647.684c-1.33,0-2.661-.021-3.991.006a2.531,2.531,0,0,0-.145,5.059c2.717.1,5.444.095,8.162.007a2.455,2.455,0,0,0,2.533-2.556,2.546,2.546,0,0,0-2.748-2.511C178.94,647.648,177.669,647.681,176.4,647.684Zm64.068,5.108q1.731,0,3.463,0c.122,0,.244,0,.365-.005,1.71-.119,2.7-1.071,2.692-2.583-.009-1.537-.98-2.481-2.724-2.512-2.491-.043-4.983-.035-7.474-.005-1.769.021-2.95,1.083-2.929,2.543.022,1.482,1.173,2.5,2.961,2.554C238.034,652.822,239.25,652.792,240.466,652.792Z" fill="#fefefe" opacity="0"/>
      <path id="パス_188" data-name="パス 188" d="M208.663,631.5c10.654.281,18.488,8.591,18.229,19.34-.24,9.967-8.9,17.926-19.195,17.636-10.173-.286-17.985-8.906-17.683-19.514C190.286,639.356,198.95,631.243,208.663,631.5Zm-.208,5.161A13.361,13.361,0,1,0,221.8,649.951,13.276,13.276,0,0,0,208.455,636.66Z" fill="#ef8a3e"/>
      <path id="パス_189" data-name="パス 189" d="M211,682.209c0,1.272.054,2.546-.012,3.815-.091,1.771-1.19,2.9-2.656,2.841a2.634,2.634,0,0,1-2.493-2.824c-.058-2.543-.069-5.09,0-7.632a2.575,2.575,0,0,1,2.562-2.743,2.617,2.617,0,0,1,2.579,2.727C211.051,679.661,210.995,680.936,211,682.209Z" fill="#f08c41"/>
      <path id="パス_190" data-name="パス 190" d="M205.82,618.2c0-1.271-.045-2.545.012-3.813a2.612,2.612,0,0,1,2.5-2.8,2.51,2.51,0,0,1,2.629,2.643c.085,2.66.077,5.327-.018,7.986a2.344,2.344,0,0,1-2.541,2.5,2.427,2.427,0,0,1-2.547-2.523c-.108-1.322-.023-2.661-.023-3.992Z" fill="#f08c41"/>
      <path id="パス_191" data-name="パス 191" d="M182.787,621.809a12.6,12.6,0,0,1,2.081,1.268c1.8,1.713,3.546,3.476,5.276,5.257,1.256,1.292,1.327,2.783.264,3.852-1.11,1.116-2.513,1.07-3.843-.219a72.84,72.84,0,0,1-5.34-5.44,3.672,3.672,0,0,1-.512-2.923C180.91,622.892,182.019,622.432,182.787,621.809Z" fill="#ef8b40"/>
      <path id="パス_192" data-name="パス 192" d="M191.51,669.8a12.953,12.953,0,0,1-1.332,2.247c-1.7,1.8-3.466,3.557-5.258,5.275-1.32,1.268-2.779,1.288-3.856.165a2.512,2.512,0,0,1,.213-3.719c1.811-1.871,3.592-3.788,5.566-5.474a3.4,3.4,0,0,1,2.755-.508C190.332,668,190.827,669.037,191.51,669.8Z" fill="#ef8b40"/>
      <path id="パス_193" data-name="パス 193" d="M236.746,624.413a9.053,9.053,0,0,1-1.027,2.067c-1.84,1.941-3.719,3.848-5.66,5.687a2.421,2.421,0,0,1-3.717-.072,2.482,2.482,0,0,1,.2-3.6c1.825-1.872,3.608-3.8,5.589-5.493a3.451,3.451,0,0,1,2.772-.521C235.633,622.682,236.129,623.722,236.746,624.413Z" fill="#ef8b3f"/>
      <path id="パス_194" data-name="パス 194" d="M228.061,667.106a15.305,15.305,0,0,1,2.287,1.459c1.727,1.624,3.391,3.317,5.045,5.016,1.3,1.339,1.378,2.962.247,4.015s-2.481.939-3.859-.408a70.54,70.54,0,0,1-5.227-5.339,3.831,3.831,0,0,1-.5-2.953C226.215,668.222,227.279,667.763,228.061,667.106Z" fill="#ef8b3f"/>
      <path id="パス_195" data-name="パス 195" d="M176.4,647.683c1.271,0,2.542-.035,3.811.006a2.546,2.546,0,0,1,2.748,2.511,2.455,2.455,0,0,1-2.533,2.556c-2.718.088-5.445.1-8.162-.007a2.531,2.531,0,0,1,.145-5.059C173.737,647.663,175.068,647.684,176.4,647.683Z" fill="#ef8b3e"/>
      <path id="パス_196" data-name="パス 196" d="M240.466,652.792c-1.216,0-2.432.03-3.646-.008-1.788-.055-2.939-1.072-2.961-2.554-.021-1.46,1.16-2.522,2.929-2.543,2.491-.03,4.983-.038,7.474.005,1.744.031,2.715.975,2.724,2.512.01,1.512-.982,2.464-2.692,2.583-.121.008-.243.005-.365.005Q242.2,652.794,240.466,652.792Z" fill="#ef8a3e"/>
      <path id="パス_197" data-name="パス 197" d="M208.455,636.66A13.361,13.361,0,1,1,195.1,649.947,13.277,13.277,0,0,1,208.455,636.66Z" fill="#fefdfd" opacity="0"/>
    </g>
    <g id="グループ_27" data-name="グループ 27">
      <path id="パス_198" data-name="パス 198" d="M373.241,702.077h-104v-104h104ZM340.1,640.089c.885,0,1.555-.037,2.219.006,5.383.354,8.4,2.71,9.355,7.286,1.21,5.8-.564,9.979-5.567,12.276a26.579,26.579,0,0,1-6.116,1.538c-1.516.289-2.485.95-2.534,2.568a2.413,2.413,0,0,0,2.5,2.552c9.535.707,17.892-7.557,17.134-17.065-.438-5.508-2.518-10.125-7.784-12.729a19.467,19.467,0,0,1-6.2-5.687c-2.97-4.78-7.538-6.377-12.883-6.52a3.787,3.787,0,0,1-2.524-.891c-6.273-7.132-16.742-7.293-24.066-2.222-5.6,3.881-7.678,9.658-8.468,16.074a2.336,2.336,0,0,1-1.612,2.279,12.717,12.717,0,0,0-7.712,13.362c1.135,8.442,7.174,13.564,15.814,13.412,1.979-.034,3.11-.953,3.121-2.534s-1.124-2.43-3.093-2.594a19.419,19.419,0,0,1-4.812-.8c-4.169-1.472-6.418-5.589-5.816-10.225.513-3.94,2.95-6.04,7.718-6.468,1.227-.11,1.259-.646,1.245-1.65a25.543,25.543,0,0,1,2.537-12.182c3.837-7.537,16.741-10.594,22.518-1.3a2.1,2.1,0,0,0,2.534,1.073,15.064,15.064,0,0,1,3.814-.119c4.982.421,7.841,2.947,8.513,7.468C340.079,637.932,340.043,638.9,340.1,640.089Zm-10.418,28.046c0,2.85-.029,5.7.011,8.549.026,1.845,1.005,2.916,2.531,2.916s2.552-1.082,2.565-2.908q.056-8.457,0-16.915c-.012-1.956-1.037-3.034-2.651-2.986-1.552.046-2.426,1.058-2.45,2.978C329.654,662.557,329.68,665.346,329.681,668.135Zm-21.531-.02c0,2.85-.026,5.7.009,8.548.022,1.84.992,2.928,2.505,2.94s2.573-1.063,2.588-2.892q.067-8.548,0-17.1c-.017-1.836-1.077-2.861-2.632-2.825s-2.439,1.051-2.46,2.959C308.127,662.537,308.15,665.326,308.15,668.115Zm10.742,3.115c0,2.849-.019,5.7.006,8.545.017,1.98.96,3.043,2.6,3.022,1.579-.022,2.482-1.032,2.489-2.922q.031-8.454,0-16.908c-.006-1.9-.9-2.9-2.48-2.928-1.637-.026-2.586,1.037-2.6,3.01C318.872,665.776,318.892,668.5,318.892,671.23Z" fill="#fefefe" opacity="0"/>
      <path id="パス_199" data-name="パス 199" d="M340.1,640.089c-.056-1.186-.02-2.157-.16-3.1-.672-4.521-3.531-7.047-8.513-7.468a15.064,15.064,0,0,0-3.814.119,2.1,2.1,0,0,1-2.534-1.073c-5.777-9.29-18.681-6.233-22.518,1.3a25.543,25.543,0,0,0-2.537,12.182c.014,1-.018,1.54-1.245,1.65-4.768.428-7.205,2.528-7.718,6.468-.6,4.636,1.647,8.753,5.816,10.225a19.419,19.419,0,0,0,4.812.8c1.969.164,3.1,1.017,3.093,2.594s-1.142,2.5-3.121,2.534c-8.64.152-14.679-4.97-15.814-13.412a12.717,12.717,0,0,1,7.712-13.362,2.336,2.336,0,0,0,1.612-2.279c.79-6.416,2.864-12.193,8.468-16.074,7.324-5.071,17.793-4.91,24.066,2.222a3.787,3.787,0,0,0,2.524.891c5.345.143,9.913,1.74,12.883,6.52a19.467,19.467,0,0,0,6.2,5.687c5.266,2.6,7.346,7.221,7.784,12.729.758,9.508-7.6,17.772-17.134,17.065a2.413,2.413,0,0,1-2.5-2.552c.049-1.618,1.018-2.279,2.534-2.568a26.579,26.579,0,0,0,6.116-1.538c5-2.3,6.777-6.476,5.567-12.276-.955-4.576-3.972-6.932-9.355-7.286C341.654,640.052,340.984,640.089,340.1,640.089Z" fill="#77769c"/>
      <path id="パス_200" data-name="パス 200" d="M329.681,668.135c0-2.789-.027-5.578.008-8.366.024-1.92.9-2.932,2.45-2.978,1.614-.048,2.639,1.03,2.651,2.986q.049,8.457,0,16.915c-.013,1.826-1.045,2.907-2.565,2.908s-2.505-1.071-2.531-2.916C329.652,673.835,329.681,670.985,329.681,668.135Z" fill="#36479a"/>
      <path id="パス_201" data-name="パス 201" d="M308.15,668.115c0-2.789-.023-5.578.008-8.366.021-1.908.9-2.924,2.46-2.959s2.615.989,2.632,2.825q.075,8.547,0,17.1c-.015,1.829-1.073,2.9-2.588,2.892s-2.483-1.1-2.505-2.94C308.124,673.814,308.15,670.965,308.15,668.115Z" fill="#36479a"/>
      <path id="パス_202" data-name="パス 202" d="M318.892,671.23c0-2.727-.02-5.454.006-8.181.019-1.973.968-3.036,2.6-3.01,1.584.025,2.474,1.028,2.48,2.928q.031,8.454,0,16.908c-.007,1.89-.91,2.9-2.489,2.922-1.636.021-2.579-1.042-2.6-3.022C318.873,676.927,318.892,674.079,318.892,671.23Z" fill="#349"/>
    </g>
  </g>
</svg>
