<svg xmlns="http://www.w3.org/2000/svg" width="216.484" height="104.453" viewBox="0 0 216.484 104.453">
  <g id="icon_day04_05" transform="translate(-2240.657 -597.812)">
    <path id="パス_11" data-name="パス 11" d="M2335.1,685.657h29.929l-7.981-10.974" fill="none" stroke="#bbb" stroke-linecap="round" stroke-linejoin="round" stroke-width="4"/>
    <g id="グループ_52" data-name="グループ 52">
      <path id="パス_353" data-name="パス 353" d="M2240.657,597.812h104v104h-104Zm70.93,42.384c.908.073,1.805.163,2.705.214,4.554.257,7.313,2.253,8.481,6.149,1.546,5.155.557,9.482-3.154,11.952a30.209,30.209,0,0,1-6.268,2.739c-1.572.586-2.482,1.681-2.191,3.059a2.716,2.716,0,0,0,3.393,1.945,18.313,18.313,0,0,0,9.373-4.566c4.588-4.255,5.414-9.553,4.073-15.387a13.357,13.357,0,0,0-10.46-10.7,2.211,2.211,0,0,1-1.447-1.026c-2.333-7.325-7.747-9.971-14.94-10.1a3.289,3.289,0,0,1-2.147-.963c-8.46-9.35-22.914-6.113-28.643,2.605a26.825,26.825,0,0,0-3.842,11.279c-.106.758-.6,1.881-1.184,2.091-7.863,2.83-10.594,12.948-5.773,20.363a14.244,14.244,0,0,0,11.945,6.6,2.332,2.332,0,0,0,2.677-2.161c.216-1.6-.733-2.482-2.194-2.87a10.456,10.456,0,0,0-1.086-.113c-3.913-.613-6.772-2.553-8.066-6.442-1.833-5.511.912-10.056,6.6-10.939.642-.1,1.288-.178,1.952-.268a29.686,29.686,0,0,1,1.785-11.9c2.088-5.272,6.191-8.05,11.651-8.668,5.026-.569,8.964,1.494,11.781,5.756a2.956,2.956,0,0,0,2.031.991c1.8.146,3.639-.089,5.432.1a7.716,7.716,0,0,1,7.076,6.545C2311.383,637.654,2311.437,638.867,2311.587,640.2Zm-34.847,23.378a3.739,3.739,0,0,0,3.729,3.872,3.955,3.955,0,0,0,3.828-3.861,3.862,3.862,0,0,0-3.728-3.737A3.645,3.645,0,0,0,2276.74,663.574Zm23.7.1a3.72,3.72,0,0,0,3.817,3.773,3.942,3.942,0,0,0,3.72-3.771,3.825,3.825,0,0,0-3.81-3.827A3.649,3.649,0,0,0,2300.443,663.673Zm-8.062-1.651a3.757,3.757,0,0,0-3.877,3.741,3.928,3.928,0,0,0,3.841,3.849,3.886,3.886,0,0,0,3.763-3.719A3.731,3.731,0,0,0,2292.381,662.022Zm0,19.362a3.729,3.729,0,0,0,3.731-3.867,3.8,3.8,0,0,0-7.6.114A3.788,3.788,0,0,0,2292.377,681.384Zm-11.85-2.169a3.823,3.823,0,0,0,3.77-3.664,3.951,3.951,0,0,0-3.957-3.907,3.839,3.839,0,0,0-3.6,3.826A3.608,3.608,0,0,0,2280.527,679.215Zm23.579,0a3.781,3.781,0,0,0,3.87-3.738,3.957,3.957,0,0,0-3.844-3.833,3.9,3.9,0,0,0-3.753,3.718A3.731,3.731,0,0,0,2304.106,679.215Z" fill="#fefefe" opacity="0"/>
      <path id="パス_354" data-name="パス 354" d="M2311.587,640.2c-.15-1.329-.2-2.542-.436-3.72a7.716,7.716,0,0,0-7.076-6.545c-1.793-.189-3.63.046-5.432-.1a2.956,2.956,0,0,1-2.031-.991c-2.817-4.262-6.755-6.325-11.781-5.756-5.46.618-9.563,3.4-11.651,8.668a29.686,29.686,0,0,0-1.785,11.9c-.664.09-1.31.168-1.952.268-5.692.883-8.437,5.428-6.6,10.939,1.294,3.889,4.153,5.829,8.066,6.442a10.456,10.456,0,0,1,1.086.113c1.461.388,2.41,1.267,2.194,2.87a2.332,2.332,0,0,1-2.677,2.161,14.244,14.244,0,0,1-11.945-6.6c-4.821-7.415-2.09-17.533,5.773-20.363.583-.21,1.078-1.333,1.184-2.091a26.825,26.825,0,0,1,3.842-11.279c5.729-8.718,20.183-11.955,28.643-2.605a3.289,3.289,0,0,0,2.147.963c7.193.132,12.607,2.778,14.94,10.1a2.211,2.211,0,0,0,1.447,1.026A13.357,13.357,0,0,1,2328,646.3c1.341,5.834.515,11.132-4.073,15.387a18.313,18.313,0,0,1-9.373,4.566,2.716,2.716,0,0,1-3.393-1.945c-.291-1.378.619-2.473,2.191-3.059a30.209,30.209,0,0,0,6.268-2.739c3.711-2.47,4.7-6.8,3.154-11.952-1.168-3.9-3.927-5.892-8.481-6.149C2313.392,640.359,2312.5,640.269,2311.587,640.2Z" fill="#8d8d8d"/>
      <path id="パス_355" data-name="パス 355" d="M2276.74,663.574a3.645,3.645,0,0,1,3.829-3.726,3.862,3.862,0,0,1,3.728,3.737,3.955,3.955,0,0,1-3.828,3.861A3.739,3.739,0,0,1,2276.74,663.574Z" fill="#8e8e8e"/>
      <path id="パス_356" data-name="パス 356" d="M2300.443,663.673a3.649,3.649,0,0,1,3.727-3.825,3.825,3.825,0,0,1,3.81,3.827,3.942,3.942,0,0,1-3.72,3.771A3.72,3.72,0,0,1,2300.443,663.673Z" fill="#8e8e8e"/>
      <path id="パス_357" data-name="パス 357" d="M2292.381,662.022a3.731,3.731,0,0,1,3.727,3.871,3.886,3.886,0,0,1-3.763,3.719,3.928,3.928,0,0,1-3.841-3.849A3.757,3.757,0,0,1,2292.381,662.022Z" fill="#8e8e8e"/>
      <path id="パス_358" data-name="パス 358" d="M2292.377,681.384a3.788,3.788,0,0,1-3.873-3.753,3.8,3.8,0,0,1,7.6-.114A3.729,3.729,0,0,1,2292.377,681.384Z" fill="#8e8e8e"/>
      <path id="パス_359" data-name="パス 359" d="M2280.527,679.215a3.608,3.608,0,0,1-3.788-3.745,3.839,3.839,0,0,1,3.6-3.826,3.951,3.951,0,0,1,3.957,3.907A3.823,3.823,0,0,1,2280.527,679.215Z" fill="#8e8e8e"/>
      <path id="パス_360" data-name="パス 360" d="M2304.106,679.215a3.731,3.731,0,0,1-3.727-3.853,3.9,3.9,0,0,1,3.753-3.718,3.957,3.957,0,0,1,3.844,3.833A3.781,3.781,0,0,1,2304.106,679.215Z" fill="#8e8e8e"/>
    </g>
    <g id="グループ_55" data-name="グループ 55">
      <path id="パス_377" data-name="パス 377" d="M2457.141,702.265h-104v-104h104Zm-53.3-28.085c6.631,0,13.265.09,19.893-.053a20.605,20.605,0,0,0,6.219-1.144c6.992-2.433,11-8.128,10.661-15.075-.35-7.187-3.619-13-11.394-14.767-.492-.111-.967-.752-1.244-1.259a35.027,35.027,0,0,0-2.116-4.2c-2.994-4.043-7.28-5.4-12.13-5.538a4.061,4.061,0,0,1-2.676-1c-8.69-9.693-24.734-6.009-29.707,4.567a46.3,46.3,0,0,0-2.654,8.84c-.342,1.414-.615,2.387-2.188,3.085-4.651,2.063-7,5.975-7.268,10.948a14.526,14.526,0,0,0,14.71,15.591C2390.583,674.245,2397.215,674.185,2403.846,674.18Z" fill="#fefefe" opacity="0"/>
      <path id="パス_378" data-name="パス 378" d="M2403.846,674.182c-6.631,0-13.263.063-19.894-.012a14.526,14.526,0,0,1-14.71-15.591c.272-4.973,2.617-8.885,7.268-10.948,1.573-.7,1.846-1.671,2.188-3.085a46.3,46.3,0,0,1,2.654-8.84c4.973-10.576,21.017-14.26,29.707-4.567a4.061,4.061,0,0,0,2.676,1c4.85.141,9.136,1.495,12.13,5.538a35.027,35.027,0,0,1,2.116,4.2c.277.507.752,1.148,1.244,1.259,7.775,1.77,11.044,7.58,11.394,14.767.338,6.947-3.669,12.642-10.661,15.075a20.605,20.605,0,0,1-6.219,1.144C2417.111,674.27,2410.477,674.18,2403.846,674.182Zm-20.826-22.767c-.388.036-.982.075-1.571.149-3.677.456-6,2.383-6.808,5.621a9.409,9.409,0,0,0,9.207,11.844q20.159.159,40.32,0c7.43-.061,12.229-5.984,11.05-13.274a8.469,8.469,0,0,0-8.046-7.587c-1.188-.127-2.374-.283-3.674-.439,0-.66.035-1.2-.006-1.742-.323-4.328-2.375-7.259-6.1-8.1a23.319,23.319,0,0,0-6.117-.342c-1.277.055-2.123-.039-2.857-1.252a11.1,11.1,0,0,0-6.969-5.215,13.871,13.871,0,0,0-16.876,10.358C2383.767,644.633,2383.536,647.976,2383.02,651.415Z" fill="#a1a1a1"/>
      <path id="パス_379" data-name="パス 379" d="M2383.02,651.415c.516-3.439.747-6.782,1.551-9.982a13.871,13.871,0,0,1,16.876-10.358,11.1,11.1,0,0,1,6.969,5.215c.734,1.213,1.58,1.307,2.857,1.252a23.319,23.319,0,0,1,6.117.342c3.727.845,5.779,3.776,6.1,8.1.041.538.006,1.082.006,1.742,1.3.156,2.486.312,3.674.439a8.469,8.469,0,0,1,8.046,7.587c1.179,7.29-3.62,13.213-11.05,13.274q-20.16.166-40.32,0a9.409,9.409,0,0,1-9.207-11.844c.8-3.238,3.131-5.165,6.808-5.621C2382.038,651.49,2382.632,651.451,2383.02,651.415Z" fill="#fefefe" opacity="0"/>
    </g>
  </g>
</svg>
