<svg xmlns="http://www.w3.org/2000/svg" width="216.288" height="104.519" viewBox="0 0 216.288 104.519">
  <g id="icon_day03_01" transform="translate(-1375.272 -455.23)">
    <line id="線_9" data-name="線 9" y2="53.207" transform="translate(1484.46 480.147)" fill="none" stroke="#bbb" stroke-linecap="round" stroke-miterlimit="10" stroke-width="4"/>
    <g id="グループ_22" data-name="グループ 22">
      <path id="パス_154" data-name="パス 154" d="M1591.56,559.23h-104v-104h104Zm-51.789-70.578c-9.712-.256-18.377,7.857-18.649,17.462-.3,10.608,7.51,19.228,17.683,19.514,10.293.29,18.955-7.669,19.195-17.636C1558.259,497.243,1550.425,488.932,1539.771,488.652Zm2.332,50.71c0-1.273.056-2.548-.014-3.816a2.617,2.617,0,0,0-2.579-2.727,2.575,2.575,0,0,0-2.562,2.743c-.074,2.542-.063,5.089-.005,7.632a2.634,2.634,0,0,0,2.493,2.824c1.466.057,2.565-1.07,2.656-2.841C1542.158,541.908,1542.1,540.634,1542.1,539.362Zm-5.174-64.012h.009c0,1.331-.085,2.67.023,3.992a2.427,2.427,0,0,0,2.547,2.523,2.343,2.343,0,0,0,2.541-2.5c.1-2.659.1-5.326.018-7.986a2.51,2.51,0,0,0-2.629-2.643,2.612,2.612,0,0,0-2.5,2.8C1536.883,472.8,1536.929,474.079,1536.929,475.35Zm-23.034,3.612c-.768.623-1.877,1.083-2.074,1.795a3.672,3.672,0,0,0,.512,2.923,72.872,72.872,0,0,0,5.34,5.44c1.33,1.289,2.733,1.335,3.843.219,1.063-1.069.992-2.56-.264-3.852-1.73-1.781-3.479-3.544-5.275-5.257A12.669,12.669,0,0,0,1513.9,478.962Zm8.723,47.993c-.683-.765-1.178-1.8-1.912-2.014a3.4,3.4,0,0,0-2.755.508c-1.974,1.686-3.755,3.6-5.566,5.474a2.512,2.512,0,0,0-.213,3.719c1.077,1.123,2.536,1.1,3.856-.165,1.792-1.718,3.553-3.471,5.258-5.275A12.956,12.956,0,0,0,1522.618,526.955Zm45.236-45.389c-.617-.691-1.113-1.731-1.843-1.937a3.455,3.455,0,0,0-2.772.522c-1.981,1.693-3.764,3.621-5.589,5.493a2.482,2.482,0,0,0-.2,3.6,2.421,2.421,0,0,0,3.717.072c1.941-1.839,3.82-3.746,5.66-5.687A9.073,9.073,0,0,0,1567.854,481.566Zm-8.685,42.693c-.782.656-1.846,1.116-2.006,1.79a3.832,3.832,0,0,0,.5,2.953,70.549,70.549,0,0,0,5.227,5.339c1.378,1.347,2.725,1.463,3.859.408s1.057-2.676-.247-4.015c-1.654-1.7-3.318-3.392-5.045-5.016A15.308,15.308,0,0,0,1559.169,524.259Zm-51.662-19.422c-1.331,0-2.662-.021-3.992.006a2.531,2.531,0,0,0-.145,5.059c2.717.1,5.444.1,8.162.007a2.455,2.455,0,0,0,2.533-2.556,2.546,2.546,0,0,0-2.748-2.511C1510.048,504.8,1508.777,504.834,1507.507,504.837Zm64.067,5.108q1.731,0,3.463,0c.122,0,.244,0,.365-.005,1.71-.119,2.7-1.071,2.692-2.583-.009-1.537-.98-2.481-2.724-2.512-2.491-.043-4.983-.035-7.474-.005-1.769.021-2.95,1.083-2.929,2.543.022,1.482,1.173,2.5,2.961,2.554C1569.142,509.975,1570.359,509.945,1571.574,509.945Z" fill="#fefefe" opacity="0"/>
      <path id="パス_155" data-name="パス 155" d="M1539.771,488.652c10.654.28,18.488,8.591,18.229,19.34-.24,9.967-8.9,17.926-19.195,17.636-10.173-.286-17.984-8.906-17.683-19.514C1521.394,496.509,1530.059,488.4,1539.771,488.652Zm-.208,5.161A13.361,13.361,0,1,0,1552.91,507.1,13.276,13.276,0,0,0,1539.563,493.813Z" fill="#ef8a3e"/>
      <path id="パス_156" data-name="パス 156" d="M1542.1,539.362c0,1.272.054,2.546-.012,3.815-.091,1.771-1.19,2.9-2.656,2.841a2.634,2.634,0,0,1-2.493-2.824c-.058-2.543-.069-5.09.005-7.632a2.575,2.575,0,0,1,2.562-2.743,2.617,2.617,0,0,1,2.579,2.727C1542.159,536.814,1542.1,538.089,1542.1,539.362Z" fill="#f08c41"/>
      <path id="パス_157" data-name="パス 157" d="M1536.929,475.35c0-1.271-.046-2.545.011-3.813a2.612,2.612,0,0,1,2.5-2.8,2.51,2.51,0,0,1,2.629,2.643c.085,2.66.077,5.327-.018,7.986a2.343,2.343,0,0,1-2.541,2.5,2.427,2.427,0,0,1-2.547-2.523c-.108-1.322-.023-2.661-.023-3.992Z" fill="#f08c41"/>
      <path id="パス_158" data-name="パス 158" d="M1513.9,478.962a12.669,12.669,0,0,1,2.082,1.268c1.8,1.713,3.545,3.476,5.275,5.257,1.256,1.292,1.327,2.783.264,3.852-1.11,1.116-2.513,1.07-3.843-.219a72.872,72.872,0,0,1-5.34-5.44,3.672,3.672,0,0,1-.512-2.923C1512.018,480.045,1513.127,479.585,1513.9,478.962Z" fill="#ef8b40"/>
      <path id="パス_159" data-name="パス 159" d="M1522.618,526.955a12.956,12.956,0,0,1-1.332,2.247c-1.7,1.8-3.466,3.557-5.258,5.275-1.32,1.268-2.779,1.288-3.856.165a2.512,2.512,0,0,1,.213-3.719c1.811-1.871,3.592-3.788,5.566-5.474a3.4,3.4,0,0,1,2.755-.508C1521.44,525.154,1521.935,526.19,1522.618,526.955Z" fill="#ef8b40"/>
      <path id="パス_160" data-name="パス 160" d="M1567.854,481.566a9.073,9.073,0,0,1-1.027,2.067c-1.84,1.941-3.719,3.848-5.66,5.687a2.421,2.421,0,0,1-3.717-.072,2.482,2.482,0,0,1,.2-3.6c1.825-1.872,3.608-3.8,5.589-5.493a3.455,3.455,0,0,1,2.772-.522C1566.741,479.835,1567.237,480.875,1567.854,481.566Z" fill="#ef8b3f"/>
      <path id="パス_161" data-name="パス 161" d="M1559.169,524.259a15.308,15.308,0,0,1,2.287,1.459c1.727,1.624,3.391,3.317,5.045,5.016,1.3,1.339,1.378,2.962.247,4.015s-2.481.939-3.859-.408a70.549,70.549,0,0,1-5.227-5.339,3.832,3.832,0,0,1-.5-2.953C1557.323,525.375,1558.387,524.915,1559.169,524.259Z" fill="#ef8b3f"/>
      <path id="パス_162" data-name="パス 162" d="M1507.507,504.836c1.27,0,2.541-.035,3.81.006a2.546,2.546,0,0,1,2.748,2.511,2.455,2.455,0,0,1-2.533,2.556c-2.718.088-5.445.1-8.162-.007a2.531,2.531,0,0,1,.145-5.059C1504.845,504.816,1506.176,504.837,1507.507,504.836Z" fill="#ef8b3e"/>
      <path id="パス_163" data-name="パス 163" d="M1571.574,509.945c-1.215,0-2.432.03-3.646-.008-1.788-.055-2.939-1.072-2.961-2.554-.021-1.46,1.16-2.522,2.929-2.543,2.491-.03,4.983-.038,7.474.005,1.744.031,2.715.975,2.724,2.512.01,1.512-.982,2.464-2.692,2.583-.121.008-.243.005-.365.005Q1573.306,509.947,1571.574,509.945Z" fill="#ef8a3e"/>
      <path id="パス_164" data-name="パス 164" d="M1539.563,493.813a13.361,13.361,0,1,1-13.351,13.287A13.277,13.277,0,0,1,1539.563,493.813Z" fill="#fefdfd" opacity="0"/>
    </g>
    <g id="グループ_30" data-name="グループ 30">
      <path id="パス_216" data-name="パス 216" d="M1479.272,559.749h-104v-104h104Zm-33.142-61.987c.886,0,1.556-.038,2.22.006,5.383.354,8.4,2.71,9.354,7.286,1.211,5.8-.563,9.979-5.567,12.275a26.584,26.584,0,0,1-6.115,1.538c-1.517.29-2.486.951-2.535,2.569a2.413,2.413,0,0,0,2.5,2.551c9.534.708,17.891-7.557,17.134-17.065-.439-5.508-2.519-10.124-7.784-12.728a19.5,19.5,0,0,1-6.2-5.688c-2.969-4.78-7.537-6.376-12.883-6.52a3.789,3.789,0,0,1-2.524-.891c-6.273-7.132-16.742-7.292-24.065-2.221-5.605,3.881-7.678,9.657-8.468,16.074a2.337,2.337,0,0,1-1.612,2.279,12.715,12.715,0,0,0-7.713,13.361c1.135,8.443,7.174,13.564,15.814,13.413,1.979-.035,3.111-.953,3.121-2.534s-1.123-2.43-3.093-2.595a19.382,19.382,0,0,1-4.812-.8c-4.169-1.471-6.418-5.588-5.815-10.224.512-3.94,2.949-6.04,7.718-6.469,1.226-.11,1.258-.646,1.244-1.65a25.549,25.549,0,0,1,2.537-12.181c3.838-7.537,16.742-10.594,22.518-1.3a2.1,2.1,0,0,0,2.534,1.074,15.068,15.068,0,0,1,3.814-.119c4.982.421,7.842,2.947,8.513,7.468C1446.111,495.605,1446.074,496.575,1446.13,497.762Zm-10.417,28.046c0,2.849-.03,5.7.01,8.548.026,1.846,1.006,2.917,2.532,2.916s2.552-1.081,2.564-2.908q.057-8.457,0-16.915c-.012-1.955-1.036-3.034-2.651-2.986-1.552.046-2.426,1.059-2.45,2.978C1435.685,520.229,1435.711,523.019,1435.713,525.808Zm-21.532-.02c0,2.849-.025,5.7.009,8.548.022,1.84.992,2.928,2.506,2.939s2.573-1.062,2.587-2.892q.069-8.547,0-17.1c-.016-1.836-1.076-2.86-2.632-2.825s-2.439,1.052-2.46,2.959C1414.158,520.21,1414.181,523,1414.181,525.788Zm10.742,3.115c0,2.848-.018,5.7.007,8.545.017,1.98.959,3.043,2.6,3.021,1.579-.021,2.482-1.032,2.489-2.921q.03-8.454,0-16.909c-.007-1.9-.9-2.9-2.481-2.927-1.637-.027-2.586,1.036-2.6,3.009C1424.9,523.448,1424.923,526.176,1424.923,528.9Z" fill="#fefefe" opacity="0"/>
      <path id="パス_217" data-name="パス 217" d="M1446.13,497.762c-.056-1.187-.019-2.157-.16-3.1-.671-4.521-3.531-7.047-8.513-7.468a15.068,15.068,0,0,0-3.814.119,2.1,2.1,0,0,1-2.534-1.074c-5.776-9.289-18.68-6.232-22.518,1.3a25.549,25.549,0,0,0-2.537,12.181c.014,1-.018,1.54-1.244,1.65-4.769.429-7.206,2.529-7.718,6.469-.6,4.636,1.646,8.753,5.815,10.224a19.382,19.382,0,0,0,4.812.8c1.97.165,3.1,1.017,3.093,2.595s-1.142,2.5-3.121,2.534c-8.64.151-14.679-4.97-15.814-13.413a12.715,12.715,0,0,1,7.713-13.361,2.337,2.337,0,0,0,1.612-2.279c.79-6.417,2.863-12.193,8.468-16.074,7.323-5.071,17.792-4.911,24.065,2.221a3.789,3.789,0,0,0,2.524.891c5.346.144,9.914,1.74,12.883,6.52a19.5,19.5,0,0,0,6.2,5.688c5.265,2.6,7.345,7.22,7.784,12.728.757,9.508-7.6,17.773-17.134,17.065a2.413,2.413,0,0,1-2.5-2.551c.049-1.618,1.018-2.279,2.535-2.569a26.584,26.584,0,0,0,6.115-1.538c5-2.3,6.778-6.476,5.567-12.275-.955-4.576-3.971-6.932-9.354-7.286C1447.686,497.724,1447.016,497.762,1446.13,497.762Z" fill="#77769c"/>
      <path id="パス_218" data-name="パス 218" d="M1435.712,525.808c0-2.789-.027-5.579.008-8.367.024-1.919.9-2.932,2.45-2.978,1.615-.048,2.639,1.031,2.651,2.986q.051,8.457,0,16.915c-.012,1.827-1.045,2.907-2.564,2.908s-2.506-1.07-2.532-2.916C1435.683,531.507,1435.713,528.657,1435.712,525.808Z" fill="#36479a"/>
      <path id="パス_219" data-name="パス 219" d="M1414.181,525.788c0-2.789-.023-5.578.008-8.367.021-1.907.9-2.924,2.46-2.959s2.616.989,2.632,2.825q.075,8.547,0,17.1c-.014,1.83-1.073,2.9-2.587,2.892s-2.484-1.1-2.506-2.939C1414.156,531.487,1414.181,528.637,1414.181,525.788Z" fill="#36479a"/>
      <path id="パス_220" data-name="パス 220" d="M1424.923,528.9c0-2.727-.019-5.455.007-8.182.018-1.973.967-3.036,2.6-3.009,1.584.025,2.474,1.027,2.481,2.927q.03,8.454,0,16.909c-.007,1.889-.91,2.9-2.489,2.921-1.637.022-2.579-1.041-2.6-3.021C1424.905,534.6,1424.923,531.751,1424.923,528.9Z" fill="#349"/>
    </g>
  </g>
</svg>
