<svg xmlns="http://www.w3.org/2000/svg" width="216.866" height="104.145" viewBox="0 0 216.866 104.145">
  <g id="icon_day02_05" transform="translate(-1042.264 -597.932)">
    <path id="パス_5" data-name="パス 5" d="M1137.619,685.657h29.929l-7.981-10.974" fill="none" stroke="#bbb" stroke-linecap="round" stroke-linejoin="round" stroke-width="4"/>
    <g id="グループ_10" data-name="グループ 10">
      <path id="パス_64" data-name="パス 64" d="M1146.264,701.932h-104v-104h104Zm-53.3-28.085c6.632,0,13.265.09,19.893-.052a20.607,20.607,0,0,0,6.219-1.145c6.993-2.432,11-8.128,10.661-15.074-.35-7.187-3.618-13-11.394-14.767-.491-.112-.967-.752-1.244-1.259a35.109,35.109,0,0,0-2.115-4.2c-2.995-4.043-7.281-5.4-12.131-5.538a4.056,4.056,0,0,1-2.676-1c-8.69-9.693-24.734-6.01-29.707,4.566a46.357,46.357,0,0,0-2.654,8.841c-.342,1.414-.614,2.387-2.188,3.085-4.651,2.063-7,5.975-7.268,10.947a14.527,14.527,0,0,0,14.711,15.591C1079.706,673.912,1086.338,673.852,1092.969,673.847Z" fill="#fefefe" opacity="0"/>
      <path id="パス_65" data-name="パス 65" d="M1092.969,673.85c-6.631,0-13.263.062-19.893-.013a14.527,14.527,0,0,1-14.711-15.591c.273-4.972,2.617-8.884,7.268-10.947,1.574-.7,1.846-1.671,2.188-3.085a46.357,46.357,0,0,1,2.654-8.841c4.973-10.576,21.017-14.259,29.707-4.566a4.056,4.056,0,0,0,2.676,1c4.85.142,9.136,1.495,12.131,5.538a35.109,35.109,0,0,1,2.115,4.2c.277.507.753,1.147,1.244,1.259,7.776,1.769,11.044,7.58,11.394,14.767.338,6.946-3.668,12.642-10.661,15.074a20.607,20.607,0,0,1-6.219,1.145C1106.234,673.937,1099.6,673.847,1092.969,673.85Zm-20.826-22.767c-.388.036-.981.075-1.571.148-3.676.457-6.005,2.383-6.808,5.622a9.409,9.409,0,0,0,9.207,11.844q20.159.157,40.32,0c7.43-.061,12.229-5.984,11.05-13.274a8.47,8.47,0,0,0-8.045-7.587c-1.189-.127-2.375-.282-3.675-.438,0-.661.035-1.205-.005-1.743-.324-4.327-2.376-7.259-6.1-8.1a23.356,23.356,0,0,0-6.117-.342c-1.276.056-2.123-.038-2.856-1.252a11.1,11.1,0,0,0-6.97-5.214,13.868,13.868,0,0,0-16.875,10.358C1072.89,644.3,1072.659,647.644,1072.143,651.083Z" fill="#a1a1a1"/>
      <path id="パス_66" data-name="パス 66" d="M1072.143,651.083c.516-3.439.747-6.783,1.552-9.982a13.868,13.868,0,0,1,16.875-10.358,11.1,11.1,0,0,1,6.97,5.214c.733,1.214,1.58,1.308,2.856,1.252a23.356,23.356,0,0,1,6.117.342c3.727.845,5.779,3.777,6.1,8.1.04.538.005,1.082.005,1.743,1.3.156,2.486.311,3.675.438a8.47,8.47,0,0,1,8.045,7.587c1.179,7.29-3.62,13.213-11.05,13.274q-20.158.166-40.32,0a9.409,9.409,0,0,1-9.207-11.844c.8-3.239,3.132-5.165,6.808-5.622C1071.162,651.158,1071.755,651.119,1072.143,651.083Z" fill="#fefefe" opacity="0"/>
    </g>
    <g id="グループ_29" data-name="グループ 29">
      <path id="パス_211" data-name="パス 211" d="M1259.13,702.077h-104v-104h104Zm-33.142-61.988c.886,0,1.555-.037,2.22.006,5.383.354,8.4,2.71,9.354,7.286,1.211,5.8-.563,9.979-5.567,12.276a26.584,26.584,0,0,1-6.115,1.538c-1.517.289-2.486.95-2.535,2.568a2.414,2.414,0,0,0,2.5,2.552c9.534.707,17.891-7.557,17.134-17.065-.439-5.508-2.519-10.125-7.784-12.729a19.459,19.459,0,0,1-6.2-5.687c-2.97-4.78-7.537-6.377-12.883-6.52a3.789,3.789,0,0,1-2.524-.891c-6.273-7.132-16.742-7.293-24.065-2.222-5.6,3.881-7.678,9.658-8.468,16.074a2.338,2.338,0,0,1-1.613,2.279,12.717,12.717,0,0,0-7.712,13.362c1.135,8.442,7.174,13.564,15.814,13.412,1.979-.034,3.111-.953,3.121-2.534s-1.123-2.43-3.093-2.594a19.426,19.426,0,0,1-4.812-.8c-4.169-1.472-6.418-5.589-5.815-10.225.512-3.94,2.949-6.04,7.717-6.468,1.227-.11,1.259-.646,1.245-1.65a25.556,25.556,0,0,1,2.537-12.182c3.837-7.537,16.742-10.594,22.518-1.3a2.1,2.1,0,0,0,2.534,1.073,15.065,15.065,0,0,1,3.814-.119c4.982.421,7.841,2.947,8.513,7.468C1225.968,637.932,1225.932,638.9,1225.988,640.089Zm-10.418,28.046c0,2.85-.029,5.7.011,8.549.026,1.845,1.006,2.916,2.531,2.916s2.553-1.082,2.565-2.908q.057-8.457,0-16.915c-.012-1.956-1.036-3.034-2.651-2.986-1.552.046-2.426,1.058-2.45,2.978C1215.543,662.557,1215.569,665.346,1215.57,668.135Zm-21.531-.02c0,2.85-.025,5.7.009,8.548.022,1.84.992,2.928,2.505,2.94s2.574-1.063,2.588-2.892q.069-8.548,0-17.1c-.016-1.836-1.076-2.861-2.632-2.825s-2.439,1.051-2.46,2.959C1194.016,662.537,1194.039,665.326,1194.039,668.115Zm10.742,3.115c0,2.849-.018,5.7.006,8.545.018,1.98.96,3.043,2.6,3.022,1.578-.022,2.482-1.032,2.489-2.922q.03-8.454,0-16.908c-.007-1.9-.9-2.9-2.481-2.928-1.637-.026-2.586,1.037-2.6,3.01C1204.761,665.776,1204.781,668.5,1204.781,671.23Z" fill="#fefefe" opacity="0"/>
      <path id="パス_212" data-name="パス 212" d="M1225.988,640.089c-.056-1.186-.02-2.157-.16-3.1-.672-4.521-3.531-7.047-8.513-7.468a15.065,15.065,0,0,0-3.814.119,2.1,2.1,0,0,1-2.534-1.073c-5.776-9.29-18.681-6.233-22.518,1.3a25.556,25.556,0,0,0-2.537,12.182c.014,1-.018,1.54-1.245,1.65-4.768.428-7.2,2.528-7.717,6.468-.6,4.636,1.646,8.753,5.815,10.225a19.426,19.426,0,0,0,4.812.8c1.97.164,3.1,1.017,3.093,2.594s-1.142,2.5-3.121,2.534c-8.64.152-14.679-4.97-15.814-13.412a12.717,12.717,0,0,1,7.712-13.362,2.338,2.338,0,0,0,1.613-2.279c.79-6.416,2.863-12.193,8.468-16.074,7.323-5.071,17.792-4.91,24.065,2.222a3.789,3.789,0,0,0,2.524.891c5.346.143,9.913,1.74,12.883,6.52a19.459,19.459,0,0,0,6.2,5.687c5.265,2.6,7.345,7.221,7.784,12.729.757,9.508-7.6,17.772-17.134,17.065a2.414,2.414,0,0,1-2.5-2.552c.049-1.618,1.018-2.279,2.535-2.568a26.584,26.584,0,0,0,6.115-1.538c5-2.3,6.778-6.476,5.567-12.276-.955-4.576-3.971-6.932-9.354-7.286C1227.543,640.052,1226.874,640.089,1225.988,640.089Z" fill="#77769c"/>
      <path id="パス_213" data-name="パス 213" d="M1215.57,668.135c0-2.789-.027-5.578.008-8.366.024-1.92.9-2.932,2.45-2.978,1.615-.048,2.639,1.03,2.651,2.986q.05,8.457,0,16.915c-.012,1.826-1.045,2.907-2.565,2.908s-2.505-1.071-2.531-2.916C1215.541,673.835,1215.57,670.985,1215.57,668.135Z" fill="#36479a"/>
      <path id="パス_214" data-name="パス 214" d="M1194.039,668.115c0-2.789-.023-5.578.008-8.366.021-1.908.9-2.924,2.46-2.959s2.616.989,2.632,2.825q.075,8.547,0,17.1c-.014,1.829-1.073,2.9-2.588,2.892s-2.483-1.1-2.505-2.94C1194.014,673.814,1194.039,670.965,1194.039,668.115Z" fill="#36479a"/>
      <path id="パス_215" data-name="パス 215" d="M1204.781,671.23c0-2.727-.02-5.454.006-8.181.019-1.973.968-3.036,2.6-3.01,1.584.025,2.474,1.028,2.481,2.928q.03,8.454,0,16.908c-.007,1.89-.911,2.9-2.489,2.922-1.637.021-2.579-1.042-2.6-3.022C1204.763,676.927,1204.781,674.079,1204.781,671.23Z" fill="#349"/>
    </g>
  </g>
</svg>
