<svg xmlns="http://www.w3.org/2000/svg" width="216" height="104" viewBox="0 0 216 104">
  <g id="icon_day03_00" transform="translate(-1375.666 -322.96)">
    <path id="パス_302" data-name="パス 302" d="M1591.666,426.96h-216v-104h216Zm-88.248-61.988c.886,0,1.556-.038,2.22.006,5.383.354,8.4,2.71,9.354,7.286,1.211,5.8-.563,9.979-5.567,12.276a26.639,26.639,0,0,1-6.115,1.538c-1.517.289-2.486.95-2.535,2.568a2.413,2.413,0,0,0,2.5,2.551c9.534.708,17.891-7.556,17.134-17.064-.439-5.509-2.519-10.125-7.784-12.729a19.494,19.494,0,0,1-6.2-5.688c-2.969-4.779-7.537-6.376-12.883-6.519a3.794,3.794,0,0,1-2.524-.891c-6.273-7.132-16.742-7.293-24.065-2.222-5.6,3.881-7.678,9.658-8.468,16.074a2.337,2.337,0,0,1-1.612,2.279,12.716,12.716,0,0,0-7.713,13.362c1.135,8.442,7.174,13.564,15.814,13.412,1.979-.034,3.111-.953,3.121-2.534s-1.123-2.43-3.093-2.6a19.382,19.382,0,0,1-4.812-.8c-4.169-1.471-6.418-5.588-5.815-10.224.512-3.94,2.949-6.04,7.717-6.468,1.227-.11,1.259-.646,1.245-1.651a25.547,25.547,0,0,1,2.537-12.181c3.837-7.537,16.742-10.594,22.518-1.3a2.1,2.1,0,0,0,2.534,1.074,15.065,15.065,0,0,1,3.814-.119c4.982.421,7.841,2.947,8.513,7.468C1503.4,362.815,1503.362,363.786,1503.418,364.972ZM1493,393.018c0,2.85-.03,5.7.01,8.548.026,1.846,1.006,2.917,2.532,2.916s2.552-1.081,2.564-2.907q.057-8.457,0-16.915c-.012-1.956-1.036-3.034-2.651-2.986-1.552.046-2.426,1.058-2.45,2.977C1492.973,387.44,1493,390.229,1493,393.018Zm-21.532-.02c0,2.849-.025,5.7.009,8.548.022,1.84.992,2.928,2.506,2.94s2.573-1.063,2.587-2.892q.069-8.549,0-17.1c-.016-1.835-1.076-2.86-2.632-2.825s-2.439,1.052-2.46,2.959C1471.446,387.42,1471.469,390.209,1471.469,393Zm10.742,3.115c0,2.849-.018,5.7.007,8.545.017,1.98.959,3.043,2.6,3.021,1.579-.021,2.482-1.031,2.489-2.921q.03-8.454,0-16.908c-.007-1.9-.9-2.9-2.481-2.928-1.637-.026-2.586,1.036-2.6,3.01C1482.192,390.659,1482.211,393.386,1482.211,396.113Z" fill="#fefefe" opacity="0"/>
    <path id="パス_303" data-name="パス 303" d="M1503.418,364.972c-.056-1.186-.02-2.157-.16-3.1-.672-4.521-3.531-7.047-8.513-7.468a15.065,15.065,0,0,0-3.814.119,2.1,2.1,0,0,1-2.534-1.074c-5.776-9.289-18.681-6.232-22.518,1.3a25.547,25.547,0,0,0-2.537,12.181c.014,1.005-.018,1.541-1.245,1.651-4.768.428-7.205,2.528-7.717,6.468-.6,4.636,1.646,8.753,5.815,10.224a19.382,19.382,0,0,0,4.812.8c1.97.165,3.1,1.018,3.093,2.6s-1.142,2.5-3.121,2.534c-8.64.152-14.679-4.97-15.814-13.412a12.716,12.716,0,0,1,7.713-13.362,2.337,2.337,0,0,0,1.612-2.279c.79-6.416,2.863-12.193,8.468-16.074,7.323-5.071,17.792-4.91,24.065,2.222a3.794,3.794,0,0,0,2.524.891c5.346.143,9.914,1.74,12.883,6.519a19.494,19.494,0,0,0,6.2,5.688c5.265,2.6,7.345,7.22,7.784,12.729.757,9.508-7.6,17.772-17.134,17.064a2.413,2.413,0,0,1-2.5-2.551c.049-1.618,1.018-2.279,2.535-2.568a26.639,26.639,0,0,0,6.115-1.538c5-2.3,6.778-6.476,5.567-12.276-.955-4.576-3.971-6.932-9.354-7.286C1504.974,364.934,1504.3,364.972,1503.418,364.972Z" fill="#77769c"/>
    <path id="パス_304" data-name="パス 304" d="M1493,393.018c0-2.789-.027-5.578.008-8.367.024-1.919.9-2.931,2.45-2.977,1.615-.048,2.639,1.03,2.651,2.986q.049,8.457,0,16.915c-.012,1.826-1.045,2.907-2.564,2.907s-2.506-1.07-2.532-2.916C1492.971,398.718,1493,395.868,1493,393.018Z" fill="#36479a"/>
    <path id="パス_305" data-name="パス 305" d="M1471.469,393c0-2.789-.023-5.578.008-8.367.021-1.907.9-2.923,2.46-2.959s2.616.99,2.632,2.825q.075,8.549,0,17.1c-.014,1.829-1.073,2.9-2.587,2.892s-2.484-1.1-2.506-2.94C1471.444,398.7,1471.469,395.847,1471.469,393Z" fill="#36479a"/>
    <path id="パス_306" data-name="パス 306" d="M1482.211,396.113c0-2.727-.019-5.454.007-8.181.018-1.974.967-3.036,2.6-3.01,1.584.025,2.474,1.028,2.481,2.928q.03,8.454,0,16.908c-.007,1.89-.91,2.9-2.489,2.921-1.637.022-2.579-1.041-2.6-3.021C1482.193,401.81,1482.211,398.962,1482.211,396.113Z" fill="#349"/>
  </g>
</svg>
