<svg xmlns="http://www.w3.org/2000/svg" width="216.789" height="104.333" viewBox="0 0 216.789 104.333">
  <g id="icon_day03_06" transform="translate(-1630.799 -744.727)">
    <path id="パス_9" data-name="パス 9" d="M1725.552,830.312h29.929l-7.981-10.974" fill="none" stroke="#bbb" stroke-linecap="round" stroke-linejoin="round" stroke-width="4"/>
    <g id="グループ_35" data-name="グループ 35">
      <path id="パス_241" data-name="パス 241" d="M1734.8,849.06h-104v-104h104Zm-33.141-61.988c.885,0,1.555-.037,2.219.006,5.383.354,8.4,2.711,9.354,7.286,1.211,5.8-.563,9.979-5.566,12.276a26.6,26.6,0,0,1-6.116,1.538c-1.516.289-2.485.951-2.534,2.568a2.412,2.412,0,0,0,2.5,2.552c9.535.708,17.892-7.557,17.134-17.065-.439-5.508-2.518-10.125-7.784-12.729a19.483,19.483,0,0,1-6.2-5.687c-2.969-4.78-7.537-6.377-12.883-6.52a3.785,3.785,0,0,1-2.523-.891c-6.273-7.132-16.743-7.293-24.066-2.221-5.6,3.881-7.678,9.657-8.468,16.074a2.338,2.338,0,0,1-1.612,2.279A12.716,12.716,0,0,0,1647.4,799.9c1.135,8.442,7.174,13.564,15.815,13.413,1.979-.035,3.11-.954,3.121-2.535s-1.124-2.43-3.093-2.594a19.427,19.427,0,0,1-4.813-.8c-4.168-1.472-6.418-5.588-5.815-10.224.513-3.941,2.95-6.041,7.718-6.469,1.227-.11,1.258-.646,1.244-1.65a25.547,25.547,0,0,1,2.538-12.181c3.837-7.538,16.741-10.594,22.517-1.3a2.1,2.1,0,0,0,2.534,1.073,15.067,15.067,0,0,1,3.814-.119c4.982.421,7.842,2.948,8.514,7.468C1701.638,784.916,1701.6,785.886,1701.658,787.072Zm-10.418,28.046c0,2.85-.029,5.7.01,8.549.026,1.845,1.006,2.916,2.532,2.916s2.552-1.082,2.564-2.908q.057-8.457,0-16.915c-.011-1.955-1.036-3.034-2.65-2.986-1.553.046-2.426,1.058-2.45,2.978C1691.213,809.54,1691.239,812.329,1691.24,815.118Zm-21.532-.02c0,2.85-.025,5.7.009,8.549.022,1.839.993,2.927,2.506,2.939s2.573-1.063,2.588-2.892q.067-8.547,0-17.1c-.016-1.836-1.076-2.86-2.632-2.825s-2.439,1.051-2.46,2.959C1669.685,809.52,1669.708,812.309,1669.708,815.1Zm10.743,3.116c0,2.848-.019,5.7.006,8.545.017,1.98.96,3.042,2.6,3.021,1.579-.021,2.482-1.032,2.489-2.922q.031-8.454,0-16.908c-.006-1.9-.9-2.9-2.48-2.928-1.637-.026-2.586,1.037-2.6,3.01C1680.431,812.759,1680.45,815.486,1680.451,818.214Z" fill="#fefefe" opacity="0"/>
      <path id="パス_242" data-name="パス 242" d="M1701.658,787.072c-.056-1.186-.02-2.156-.16-3.1-.672-4.52-3.532-7.047-8.514-7.468a15.067,15.067,0,0,0-3.814.119,2.1,2.1,0,0,1-2.534-1.073c-5.776-9.289-18.68-6.233-22.517,1.3a25.547,25.547,0,0,0-2.538,12.181c.014,1-.017,1.54-1.244,1.65-4.768.428-7.205,2.528-7.718,6.469-.6,4.636,1.647,8.752,5.815,10.224a19.427,19.427,0,0,0,4.813.8c1.969.164,3.1,1.017,3.093,2.594s-1.142,2.5-3.121,2.535c-8.641.151-14.68-4.971-15.815-13.413a12.716,12.716,0,0,1,7.713-13.361,2.338,2.338,0,0,0,1.612-2.279c.79-6.417,2.863-12.193,8.468-16.074,7.323-5.072,17.793-4.911,24.066,2.221a3.785,3.785,0,0,0,2.523.891c5.346.143,9.914,1.74,12.883,6.52a19.483,19.483,0,0,0,6.2,5.687c5.266,2.6,7.345,7.221,7.784,12.729.758,9.508-7.6,17.773-17.134,17.065a2.412,2.412,0,0,1-2.5-2.552c.049-1.617,1.018-2.279,2.534-2.568a26.6,26.6,0,0,0,6.116-1.538c5-2.3,6.777-6.476,5.566-12.276-.955-4.575-3.971-6.932-9.354-7.286C1703.213,787.035,1702.543,787.072,1701.658,787.072Z" fill="#77769c"/>
      <path id="パス_243" data-name="パス 243" d="M1691.239,815.118c0-2.789-.026-5.578.009-8.366.024-1.92.9-2.932,2.45-2.978,1.614-.048,2.639,1.031,2.65,2.986q.051,8.457,0,16.915c-.012,1.826-1.045,2.907-2.564,2.908s-2.506-1.071-2.532-2.916C1691.211,820.818,1691.24,817.968,1691.239,815.118Z" fill="#36479a"/>
      <path id="パス_244" data-name="パス 244" d="M1669.708,815.1c0-2.789-.023-5.578.008-8.366.021-1.908.9-2.924,2.46-2.959s2.616.989,2.632,2.825q.075,8.547,0,17.1c-.015,1.829-1.073,2.9-2.588,2.892s-2.484-1.1-2.506-2.939C1669.683,820.8,1669.708,817.948,1669.708,815.1Z" fill="#36479a"/>
      <path id="パス_245" data-name="パス 245" d="M1680.45,818.214c0-2.728-.019-5.455.007-8.182.019-1.973.968-3.036,2.6-3.01,1.584.025,2.474,1.028,2.48,2.928q.03,8.454,0,16.908c-.007,1.89-.91,2.9-2.489,2.922-1.636.021-2.579-1.041-2.6-3.021C1680.432,823.91,1680.451,821.062,1680.45,818.214Z" fill="#349"/>
    </g>
    <g id="グループ_42" data-name="グループ 42">
      <path id="パス_286" data-name="パス 286" d="M1743.588,744.727h104v104h-104Zm70.931,42.384c.907.073,1.8.163,2.7.214,4.555.257,7.314,2.253,8.482,6.148,1.546,5.156.556,9.483-3.155,11.953a30.206,30.206,0,0,1-6.267,2.739c-1.572.586-2.482,1.681-2.191,3.059a2.716,2.716,0,0,0,3.393,1.945,18.316,18.316,0,0,0,9.373-4.566c4.587-4.255,5.413-9.553,4.072-15.387a13.36,13.36,0,0,0-10.46-10.7,2.212,2.212,0,0,1-1.447-1.025c-2.332-7.326-7.746-9.972-14.94-10.1a3.292,3.292,0,0,1-2.147-.963c-8.46-9.35-22.913-6.113-28.643,2.6a26.82,26.82,0,0,0-3.842,11.279c-.106.758-.6,1.881-1.184,2.09-7.862,2.831-10.593,12.949-5.773,20.364a14.249,14.249,0,0,0,11.945,6.6,2.334,2.334,0,0,0,2.678-2.162c.215-1.6-.733-2.481-2.195-2.87a10.718,10.718,0,0,0-1.086-.112c-3.912-.613-6.771-2.553-8.065-6.442-1.834-5.511.912-10.056,6.6-10.939.643-.1,1.288-.178,1.952-.268a29.7,29.7,0,0,1,1.786-11.9c2.088-5.272,6.191-8.049,11.651-8.667,5.025-.569,8.964,1.494,11.78,5.756a2.961,2.961,0,0,0,2.032.991c1.8.146,3.638-.089,5.432.1a7.715,7.715,0,0,1,7.075,6.545C1814.314,784.569,1814.368,785.782,1814.519,787.111Zm-34.848,23.378a3.74,3.74,0,0,0,3.729,3.872,3.957,3.957,0,0,0,3.829-3.861,3.863,3.863,0,0,0-3.728-3.737A3.645,3.645,0,0,0,1779.671,810.489Zm23.7.1a3.719,3.719,0,0,0,3.817,3.773,3.943,3.943,0,0,0,3.72-3.771,3.825,3.825,0,0,0-3.81-3.827A3.649,3.649,0,0,0,1803.375,810.588Zm-8.063-1.652a3.756,3.756,0,0,0-3.876,3.742,3.927,3.927,0,0,0,3.841,3.849,3.888,3.888,0,0,0,3.763-3.719A3.734,3.734,0,0,0,1795.312,808.936Zm0,19.363a3.73,3.73,0,0,0,3.731-3.867,3.8,3.8,0,0,0-7.6.113A3.789,3.789,0,0,0,1795.309,828.3Zm-11.85-2.169a3.823,3.823,0,0,0,3.77-3.664,3.952,3.952,0,0,0-3.958-3.907,3.837,3.837,0,0,0-3.6,3.826A3.607,3.607,0,0,0,1783.459,826.13Zm23.579,0a3.782,3.782,0,0,0,3.87-3.738,3.956,3.956,0,0,0-3.845-3.833,3.9,3.9,0,0,0-3.753,3.718A3.732,3.732,0,0,0,1807.038,826.13Z" fill="#fefefe" opacity="0"/>
      <path id="パス_287" data-name="パス 287" d="M1814.519,787.111c-.151-1.329-.205-2.542-.437-3.72a7.715,7.715,0,0,0-7.075-6.545c-1.794-.189-3.63.046-5.432-.1a2.961,2.961,0,0,1-2.032-.991c-2.816-4.262-6.755-6.325-11.78-5.756-5.46.618-9.563,3.395-11.651,8.667a29.7,29.7,0,0,0-1.786,11.9c-.664.09-1.309.168-1.952.268-5.691.883-8.437,5.428-6.6,10.939,1.294,3.889,4.153,5.829,8.065,6.442a10.718,10.718,0,0,1,1.086.112c1.462.389,2.41,1.268,2.195,2.87a2.334,2.334,0,0,1-2.678,2.162,14.249,14.249,0,0,1-11.945-6.6c-4.82-7.415-2.089-17.533,5.773-20.364.584-.209,1.078-1.332,1.184-2.09a26.82,26.82,0,0,1,3.842-11.279c5.73-8.718,20.183-11.955,28.643-2.6a3.292,3.292,0,0,0,2.147.963c7.194.131,12.608,2.777,14.94,10.1a2.212,2.212,0,0,0,1.447,1.025,13.36,13.36,0,0,1,10.46,10.7c1.341,5.834.515,11.132-4.072,15.387a18.316,18.316,0,0,1-9.373,4.566,2.716,2.716,0,0,1-3.393-1.945c-.291-1.378.619-2.473,2.191-3.059a30.206,30.206,0,0,0,6.267-2.739c3.711-2.47,4.7-6.8,3.155-11.953-1.168-3.9-3.927-5.891-8.482-6.148C1816.323,787.274,1815.426,787.184,1814.519,787.111Z" fill="#8d8d8d"/>
      <path id="パス_288" data-name="パス 288" d="M1779.671,810.489a3.645,3.645,0,0,1,3.83-3.726,3.863,3.863,0,0,1,3.728,3.737,3.957,3.957,0,0,1-3.829,3.861A3.74,3.74,0,0,1,1779.671,810.489Z" fill="#8e8e8e"/>
      <path id="パス_289" data-name="パス 289" d="M1803.375,810.588a3.649,3.649,0,0,1,3.727-3.825,3.825,3.825,0,0,1,3.81,3.827,3.943,3.943,0,0,1-3.72,3.771A3.719,3.719,0,0,1,1803.375,810.588Z" fill="#8e8e8e"/>
      <path id="パス_290" data-name="パス 290" d="M1795.312,808.936a3.734,3.734,0,0,1,3.728,3.872,3.888,3.888,0,0,1-3.763,3.719,3.927,3.927,0,0,1-3.841-3.849A3.756,3.756,0,0,1,1795.312,808.936Z" fill="#8e8e8e"/>
      <path id="パス_291" data-name="パス 291" d="M1795.309,828.3a3.789,3.789,0,0,1-3.874-3.754,3.8,3.8,0,0,1,7.6-.113A3.73,3.73,0,0,1,1795.309,828.3Z" fill="#8e8e8e"/>
      <path id="パス_292" data-name="パス 292" d="M1783.459,826.13a3.607,3.607,0,0,1-3.788-3.745,3.837,3.837,0,0,1,3.6-3.826,3.952,3.952,0,0,1,3.958,3.907A3.823,3.823,0,0,1,1783.459,826.13Z" fill="#8e8e8e"/>
      <path id="パス_293" data-name="パス 293" d="M1807.038,826.13a3.732,3.732,0,0,1-3.728-3.853,3.9,3.9,0,0,1,3.753-3.718,3.956,3.956,0,0,1,3.845,3.833A3.782,3.782,0,0,1,1807.038,826.13Z" fill="#8e8e8e"/>
    </g>
  </g>
</svg>
