<svg xmlns="http://www.w3.org/2000/svg" width="217.98" height="104" viewBox="0 0 217.98 104">
  <g id="icon_day01_06" transform="translate(-411.843 -744.727)">
    <path id="パス_3" data-name="パス 3" d="M506.736,830.312h29.929l-7.981-10.974" fill="none" stroke="#bbb" stroke-linecap="round" stroke-linejoin="round" stroke-width="4"/>
    <g id="グループ_3" data-name="グループ 3">
      <path id="パス_35" data-name="パス 35" d="M515.843,848.727h-104v-104h104ZM464.054,778.15c-9.712-.256-18.376,7.857-18.649,17.462-.3,10.608,7.51,19.227,17.683,19.514,10.294.29,18.956-7.669,19.2-17.637C482.542,786.741,474.708,778.43,464.054,778.15Zm2.333,50.709c0-1.272.056-2.547-.014-3.815a2.617,2.617,0,0,0-2.58-2.727,2.575,2.575,0,0,0-2.562,2.743c-.073,2.542-.062,5.089,0,7.632a2.635,2.635,0,0,0,2.494,2.824c1.466.056,2.564-1.07,2.656-2.841C466.442,831.406,466.389,830.131,466.387,828.859Zm-5.175-64.012h.01c0,1.332-.086,2.67.022,3.993a2.429,2.429,0,0,0,2.548,2.523,2.345,2.345,0,0,0,2.541-2.5c.1-2.66.1-5.327.017-7.986a2.512,2.512,0,0,0-2.628-2.644,2.614,2.614,0,0,0-2.5,2.8C461.167,762.3,461.212,763.576,461.212,764.847Zm-23.034,3.613c-.768.623-1.876,1.082-2.073,1.794a3.667,3.667,0,0,0,.512,2.924,72.63,72.63,0,0,0,5.339,5.439c1.331,1.289,2.734,1.335,3.843.22,1.064-1.069.992-2.56-.264-3.853-1.729-1.78-3.478-3.544-5.275-5.256A12.575,12.575,0,0,0,438.178,768.46Zm8.723,47.993c-.682-.766-1.178-1.8-1.912-2.015a3.414,3.414,0,0,0-2.755.508c-1.974,1.687-3.755,3.6-5.565,5.475a2.513,2.513,0,0,0-.214,3.719c1.078,1.122,2.536,1.1,3.857-.165,1.791-1.719,3.553-3.471,5.258-5.275A13,13,0,0,0,446.9,816.453Zm45.236-45.39c-.617-.691-1.112-1.73-1.843-1.936a3.449,3.449,0,0,0-2.771.522c-1.982,1.692-3.765,3.621-5.589,5.492a2.481,2.481,0,0,0-.2,3.6,2.422,2.422,0,0,0,3.717.072c1.941-1.839,3.819-3.747,5.659-5.687A9.084,9.084,0,0,0,492.137,771.063Zm-8.685,42.694c-.781.656-1.846,1.116-2.005,1.79a3.832,3.832,0,0,0,.5,2.953,70.749,70.749,0,0,0,5.228,5.339c1.377,1.346,2.725,1.463,3.858.407s1.057-2.676-.247-4.015c-1.654-1.7-3.318-3.391-5.044-5.016A15.236,15.236,0,0,0,483.452,813.757ZM431.79,794.335c-1.331,0-2.662-.022-3.992.005a2.531,2.531,0,0,0-.145,5.06c2.718.1,5.444.095,8.163.006a2.453,2.453,0,0,0,2.532-2.556,2.545,2.545,0,0,0-2.748-2.51C434.331,794.3,433.06,794.332,431.79,794.335Zm64.067,5.108h3.464c.121,0,.243,0,.364-.005,1.71-.119,2.7-1.072,2.693-2.584-.01-1.536-.98-2.481-2.725-2.511-2.49-.044-4.982-.035-7.473-.005-1.769.021-2.951,1.083-2.929,2.542.022,1.482,1.173,2.5,2.961,2.555C493.426,799.473,494.642,799.442,495.857,799.443Z" fill="#fefefe" opacity="0"/>
      <path id="パス_36" data-name="パス 36" d="M464.054,778.15c10.654.28,18.488,8.591,18.23,19.339-.24,9.968-8.9,17.927-19.2,17.637-10.173-.287-17.984-8.906-17.683-19.514C445.678,786.007,454.342,777.894,464.054,778.15Zm-.207,5.161A13.36,13.36,0,1,0,477.194,796.6,13.274,13.274,0,0,0,463.847,783.311Z" fill="#ef8a3e"/>
      <path id="パス_37" data-name="パス 37" d="M466.388,828.859c0,1.272.054,2.547-.012,3.816-.092,1.771-1.19,2.9-2.656,2.841a2.635,2.635,0,0,1-2.494-2.824c-.057-2.543-.068-5.09,0-7.632a2.575,2.575,0,0,1,2.562-2.743,2.617,2.617,0,0,1,2.58,2.727C466.443,826.312,466.387,827.587,466.388,828.859Z" fill="#f08c41"/>
      <path id="パス_38" data-name="パス 38" d="M461.212,764.847c0-1.271-.045-2.544.011-3.813a2.614,2.614,0,0,1,2.5-2.8,2.512,2.512,0,0,1,2.628,2.644c.086,2.659.078,5.326-.017,7.986a2.345,2.345,0,0,1-2.541,2.5,2.429,2.429,0,0,1-2.548-2.523c-.108-1.323-.022-2.661-.022-3.993Z" fill="#f08c41"/>
      <path id="パス_39" data-name="パス 39" d="M438.178,768.46a12.575,12.575,0,0,1,2.082,1.268c1.8,1.712,3.546,3.476,5.275,5.256,1.256,1.293,1.328,2.784.264,3.853-1.109,1.115-2.512,1.069-3.843-.22a72.63,72.63,0,0,1-5.339-5.439,3.667,3.667,0,0,1-.512-2.924C436.3,769.542,437.41,769.083,438.178,768.46Z" fill="#ef8b40"/>
      <path id="パス_40" data-name="パス 40" d="M446.9,816.453a13,13,0,0,1-1.331,2.247c-1.705,1.8-3.467,3.556-5.258,5.275-1.321,1.267-2.779,1.287-3.857.165a2.513,2.513,0,0,1,.214-3.719c1.81-1.871,3.591-3.788,5.565-5.475a3.414,3.414,0,0,1,2.755-.508C445.723,814.651,446.219,815.687,446.9,816.453Z" fill="#ef8b40"/>
      <path id="パス_41" data-name="パス 41" d="M492.137,771.063a9.084,9.084,0,0,1-1.027,2.068c-1.84,1.94-3.718,3.848-5.659,5.687a2.422,2.422,0,0,1-3.717-.072,2.481,2.481,0,0,1,.2-3.6c1.824-1.871,3.607-3.8,5.589-5.492a3.449,3.449,0,0,1,2.771-.522C491.025,769.333,491.52,770.372,492.137,771.063Z" fill="#ef8b3f"/>
      <path id="パス_42" data-name="パス 42" d="M483.452,813.757a15.236,15.236,0,0,1,2.288,1.458c1.726,1.625,3.39,3.317,5.044,5.016,1.3,1.339,1.378,2.963.247,4.015s-2.481.939-3.858-.407a70.749,70.749,0,0,1-5.228-5.339,3.832,3.832,0,0,1-.5-2.953C481.606,814.873,482.671,814.413,483.452,813.757Z" fill="#ef8b3f"/>
      <path id="パス_43" data-name="パス 43" d="M431.79,794.333c1.27,0,2.541-.034,3.81.007a2.545,2.545,0,0,1,2.748,2.51,2.453,2.453,0,0,1-2.532,2.556c-2.719.089-5.445.1-8.163-.006a2.531,2.531,0,0,1,.145-5.06C429.128,794.313,430.459,794.335,431.79,794.333Z" fill="#ef8b3e"/>
      <path id="パス_44" data-name="パス 44" d="M495.857,799.443c-1.215,0-2.431.03-3.645-.008-1.788-.056-2.939-1.073-2.961-2.555-.022-1.459,1.16-2.521,2.929-2.542,2.491-.03,4.983-.039,7.473.005,1.745.03,2.715.975,2.725,2.511.01,1.512-.983,2.465-2.693,2.584-.121.008-.243.005-.364.005Z" fill="#ef8a3e"/>
      <path id="パス_45" data-name="パス 45" d="M463.847,783.311A13.36,13.36,0,1,1,450.5,796.6,13.277,13.277,0,0,1,463.847,783.311Z" fill="#fefdfd" opacity="0"/>
    </g>
    <g id="グループ_15" data-name="グループ 15">
      <path id="パス_92" data-name="パス 92" d="M525.823,744.727h104v104h-104Zm70.93,42.384c.908.073,1.8.163,2.705.214,4.555.257,7.314,2.253,8.482,6.148,1.545,5.156.556,9.483-3.155,11.953a30.214,30.214,0,0,1-6.268,2.739c-1.572.586-2.482,1.681-2.191,3.059a2.717,2.717,0,0,0,3.393,1.945,18.313,18.313,0,0,0,9.373-4.566c4.588-4.255,5.414-9.553,4.073-15.387a13.36,13.36,0,0,0-10.46-10.7,2.209,2.209,0,0,1-1.447-1.025c-2.333-7.326-7.747-9.972-14.94-10.1a3.291,3.291,0,0,1-2.147-.963c-8.46-9.35-22.914-6.113-28.643,2.6a26.821,26.821,0,0,0-3.842,11.279c-.106.758-.6,1.881-1.184,2.09-7.863,2.831-10.594,12.949-5.773,20.364a14.246,14.246,0,0,0,11.945,6.6,2.334,2.334,0,0,0,2.678-2.162c.215-1.6-.733-2.481-2.2-2.87a10.747,10.747,0,0,0-1.086-.112c-3.912-.613-6.772-2.553-8.065-6.442-1.834-5.511.912-10.056,6.6-10.939.642-.1,1.288-.178,1.952-.268a29.706,29.706,0,0,1,1.786-11.9c2.087-5.272,6.191-8.049,11.65-8.667,5.026-.569,8.964,1.494,11.781,5.756a2.957,2.957,0,0,0,2.032.991c1.8.146,3.638-.089,5.432.1a7.715,7.715,0,0,1,7.075,6.545C596.549,784.569,596.6,785.782,596.753,787.111Zm-34.847,23.378a3.739,3.739,0,0,0,3.729,3.872,3.957,3.957,0,0,0,3.829-3.861,3.863,3.863,0,0,0-3.728-3.737A3.645,3.645,0,0,0,561.906,810.489Zm23.7.1a3.721,3.721,0,0,0,3.817,3.773,3.943,3.943,0,0,0,3.72-3.771,3.824,3.824,0,0,0-3.81-3.827A3.649,3.649,0,0,0,585.609,810.588Zm-8.062-1.652a3.758,3.758,0,0,0-3.877,3.742,3.929,3.929,0,0,0,3.841,3.849,3.888,3.888,0,0,0,3.764-3.719A3.734,3.734,0,0,0,577.547,808.936Zm0,19.363a3.731,3.731,0,0,0,3.732-3.867,3.8,3.8,0,0,0-7.605.113A3.789,3.789,0,0,0,577.543,828.3Zm-11.849-2.169a3.823,3.823,0,0,0,3.77-3.664,3.952,3.952,0,0,0-3.958-3.907,3.839,3.839,0,0,0-3.6,3.826A3.608,3.608,0,0,0,565.694,826.13Zm23.578,0a3.781,3.781,0,0,0,3.87-3.738,3.955,3.955,0,0,0-3.844-3.833,3.9,3.9,0,0,0-3.753,3.718A3.731,3.731,0,0,0,589.272,826.13Z" fill="#fefefe" opacity="0"/>
      <path id="パス_93" data-name="パス 93" d="M596.753,787.111c-.15-1.329-.2-2.542-.436-3.72a7.715,7.715,0,0,0-7.075-6.545c-1.794-.189-3.63.046-5.432-.1a2.957,2.957,0,0,1-2.032-.991c-2.817-4.262-6.755-6.325-11.781-5.756-5.459.618-9.563,3.395-11.65,8.667a29.706,29.706,0,0,0-1.786,11.9c-.664.09-1.31.168-1.952.268-5.691.883-8.437,5.428-6.6,10.939,1.293,3.889,4.153,5.829,8.065,6.442a10.747,10.747,0,0,1,1.086.112c1.462.389,2.41,1.268,2.2,2.87a2.334,2.334,0,0,1-2.678,2.162,14.246,14.246,0,0,1-11.945-6.6c-4.821-7.415-2.09-17.533,5.773-20.364.583-.209,1.078-1.332,1.184-2.09a26.821,26.821,0,0,1,3.842-11.279c5.729-8.718,20.183-11.955,28.643-2.6a3.291,3.291,0,0,0,2.147.963c7.193.131,12.607,2.777,14.94,10.1a2.209,2.209,0,0,0,1.447,1.025,13.36,13.36,0,0,1,10.46,10.7c1.341,5.834.515,11.132-4.073,15.387a18.313,18.313,0,0,1-9.373,4.566,2.717,2.717,0,0,1-3.393-1.945c-.291-1.378.619-2.473,2.191-3.059a30.214,30.214,0,0,0,6.268-2.739c3.711-2.47,4.7-6.8,3.155-11.953-1.168-3.9-3.927-5.891-8.482-6.148C598.558,787.274,597.661,787.184,596.753,787.111Z" fill="#8d8d8d"/>
      <path id="パス_94" data-name="パス 94" d="M561.906,810.489a3.645,3.645,0,0,1,3.83-3.726,3.863,3.863,0,0,1,3.728,3.737,3.957,3.957,0,0,1-3.829,3.861A3.739,3.739,0,0,1,561.906,810.489Z" fill="#8e8e8e"/>
      <path id="パス_95" data-name="パス 95" d="M585.609,810.588a3.649,3.649,0,0,1,3.727-3.825,3.824,3.824,0,0,1,3.81,3.827,3.943,3.943,0,0,1-3.72,3.771A3.721,3.721,0,0,1,585.609,810.588Z" fill="#8e8e8e"/>
      <path id="パス_96" data-name="パス 96" d="M577.547,808.936a3.734,3.734,0,0,1,3.728,3.872,3.888,3.888,0,0,1-3.764,3.719,3.929,3.929,0,0,1-3.841-3.849A3.758,3.758,0,0,1,577.547,808.936Z" fill="#8e8e8e"/>
      <path id="パス_97" data-name="パス 97" d="M577.543,828.3a3.789,3.789,0,0,1-3.873-3.754,3.8,3.8,0,0,1,7.605-.113A3.731,3.731,0,0,1,577.543,828.3Z" fill="#8e8e8e"/>
      <path id="パス_98" data-name="パス 98" d="M565.694,826.13a3.608,3.608,0,0,1-3.789-3.745,3.839,3.839,0,0,1,3.6-3.826,3.952,3.952,0,0,1,3.958,3.907A3.823,3.823,0,0,1,565.694,826.13Z" fill="#8e8e8e"/>
      <path id="パス_99" data-name="パス 99" d="M589.272,826.13a3.731,3.731,0,0,1-3.727-3.853,3.9,3.9,0,0,1,3.753-3.718,3.955,3.955,0,0,1,3.844,3.833A3.781,3.781,0,0,1,589.272,826.13Z" fill="#8e8e8e"/>
    </g>
  </g>
</svg>
