<svg xmlns="http://www.w3.org/2000/svg" width="104" height="104" viewBox="0 0 104 104">
  <g id="icon_hour01" transform="translate(-157.449 -199.693)">
    <path id="パス_13" data-name="パス 13" d="M261.449,303.693h-104v-104h104ZM209.66,233.115c-9.712-.256-18.376,7.857-18.649,17.462-.3,10.608,7.51,19.228,17.683,19.514,10.294.29,18.956-7.669,19.2-17.637C228.148,241.706,220.315,233.4,209.66,233.115Zm2.333,50.709c0-1.272.056-2.547-.014-3.815a2.618,2.618,0,0,0-2.58-2.727,2.574,2.574,0,0,0-2.561,2.743c-.074,2.542-.063,5.089-.006,7.632a2.634,2.634,0,0,0,2.494,2.824c1.466.057,2.564-1.07,2.656-2.841C212.048,286.371,211.995,285.1,211.993,283.824Zm-5.175-64.012h.01c0,1.332-.086,2.671.023,3.993a2.427,2.427,0,0,0,2.547,2.523,2.344,2.344,0,0,0,2.541-2.5q.143-3.99.017-7.986a2.512,2.512,0,0,0-2.628-2.644,2.614,2.614,0,0,0-2.5,2.8C206.773,217.268,206.818,218.541,206.818,219.812Zm-23.033,3.613c-.768.623-1.877,1.083-2.074,1.794a3.67,3.67,0,0,0,.512,2.924,72.656,72.656,0,0,0,5.34,5.44c1.33,1.289,2.733,1.334,3.842.219,1.064-1.069.992-2.56-.264-3.853-1.729-1.78-3.478-3.544-5.275-5.256A12.607,12.607,0,0,0,183.785,223.425Zm8.723,47.993c-.683-.765-1.178-1.8-1.912-2.015a3.415,3.415,0,0,0-2.756.508c-1.974,1.687-3.754,3.6-5.565,5.475a2.513,2.513,0,0,0-.214,3.719c1.078,1.123,2.536,1.1,3.857-.165,1.791-1.718,3.553-3.471,5.258-5.275A12.953,12.953,0,0,0,192.508,271.418Zm45.236-45.389c-.617-.691-1.113-1.731-1.844-1.937a3.449,3.449,0,0,0-2.771.522c-1.982,1.693-3.765,3.621-5.589,5.493a2.481,2.481,0,0,0-.2,3.6,2.421,2.421,0,0,0,3.717.072c1.941-1.839,3.82-3.747,5.659-5.687A9.07,9.07,0,0,0,237.744,226.029Zm-8.686,42.693c-.781.656-1.846,1.116-2.005,1.79a3.831,3.831,0,0,0,.5,2.953,70.54,70.54,0,0,0,5.227,5.339c1.378,1.347,2.725,1.463,3.859.408s1.056-2.677-.247-4.016c-1.655-1.7-3.318-3.391-5.045-5.015A15.238,15.238,0,0,0,229.058,268.722ZM177.4,249.3c-1.33,0-2.661-.021-3.991.006a2.531,2.531,0,0,0-.146,5.059c2.718.1,5.444.1,8.163.007a2.454,2.454,0,0,0,2.532-2.556,2.546,2.546,0,0,0-2.748-2.511C179.937,249.264,178.666,249.3,177.4,249.3Zm64.067,5.108h3.464c.121,0,.243,0,.364-.005,1.711-.119,2.7-1.072,2.693-2.584-.01-1.536-.98-2.481-2.725-2.511-2.49-.043-4.982-.035-7.473-.005-1.769.021-2.951,1.083-2.929,2.542.022,1.483,1.173,2.5,2.961,2.555C239.032,254.438,240.248,254.407,241.463,254.408Z" fill="#fefefe" opacity="0"/>
    <path id="パス_14" data-name="パス 14" d="M209.66,233.115c10.655.28,18.488,8.591,18.23,19.339-.24,9.968-8.9,17.927-19.2,17.637-10.173-.286-17.984-8.906-17.683-19.514C191.284,240.972,199.948,232.859,209.66,233.115Zm-.207,5.161A13.361,13.361,0,1,0,222.8,251.567,13.274,13.274,0,0,0,209.453,238.276Z" fill="#ef8a3e"/>
    <path id="パス_15" data-name="パス 15" d="M211.994,283.824c0,1.272.054,2.547-.012,3.816-.092,1.771-1.19,2.9-2.656,2.841a2.634,2.634,0,0,1-2.494-2.824c-.057-2.543-.068-5.09.006-7.632a2.574,2.574,0,0,1,2.561-2.743,2.618,2.618,0,0,1,2.58,2.727C212.049,281.277,211.993,282.552,211.994,283.824Z" fill="#f08c41"/>
    <path id="パス_16" data-name="パス 16" d="M206.818,219.812c0-1.271-.045-2.544.011-3.812a2.614,2.614,0,0,1,2.5-2.8,2.512,2.512,0,0,1,2.628,2.644q.129,3.99-.017,7.986a2.344,2.344,0,0,1-2.541,2.5,2.427,2.427,0,0,1-2.547-2.523c-.109-1.322-.023-2.661-.023-3.993Z" fill="#f08c41"/>
    <path id="パス_17" data-name="パス 17" d="M183.785,223.425a12.607,12.607,0,0,1,2.081,1.268c1.8,1.712,3.546,3.476,5.275,5.256,1.256,1.293,1.328,2.784.264,3.853-1.109,1.115-2.512,1.07-3.842-.219a72.656,72.656,0,0,1-5.34-5.44,3.67,3.67,0,0,1-.512-2.924C181.908,224.508,183.017,224.048,183.785,223.425Z" fill="#ef8b40"/>
    <path id="パス_18" data-name="パス 18" d="M192.508,271.418a12.953,12.953,0,0,1-1.332,2.247c-1.705,1.8-3.467,3.557-5.258,5.275-1.321,1.267-2.779,1.288-3.857.165a2.513,2.513,0,0,1,.214-3.719c1.811-1.871,3.591-3.788,5.565-5.475a3.415,3.415,0,0,1,2.756-.508C191.33,269.616,191.825,270.653,192.508,271.418Z" fill="#ef8b40"/>
    <path id="パス_19" data-name="パス 19" d="M237.744,226.029a9.07,9.07,0,0,1-1.028,2.067c-1.839,1.94-3.718,3.848-5.659,5.687a2.421,2.421,0,0,1-3.717-.072,2.481,2.481,0,0,1,.2-3.6c1.824-1.872,3.607-3.8,5.589-5.493a3.449,3.449,0,0,1,2.771-.522C236.631,224.3,237.127,225.338,237.744,226.029Z" fill="#ef8b3f"/>
    <path id="パス_20" data-name="パス 20" d="M229.058,268.722a15.238,15.238,0,0,1,2.288,1.459c1.727,1.624,3.39,3.317,5.045,5.015,1.3,1.339,1.377,2.963.247,4.016s-2.481.939-3.859-.408a70.54,70.54,0,0,1-5.227-5.339,3.831,3.831,0,0,1-.5-2.953C227.212,269.838,228.277,269.378,229.058,268.722Z" fill="#ef8b3f"/>
    <path id="パス_21" data-name="パス 21" d="M177.4,249.3c1.27,0,2.541-.035,3.81.006a2.546,2.546,0,0,1,2.748,2.511,2.454,2.454,0,0,1-2.532,2.556c-2.719.088-5.445.1-8.163-.007a2.531,2.531,0,0,1,.146-5.059C174.735,249.279,176.066,249.3,177.4,249.3Z" fill="#ef8b3e"/>
    <path id="パス_22" data-name="パス 22" d="M241.463,254.408c-1.215,0-2.431.03-3.645-.008-1.788-.055-2.939-1.072-2.961-2.555-.022-1.459,1.16-2.521,2.929-2.542,2.491-.03,4.983-.038,7.473.005,1.745.03,2.715.975,2.725,2.511.01,1.512-.982,2.465-2.693,2.584-.121.008-.243.005-.364.005Z" fill="#ef8a3e"/>
    <path id="パス_23" data-name="パス 23" d="M209.453,238.276A13.361,13.361,0,1,1,196.1,251.563,13.277,13.277,0,0,1,209.453,238.276Z" fill="#fefdfd" opacity="0"/>
  </g>
</svg>
