<svg xmlns="http://www.w3.org/2000/svg" width="216.794" height="104.188" viewBox="0 0 216.794 104.188">
  <g id="icon_day03_05" transform="translate(-1630.799 -598.077)">
    <path id="パス_8" data-name="パス 8" d="M1725.552,685.657h29.929l-7.981-10.974" fill="none" stroke="#bbb" stroke-linecap="round" stroke-linejoin="round" stroke-width="4"/>
    <g id="グループ_34" data-name="グループ 34">
      <path id="パス_236" data-name="パス 236" d="M1734.8,702.077h-104v-104h104Zm-33.141-61.988c.885,0,1.555-.037,2.219.006,5.383.354,8.4,2.71,9.354,7.286,1.211,5.8-.563,9.979-5.566,12.276a26.593,26.593,0,0,1-6.116,1.538c-1.516.289-2.485.95-2.534,2.568a2.413,2.413,0,0,0,2.5,2.552c9.535.707,17.892-7.557,17.134-17.065-.439-5.508-2.518-10.125-7.784-12.729a19.482,19.482,0,0,1-6.2-5.687c-2.969-4.78-7.537-6.377-12.883-6.52a3.785,3.785,0,0,1-2.523-.891c-6.273-7.132-16.743-7.293-24.066-2.222-5.6,3.881-7.678,9.658-8.468,16.074a2.336,2.336,0,0,1-1.612,2.279,12.718,12.718,0,0,0-7.713,13.362c1.135,8.442,7.174,13.564,15.815,13.412,1.979-.034,3.11-.953,3.121-2.534s-1.124-2.43-3.093-2.594a19.427,19.427,0,0,1-4.813-.8c-4.168-1.472-6.418-5.589-5.815-10.225.513-3.94,2.95-6.04,7.718-6.468,1.227-.11,1.258-.646,1.244-1.65a25.554,25.554,0,0,1,2.538-12.182c3.837-7.537,16.741-10.594,22.517-1.3a2.1,2.1,0,0,0,2.534,1.073,15.067,15.067,0,0,1,3.814-.119c4.982.421,7.842,2.947,8.514,7.468C1701.638,637.932,1701.6,638.9,1701.658,640.089Zm-10.418,28.046c0,2.85-.029,5.7.01,8.549.026,1.845,1.006,2.916,2.532,2.916s2.552-1.082,2.564-2.908q.057-8.457,0-16.915c-.011-1.956-1.036-3.034-2.65-2.986-1.553.046-2.426,1.058-2.45,2.978C1691.213,662.557,1691.239,665.346,1691.24,668.135Zm-21.532-.02c0,2.85-.025,5.7.009,8.548.022,1.84.993,2.928,2.506,2.94s2.573-1.063,2.588-2.892q.067-8.548,0-17.1c-.016-1.836-1.076-2.861-2.632-2.825s-2.439,1.051-2.46,2.959C1669.685,662.537,1669.708,665.326,1669.708,668.115Zm10.743,3.115c0,2.849-.019,5.7.006,8.545.017,1.98.96,3.043,2.6,3.022,1.579-.022,2.482-1.032,2.489-2.922q.031-8.454,0-16.908c-.006-1.9-.9-2.9-2.48-2.928-1.637-.026-2.586,1.037-2.6,3.01C1680.431,665.776,1680.45,668.5,1680.451,671.23Z" fill="#fefefe" opacity="0"/>
      <path id="パス_237" data-name="パス 237" d="M1701.658,640.089c-.056-1.186-.02-2.157-.16-3.1-.672-4.521-3.532-7.047-8.514-7.468a15.067,15.067,0,0,0-3.814.119,2.1,2.1,0,0,1-2.534-1.073c-5.776-9.29-18.68-6.233-22.517,1.3a25.554,25.554,0,0,0-2.538,12.182c.014,1-.017,1.54-1.244,1.65-4.768.428-7.205,2.528-7.718,6.468-.6,4.636,1.647,8.753,5.815,10.225a19.427,19.427,0,0,0,4.813.8c1.969.164,3.1,1.017,3.093,2.594s-1.142,2.5-3.121,2.534c-8.641.152-14.68-4.97-15.815-13.412a12.718,12.718,0,0,1,7.713-13.362,2.336,2.336,0,0,0,1.612-2.279c.79-6.416,2.863-12.193,8.468-16.074,7.323-5.071,17.793-4.91,24.066,2.222a3.785,3.785,0,0,0,2.523.891c5.346.143,9.914,1.74,12.883,6.52a19.482,19.482,0,0,0,6.2,5.687c5.266,2.6,7.345,7.221,7.784,12.729.758,9.508-7.6,17.772-17.134,17.065a2.413,2.413,0,0,1-2.5-2.552c.049-1.618,1.018-2.279,2.534-2.568a26.593,26.593,0,0,0,6.116-1.538c5-2.3,6.777-6.476,5.566-12.276-.955-4.576-3.971-6.932-9.354-7.286C1703.213,640.052,1702.543,640.089,1701.658,640.089Z" fill="#77769c"/>
      <path id="パス_238" data-name="パス 238" d="M1691.239,668.135c0-2.789-.026-5.578.009-8.366.024-1.92.9-2.932,2.45-2.978,1.614-.048,2.639,1.03,2.65,2.986q.051,8.457,0,16.915c-.012,1.826-1.045,2.907-2.564,2.908s-2.506-1.071-2.532-2.916C1691.211,673.835,1691.24,670.985,1691.239,668.135Z" fill="#36479a"/>
      <path id="パス_239" data-name="パス 239" d="M1669.708,668.115c0-2.789-.023-5.578.008-8.366.021-1.908.9-2.924,2.46-2.959s2.616.989,2.632,2.825q.075,8.547,0,17.1c-.015,1.829-1.073,2.9-2.588,2.892s-2.484-1.1-2.506-2.94C1669.683,673.814,1669.708,670.965,1669.708,668.115Z" fill="#36479a"/>
      <path id="パス_240" data-name="パス 240" d="M1680.45,671.23c0-2.727-.019-5.454.007-8.181.019-1.973.968-3.036,2.6-3.01,1.584.025,2.474,1.028,2.48,2.928q.03,8.454,0,16.908c-.007,1.89-.91,2.9-2.489,2.922-1.636.021-2.579-1.042-2.6-3.022C1680.432,676.927,1680.451,674.079,1680.45,671.23Z" fill="#349"/>
    </g>
    <g id="グループ_40" data-name="グループ 40">
      <path id="パス_272" data-name="パス 272" d="M1847.593,702.265h-104v-104h104Zm-53.3-28.085c6.632,0,13.265.09,19.893-.053a20.606,20.606,0,0,0,6.219-1.144c6.993-2.433,11-8.128,10.661-15.075-.35-7.187-3.618-13-11.394-14.767-.491-.111-.967-.752-1.244-1.259a35,35,0,0,0-2.115-4.2c-2.995-4.043-7.281-5.4-12.131-5.538a4.062,4.062,0,0,1-2.676-1c-8.69-9.693-24.734-6.009-29.707,4.567a46.377,46.377,0,0,0-2.654,8.84c-.342,1.414-.614,2.387-2.188,3.085-4.651,2.063-6.995,5.975-7.268,10.948a14.527,14.527,0,0,0,14.711,15.591C1781.035,674.245,1787.667,674.185,1794.3,674.18Z" fill="#fefefe" opacity="0"/>
      <path id="パス_273" data-name="パス 273" d="M1794.3,674.182c-6.631,0-13.263.063-19.893-.012a14.527,14.527,0,0,1-14.711-15.591c.273-4.973,2.617-8.885,7.268-10.948,1.574-.7,1.846-1.671,2.188-3.085a46.377,46.377,0,0,1,2.654-8.84c4.973-10.576,21.017-14.26,29.707-4.567a4.062,4.062,0,0,0,2.676,1c4.85.141,9.136,1.495,12.131,5.538a35,35,0,0,1,2.115,4.2c.277.507.753,1.148,1.244,1.259,7.776,1.77,11.044,7.58,11.394,14.767.338,6.947-3.668,12.642-10.661,15.075a20.606,20.606,0,0,1-6.219,1.144C1807.563,674.27,1800.93,674.18,1794.3,674.182Zm-20.826-22.767c-.388.036-.981.075-1.57.149-3.677.456-6.006,2.383-6.808,5.621a9.408,9.408,0,0,0,9.206,11.844q20.158.159,40.32,0c7.43-.061,12.229-5.984,11.05-13.274a8.469,8.469,0,0,0-8.045-7.587c-1.189-.127-2.375-.283-3.675-.439,0-.66.035-1.2-.005-1.742-.324-4.328-2.376-7.259-6.1-8.1a23.317,23.317,0,0,0-6.117-.342c-1.276.055-2.123-.039-2.856-1.252a11.1,11.1,0,0,0-6.97-5.215,13.87,13.87,0,0,0-16.875,10.358C1774.219,644.633,1773.988,647.976,1773.472,651.415Z" fill="#a1a1a1"/>
      <path id="パス_274" data-name="パス 274" d="M1773.472,651.415c.516-3.439.747-6.782,1.552-9.982a13.87,13.87,0,0,1,16.875-10.358,11.1,11.1,0,0,1,6.97,5.215c.733,1.213,1.58,1.307,2.856,1.252a23.317,23.317,0,0,1,6.117.342c3.727.845,5.779,3.776,6.1,8.1.04.538.005,1.082.005,1.742,1.3.156,2.486.312,3.675.439a8.469,8.469,0,0,1,8.045,7.587c1.179,7.29-3.62,13.213-11.05,13.274q-20.158.166-40.32,0a9.408,9.408,0,0,1-9.206-11.844c.8-3.238,3.131-5.165,6.808-5.621C1772.491,651.49,1773.084,651.451,1773.472,651.415Z" fill="#fefefe" opacity="0"/>
    </g>
  </g>
</svg>
