<svg xmlns="http://www.w3.org/2000/svg" width="217.184" height="104" viewBox="0 0 217.184 104">
  <g id="icon_day01_04" transform="translate(-411.843 -455.23)">
    <path id="パス_1" data-name="パス 1" d="M506.736,543.994h29.929l-7.981-10.974" fill="none" stroke="#bbb" stroke-linecap="round" stroke-linejoin="round" stroke-width="4"/>
    <g id="グループ_12" data-name="グループ 12">
      <path id="パス_70" data-name="パス 70" d="M515.843,559.23h-104v-104h104Zm-51.789-70.578c-9.712-.256-18.376,7.857-18.649,17.462-.3,10.608,7.51,19.228,17.683,19.514,10.294.29,18.956-7.669,19.2-17.636C482.542,497.243,474.708,488.932,464.054,488.652Zm2.333,50.71c0-1.273.056-2.548-.014-3.816a2.618,2.618,0,0,0-2.58-2.727,2.575,2.575,0,0,0-2.562,2.743c-.073,2.542-.062,5.089,0,7.632a2.634,2.634,0,0,0,2.494,2.824c1.466.057,2.564-1.07,2.656-2.841C466.442,541.908,466.389,540.634,466.387,539.362Zm-5.175-64.012h.01c0,1.331-.086,2.67.022,3.992a2.428,2.428,0,0,0,2.548,2.523,2.344,2.344,0,0,0,2.541-2.5c.1-2.659.1-5.326.017-7.986a2.51,2.51,0,0,0-2.628-2.643,2.613,2.613,0,0,0-2.5,2.8C461.167,472.8,461.212,474.079,461.212,475.35Zm-23.034,3.612c-.768.623-1.876,1.083-2.073,1.795a3.665,3.665,0,0,0,.512,2.923,72.841,72.841,0,0,0,5.339,5.44c1.331,1.289,2.734,1.335,3.843.219,1.064-1.069.992-2.56-.264-3.852-1.729-1.781-3.478-3.544-5.275-5.257A12.577,12.577,0,0,0,438.178,478.962Zm8.723,47.993c-.682-.765-1.178-1.8-1.912-2.014a3.406,3.406,0,0,0-2.755.508c-1.974,1.686-3.755,3.6-5.565,5.474a2.513,2.513,0,0,0-.214,3.719c1.078,1.123,2.536,1.1,3.857-.165,1.791-1.718,3.553-3.471,5.258-5.275A12.958,12.958,0,0,0,446.9,526.955Zm45.236-45.389c-.617-.691-1.112-1.731-1.843-1.937a3.453,3.453,0,0,0-2.771.522c-1.982,1.693-3.765,3.621-5.589,5.493a2.48,2.48,0,0,0-.2,3.6,2.42,2.42,0,0,0,3.717.072c1.941-1.839,3.819-3.746,5.659-5.687A9.074,9.074,0,0,0,492.137,481.566Zm-8.685,42.693c-.781.656-1.846,1.116-2.005,1.79a3.831,3.831,0,0,0,.5,2.953,70.76,70.76,0,0,0,5.228,5.339c1.377,1.347,2.725,1.463,3.858.408s1.057-2.676-.247-4.015c-1.654-1.7-3.318-3.392-5.044-5.016A15.317,15.317,0,0,0,483.452,524.259ZM431.79,504.837c-1.331,0-2.662-.021-3.992.006a2.531,2.531,0,0,0-.145,5.059c2.718.1,5.444.1,8.163.007a2.454,2.454,0,0,0,2.532-2.556,2.546,2.546,0,0,0-2.748-2.511C434.331,504.8,433.06,504.834,431.79,504.837Zm64.067,5.108q1.732,0,3.464,0c.121,0,.243,0,.364-.005,1.71-.119,2.7-1.071,2.693-2.583-.01-1.537-.98-2.481-2.725-2.512-2.49-.043-4.982-.035-7.473-.005-1.769.021-2.951,1.083-2.929,2.543.022,1.482,1.173,2.5,2.961,2.554C493.426,509.975,494.642,509.945,495.857,509.945Z" fill="#fefefe" opacity="0"/>
      <path id="パス_71" data-name="パス 71" d="M464.054,488.652c10.654.28,18.488,8.591,18.23,19.34-.24,9.967-8.9,17.926-19.2,17.636-10.173-.286-17.984-8.906-17.683-19.514C445.678,496.509,454.342,488.4,464.054,488.652Zm-.207,5.161A13.361,13.361,0,1,0,477.194,507.1,13.275,13.275,0,0,0,463.847,493.813Z" fill="#ef8a3e"/>
      <path id="パス_72" data-name="パス 72" d="M466.388,539.362c0,1.272.054,2.546-.012,3.815-.092,1.771-1.19,2.9-2.656,2.841a2.634,2.634,0,0,1-2.494-2.824c-.057-2.543-.068-5.09,0-7.632a2.575,2.575,0,0,1,2.562-2.743,2.618,2.618,0,0,1,2.58,2.727C466.443,536.814,466.387,538.089,466.388,539.362Z" fill="#f08c41"/>
      <path id="パス_73" data-name="パス 73" d="M461.212,475.35c0-1.271-.045-2.545.011-3.813a2.613,2.613,0,0,1,2.5-2.8,2.51,2.51,0,0,1,2.628,2.643c.086,2.66.078,5.327-.017,7.986a2.344,2.344,0,0,1-2.541,2.5,2.428,2.428,0,0,1-2.548-2.523c-.108-1.322-.022-2.661-.022-3.992Z" fill="#f08c41"/>
      <path id="パス_74" data-name="パス 74" d="M438.178,478.962a12.577,12.577,0,0,1,2.082,1.268c1.8,1.713,3.546,3.476,5.275,5.257,1.256,1.292,1.328,2.783.264,3.852-1.109,1.116-2.512,1.07-3.843-.219a72.841,72.841,0,0,1-5.339-5.44,3.665,3.665,0,0,1-.512-2.923C436.3,480.045,437.41,479.585,438.178,478.962Z" fill="#ef8b40"/>
      <path id="パス_75" data-name="パス 75" d="M446.9,526.955a12.958,12.958,0,0,1-1.331,2.247c-1.705,1.8-3.467,3.557-5.258,5.275-1.321,1.268-2.779,1.288-3.857.165a2.513,2.513,0,0,1,.214-3.719c1.81-1.871,3.591-3.788,5.565-5.474a3.406,3.406,0,0,1,2.755-.508C445.723,525.154,446.219,526.19,446.9,526.955Z" fill="#ef8b40"/>
      <path id="パス_76" data-name="パス 76" d="M492.137,481.566a9.074,9.074,0,0,1-1.027,2.067c-1.84,1.941-3.718,3.848-5.659,5.687a2.42,2.42,0,0,1-3.717-.072,2.48,2.48,0,0,1,.2-3.6c1.824-1.872,3.607-3.8,5.589-5.493a3.453,3.453,0,0,1,2.771-.522C491.025,479.835,491.52,480.875,492.137,481.566Z" fill="#ef8b3f"/>
      <path id="パス_77" data-name="パス 77" d="M483.452,524.259a15.317,15.317,0,0,1,2.288,1.459c1.726,1.624,3.39,3.317,5.044,5.016,1.3,1.339,1.378,2.962.247,4.015s-2.481.939-3.858-.408A70.76,70.76,0,0,1,481.945,529a3.831,3.831,0,0,1-.5-2.953C481.606,525.375,482.671,524.915,483.452,524.259Z" fill="#ef8b3f"/>
      <path id="パス_78" data-name="パス 78" d="M431.79,504.836c1.27,0,2.541-.035,3.81.006a2.546,2.546,0,0,1,2.748,2.511,2.454,2.454,0,0,1-2.532,2.556c-2.719.088-5.445.1-8.163-.007a2.531,2.531,0,0,1,.145-5.059C429.128,504.816,430.459,504.837,431.79,504.836Z" fill="#ef8b3e"/>
      <path id="パス_79" data-name="パス 79" d="M495.857,509.945c-1.215,0-2.431.03-3.645-.008-1.788-.055-2.939-1.072-2.961-2.554-.022-1.46,1.16-2.522,2.929-2.543,2.491-.03,4.983-.038,7.473.005,1.745.031,2.715.975,2.725,2.512.01,1.512-.983,2.464-2.693,2.583-.121.008-.243.005-.364.005Q497.588,509.947,495.857,509.945Z" fill="#ef8a3e"/>
      <path id="パス_80" data-name="パス 80" d="M463.847,493.813A13.361,13.361,0,1,1,450.5,507.1,13.278,13.278,0,0,1,463.847,493.813Z" fill="#fefdfd" opacity="0"/>
    </g>
    <g id="グループ_13" data-name="グループ 13">
      <path id="パス_81" data-name="パス 81" d="M629.027,559.23h-104v-104h104Zm-53.294-28.085c6.631,0,13.264.09,19.892-.053a20.594,20.594,0,0,0,6.219-1.144c6.993-2.433,11-8.128,10.661-15.075-.35-7.187-3.618-13-11.394-14.767-.491-.111-.966-.752-1.243-1.259a35.175,35.175,0,0,0-2.116-4.2c-2.995-4.043-7.28-5.4-12.131-5.538a4.062,4.062,0,0,1-2.676-1c-8.69-9.693-24.733-6.009-29.706,4.567a46.3,46.3,0,0,0-2.654,8.84c-.343,1.414-.615,2.387-2.189,3.085-4.651,2.063-6.995,5.975-7.267,10.948a14.525,14.525,0,0,0,14.71,15.591C562.469,531.21,569.1,531.15,575.733,531.145Z" fill="#fefefe" opacity="0"/>
      <path id="パス_82" data-name="パス 82" d="M575.733,531.147c-6.632,0-13.264.063-19.894-.012a14.525,14.525,0,0,1-14.71-15.591c.272-4.973,2.616-8.885,7.267-10.948,1.574-.7,1.846-1.671,2.189-3.085a46.3,46.3,0,0,1,2.654-8.84c4.973-10.576,21.016-14.26,29.706-4.567a4.062,4.062,0,0,0,2.676,1c4.851.141,9.136,1.495,12.131,5.538a35.175,35.175,0,0,1,2.116,4.2c.277.507.752,1.148,1.243,1.259,7.776,1.77,11.044,7.58,11.394,14.767.339,6.947-3.668,12.642-10.661,15.075a20.594,20.594,0,0,1-6.219,1.144C589,531.235,582.364,531.145,575.733,531.147ZM554.906,508.38c-.388.036-.981.075-1.57.149-3.677.456-6.005,2.383-6.808,5.621a9.408,9.408,0,0,0,9.206,11.844q20.16.159,40.32,0c7.431-.061,12.229-5.984,11.051-13.274a8.471,8.471,0,0,0-8.046-7.587c-1.189-.127-2.374-.283-3.675-.439,0-.66.035-1.2,0-1.742-.324-4.328-2.376-7.259-6.1-8.1a23.311,23.311,0,0,0-6.116-.342c-1.277.055-2.123-.039-2.857-1.252a11.1,11.1,0,0,0-6.97-5.214A13.868,13.868,0,0,0,556.458,498.4C555.653,501.6,555.422,504.941,554.906,508.38Z" fill="#a1a1a1"/>
      <path id="パス_83" data-name="パス 83" d="M554.906,508.38c.516-3.439.747-6.782,1.552-9.982a13.868,13.868,0,0,1,16.875-10.357,11.1,11.1,0,0,1,6.97,5.214c.734,1.213,1.58,1.307,2.857,1.252a23.311,23.311,0,0,1,6.116.342c3.727.845,5.779,3.776,6.1,8.1.04.538,0,1.082,0,1.742,1.3.156,2.486.312,3.675.439a8.471,8.471,0,0,1,8.046,7.587c1.178,7.29-3.62,13.213-11.051,13.274q-20.159.167-40.32,0a9.408,9.408,0,0,1-9.206-11.844c.8-3.238,3.131-5.165,6.808-5.621C553.925,508.455,554.518,508.416,554.906,508.38Z" fill="#fefefe" opacity="0"/>
    </g>
  </g>
</svg>
