<svg xmlns="http://www.w3.org/2000/svg" width="217.059" height="104.144" viewBox="0 0 217.059 104.144">
  <g id="icon_day02_03" transform="translate(-787.87 -744.583)">
    <line id="線_4" data-name="線 4" y2="53.207" transform="translate(896.527 769.457)" fill="none" stroke="#bbb" stroke-linecap="round" stroke-miterlimit="10" stroke-width="4"/>
    <g id="グループ_7" data-name="グループ 7">
      <path id="パス_55" data-name="パス 55" d="M891.87,848.583h-104v-104h104ZM838.575,820.5c6.632,0,13.265.09,19.893-.053a20.606,20.606,0,0,0,6.219-1.144c6.993-2.433,11-8.128,10.661-15.074-.35-7.188-3.618-13-11.394-14.767-.491-.112-.967-.753-1.244-1.26a35.023,35.023,0,0,0-2.115-4.2c-2.995-4.043-7.28-5.4-12.131-5.538a4.062,4.062,0,0,1-2.676-1c-8.69-9.693-24.734-6.009-29.706,4.567a46.229,46.229,0,0,0-2.654,8.84c-.343,1.414-.615,2.387-2.189,3.085-4.651,2.063-6.995,5.975-7.268,10.948a14.527,14.527,0,0,0,14.711,15.591C825.312,820.563,831.944,820.5,838.575,820.5Z" fill="#fefefe" opacity="0"/>
      <path id="パス_56" data-name="パス 56" d="M838.575,820.5c-6.631,0-13.263.063-19.893-.012A14.527,14.527,0,0,1,803.971,804.9c.273-4.973,2.617-8.885,7.268-10.948,1.574-.7,1.846-1.671,2.189-3.085a46.229,46.229,0,0,1,2.654-8.84c4.972-10.576,21.016-14.26,29.706-4.567a4.062,4.062,0,0,0,2.676,1c4.851.141,9.136,1.495,12.131,5.538a35.023,35.023,0,0,1,2.115,4.2c.277.507.753,1.148,1.244,1.26,7.776,1.769,11.044,7.579,11.394,14.767.339,6.946-3.668,12.641-10.661,15.074a20.606,20.606,0,0,1-6.219,1.144C851.84,820.588,845.207,820.5,838.575,820.5Zm-20.826-22.766c-.388.035-.981.074-1.57.148-3.677.457-6.006,2.383-6.808,5.621a9.408,9.408,0,0,0,9.206,11.844q20.158.159,40.32,0c7.431-.061,12.229-5.984,11.051-13.274a8.471,8.471,0,0,0-8.046-7.587c-1.189-.127-2.375-.283-3.675-.439,0-.66.035-1.2-.005-1.742-.324-4.328-2.376-7.259-6.1-8.1A23.314,23.314,0,0,0,846,783.86c-1.276.055-2.123-.039-2.856-1.252a11.1,11.1,0,0,0-6.97-5.214A13.868,13.868,0,0,0,819.3,787.751C818.5,790.951,818.265,794.295,817.749,797.734Z" fill="#a1a1a1"/>
      <path id="パス_57" data-name="パス 57" d="M817.749,797.734c.516-3.439.747-6.783,1.552-9.983a13.868,13.868,0,0,1,16.875-10.357,11.1,11.1,0,0,1,6.97,5.214c.733,1.213,1.58,1.307,2.856,1.252a23.314,23.314,0,0,1,6.117.342c3.727.845,5.779,3.776,6.1,8.1.04.538.005,1.082.005,1.742,1.3.156,2.486.312,3.675.439a8.471,8.471,0,0,1,8.046,7.587c1.178,7.29-3.62,13.213-11.051,13.274q-20.158.166-40.32,0a9.408,9.408,0,0,1-9.206-11.844c.8-3.238,3.131-5.164,6.808-5.621C816.768,797.808,817.361,797.769,817.749,797.734Z" fill="#fefefe" opacity="0"/>
    </g>
    <g id="グループ_38" data-name="グループ 38">
      <path id="パス_256" data-name="パス 256" d="M900.929,744.727h104v104h-104Zm70.931,42.384c.907.073,1.8.163,2.7.214,4.555.257,7.314,2.253,8.482,6.148,1.546,5.156.556,9.483-3.155,11.953a30.206,30.206,0,0,1-6.267,2.739c-1.572.586-2.482,1.681-2.191,3.059a2.716,2.716,0,0,0,3.393,1.945A18.316,18.316,0,0,0,984.2,808.6c4.587-4.255,5.413-9.553,4.072-15.387a13.36,13.36,0,0,0-10.46-10.7,2.212,2.212,0,0,1-1.447-1.025c-2.332-7.326-7.746-9.972-14.94-10.1a3.292,3.292,0,0,1-2.147-.963c-8.46-9.35-22.913-6.113-28.643,2.6a26.821,26.821,0,0,0-3.842,11.279c-.106.758-.6,1.881-1.184,2.09-7.862,2.831-10.593,12.949-5.773,20.364a14.249,14.249,0,0,0,11.945,6.6,2.334,2.334,0,0,0,2.678-2.162c.215-1.6-.733-2.481-2.2-2.87a10.718,10.718,0,0,0-1.086-.112c-3.912-.613-6.771-2.553-8.065-6.442-1.834-5.511.912-10.056,6.6-10.939.643-.1,1.288-.178,1.952-.268a29.706,29.706,0,0,1,1.786-11.9c2.088-5.272,6.191-8.049,11.651-8.667,5.025-.569,8.964,1.494,11.78,5.756a2.961,2.961,0,0,0,2.032.991c1.8.146,3.638-.089,5.432.1a7.715,7.715,0,0,1,7.075,6.545C971.655,784.569,971.709,785.782,971.86,787.111Zm-34.848,23.378a3.74,3.74,0,0,0,3.729,3.872,3.957,3.957,0,0,0,3.829-3.861,3.863,3.863,0,0,0-3.728-3.737A3.645,3.645,0,0,0,937.012,810.489Zm23.7.1a3.719,3.719,0,0,0,3.817,3.773,3.943,3.943,0,0,0,3.72-3.771,3.825,3.825,0,0,0-3.81-3.827A3.649,3.649,0,0,0,960.716,810.588Zm-8.063-1.652a3.757,3.757,0,0,0-3.876,3.742,3.927,3.927,0,0,0,3.841,3.849,3.888,3.888,0,0,0,3.763-3.719A3.733,3.733,0,0,0,952.653,808.936Zm0,19.363a3.729,3.729,0,0,0,3.731-3.867,3.8,3.8,0,0,0-7.6.113A3.789,3.789,0,0,0,952.65,828.3ZM940.8,826.13a3.823,3.823,0,0,0,3.77-3.664,3.952,3.952,0,0,0-3.958-3.907,3.837,3.837,0,0,0-3.6,3.826A3.607,3.607,0,0,0,940.8,826.13Zm23.579,0a3.782,3.782,0,0,0,3.87-3.738,3.956,3.956,0,0,0-3.845-3.833,3.9,3.9,0,0,0-3.753,3.718A3.732,3.732,0,0,0,964.379,826.13Z" fill="#fefefe" opacity="0"/>
      <path id="パス_257" data-name="パス 257" d="M971.86,787.111c-.151-1.329-.2-2.542-.437-3.72a7.715,7.715,0,0,0-7.075-6.545c-1.794-.189-3.63.046-5.432-.1a2.961,2.961,0,0,1-2.032-.991c-2.816-4.262-6.755-6.325-11.78-5.756-5.46.618-9.563,3.395-11.651,8.667a29.706,29.706,0,0,0-1.786,11.9c-.664.09-1.309.168-1.952.268-5.691.883-8.437,5.428-6.6,10.939,1.294,3.889,4.153,5.829,8.065,6.442a10.718,10.718,0,0,1,1.086.112c1.462.389,2.41,1.268,2.2,2.87a2.334,2.334,0,0,1-2.678,2.162,14.249,14.249,0,0,1-11.945-6.6c-4.82-7.415-2.089-17.533,5.773-20.364.584-.209,1.078-1.332,1.184-2.09a26.821,26.821,0,0,1,3.842-11.279c5.73-8.718,20.183-11.955,28.643-2.6a3.292,3.292,0,0,0,2.147.963c7.194.131,12.608,2.777,14.94,10.1a2.212,2.212,0,0,0,1.447,1.025,13.36,13.36,0,0,1,10.46,10.7c1.341,5.834.515,11.132-4.072,15.387a18.316,18.316,0,0,1-9.373,4.566,2.716,2.716,0,0,1-3.393-1.945c-.291-1.378.619-2.473,2.191-3.059a30.206,30.206,0,0,0,6.267-2.739c3.711-2.47,4.7-6.8,3.155-11.953-1.168-3.9-3.927-5.891-8.482-6.148C973.665,787.274,972.767,787.184,971.86,787.111Z" fill="#8d8d8d"/>
      <path id="パス_258" data-name="パス 258" d="M937.012,810.489a3.645,3.645,0,0,1,3.83-3.726,3.863,3.863,0,0,1,3.728,3.737,3.957,3.957,0,0,1-3.829,3.861A3.74,3.74,0,0,1,937.012,810.489Z" fill="#8e8e8e"/>
      <path id="パス_259" data-name="パス 259" d="M960.716,810.588a3.649,3.649,0,0,1,3.727-3.825,3.825,3.825,0,0,1,3.81,3.827,3.943,3.943,0,0,1-3.72,3.771A3.719,3.719,0,0,1,960.716,810.588Z" fill="#8e8e8e"/>
      <path id="パス_260" data-name="パス 260" d="M952.653,808.936a3.733,3.733,0,0,1,3.728,3.872,3.888,3.888,0,0,1-3.763,3.719,3.927,3.927,0,0,1-3.841-3.849A3.757,3.757,0,0,1,952.653,808.936Z" fill="#8e8e8e"/>
      <path id="パス_261" data-name="パス 261" d="M952.65,828.3a3.789,3.789,0,0,1-3.874-3.754,3.8,3.8,0,0,1,7.6-.113A3.729,3.729,0,0,1,952.65,828.3Z" fill="#8e8e8e"/>
      <path id="パス_262" data-name="パス 262" d="M940.8,826.13a3.607,3.607,0,0,1-3.788-3.745,3.837,3.837,0,0,1,3.6-3.826,3.952,3.952,0,0,1,3.958,3.907A3.823,3.823,0,0,1,940.8,826.13Z" fill="#8e8e8e"/>
      <path id="パス_263" data-name="パス 263" d="M964.379,826.13a3.732,3.732,0,0,1-3.728-3.853,3.9,3.9,0,0,1,3.753-3.718,3.956,3.956,0,0,1,3.845,3.833A3.782,3.782,0,0,1,964.379,826.13Z" fill="#8e8e8e"/>
    </g>
  </g>
</svg>
