<svg xmlns="http://www.w3.org/2000/svg" width="216.789" height="104" viewBox="0 0 216.789 104">
  <g id="icon_day01_05" transform="translate(-411.843 -598.077)">
    <path id="パス_2" data-name="パス 2" d="M506.736,685.657h29.929l-7.981-10.974" fill="none" stroke="#bbb" stroke-linecap="round" stroke-linejoin="round" stroke-width="4"/>
    <g id="グループ_17" data-name="グループ 17">
      <path id="パス_105" data-name="パス 105" d="M515.843,702.077h-104v-104h104ZM464.054,631.5c-9.712-.256-18.376,7.857-18.649,17.462-.3,10.608,7.51,19.228,17.683,19.514,10.294.29,18.956-7.669,19.2-17.636C482.542,640.09,474.708,631.78,464.054,631.5Zm2.333,50.71c0-1.273.056-2.548-.014-3.816a2.618,2.618,0,0,0-2.58-2.727,2.575,2.575,0,0,0-2.562,2.743c-.073,2.542-.062,5.089,0,7.632a2.634,2.634,0,0,0,2.494,2.824c1.466.057,2.564-1.07,2.656-2.841C466.442,684.755,466.389,683.481,466.387,682.209ZM461.212,618.2h.01c0,1.331-.086,2.67.022,3.992a2.428,2.428,0,0,0,2.548,2.523,2.344,2.344,0,0,0,2.541-2.5c.1-2.659.1-5.326.017-7.986a2.51,2.51,0,0,0-2.628-2.643,2.613,2.613,0,0,0-2.5,2.8C461.167,615.652,461.212,616.926,461.212,618.2Zm-23.034,3.612c-.768.623-1.876,1.083-2.073,1.795a3.664,3.664,0,0,0,.512,2.923,72.829,72.829,0,0,0,5.339,5.44c1.331,1.289,2.734,1.335,3.843.219,1.064-1.069.992-2.56-.264-3.852-1.729-1.781-3.478-3.544-5.275-5.257A12.575,12.575,0,0,0,438.178,621.809ZM446.9,669.8c-.682-.765-1.178-1.8-1.912-2.014a3.406,3.406,0,0,0-2.755.508c-1.974,1.686-3.755,3.6-5.565,5.474a2.513,2.513,0,0,0-.214,3.719c1.078,1.123,2.536,1.1,3.857-.165,1.791-1.718,3.553-3.471,5.258-5.275A12.958,12.958,0,0,0,446.9,669.8Zm45.236-45.389c-.617-.691-1.112-1.731-1.843-1.936a3.449,3.449,0,0,0-2.771.521c-1.982,1.693-3.765,3.621-5.589,5.493a2.48,2.48,0,0,0-.2,3.6,2.42,2.42,0,0,0,3.717.072c1.941-1.839,3.819-3.746,5.659-5.687A9.053,9.053,0,0,0,492.137,624.413Zm-8.685,42.693c-.781.657-1.846,1.116-2.005,1.79a3.831,3.831,0,0,0,.5,2.953,70.749,70.749,0,0,0,5.228,5.339c1.377,1.347,2.725,1.463,3.858.408s1.057-2.676-.247-4.015c-1.654-1.7-3.318-3.392-5.044-5.016A15.317,15.317,0,0,0,483.452,667.106ZM431.79,647.684c-1.331,0-2.662-.021-3.992.006a2.531,2.531,0,0,0-.145,5.059c2.718.1,5.444.095,8.163.007a2.454,2.454,0,0,0,2.532-2.556,2.546,2.546,0,0,0-2.748-2.511C434.331,647.648,433.06,647.681,431.79,647.684Zm64.067,5.108q1.732,0,3.464,0c.121,0,.243,0,.364-.005,1.71-.119,2.7-1.071,2.693-2.583-.01-1.537-.98-2.481-2.725-2.512-2.49-.043-4.982-.035-7.473-.005-1.769.021-2.951,1.083-2.929,2.543.022,1.482,1.173,2.5,2.961,2.554C493.426,652.822,494.642,652.792,495.857,652.792Z" fill="#fefefe" opacity="0"/>
      <path id="パス_106" data-name="パス 106" d="M464.054,631.5c10.654.281,18.488,8.591,18.23,19.34-.24,9.967-8.9,17.926-19.2,17.636-10.173-.286-17.984-8.906-17.683-19.514C445.678,639.356,454.342,631.243,464.054,631.5Zm-.207,5.161a13.361,13.361,0,1,0,13.347,13.291A13.275,13.275,0,0,0,463.847,636.66Z" fill="#ef8a3e"/>
      <path id="パス_107" data-name="パス 107" d="M466.388,682.209c0,1.272.054,2.546-.012,3.815-.092,1.771-1.19,2.9-2.656,2.841a2.634,2.634,0,0,1-2.494-2.824c-.057-2.543-.068-5.09,0-7.632a2.575,2.575,0,0,1,2.562-2.743,2.618,2.618,0,0,1,2.58,2.727C466.443,679.661,466.387,680.936,466.388,682.209Z" fill="#f08c41"/>
      <path id="パス_108" data-name="パス 108" d="M461.212,618.2c0-1.271-.045-2.545.011-3.813a2.613,2.613,0,0,1,2.5-2.8,2.51,2.51,0,0,1,2.628,2.643c.086,2.66.078,5.327-.017,7.986a2.344,2.344,0,0,1-2.541,2.5,2.428,2.428,0,0,1-2.548-2.523c-.108-1.322-.022-2.661-.022-3.992Z" fill="#f08c41"/>
      <path id="パス_109" data-name="パス 109" d="M438.178,621.809a12.575,12.575,0,0,1,2.082,1.268c1.8,1.713,3.546,3.476,5.275,5.257,1.256,1.292,1.328,2.783.264,3.852-1.109,1.116-2.512,1.07-3.843-.219a72.829,72.829,0,0,1-5.339-5.44,3.664,3.664,0,0,1-.512-2.923C436.3,622.892,437.41,622.432,438.178,621.809Z" fill="#ef8b40"/>
      <path id="パス_110" data-name="パス 110" d="M446.9,669.8a12.958,12.958,0,0,1-1.331,2.247c-1.705,1.8-3.467,3.557-5.258,5.275-1.321,1.268-2.779,1.288-3.857.165a2.513,2.513,0,0,1,.214-3.719c1.81-1.871,3.591-3.788,5.565-5.474a3.406,3.406,0,0,1,2.755-.508C445.723,668,446.219,669.037,446.9,669.8Z" fill="#ef8b40"/>
      <path id="パス_111" data-name="パス 111" d="M492.137,624.413a9.053,9.053,0,0,1-1.027,2.067c-1.84,1.941-3.718,3.848-5.659,5.687a2.42,2.42,0,0,1-3.717-.072,2.48,2.48,0,0,1,.2-3.6c1.824-1.872,3.607-3.8,5.589-5.493a3.449,3.449,0,0,1,2.771-.521C491.025,622.682,491.52,623.722,492.137,624.413Z" fill="#ef8b3f"/>
      <path id="パス_112" data-name="パス 112" d="M483.452,667.106a15.317,15.317,0,0,1,2.288,1.459c1.726,1.624,3.39,3.317,5.044,5.016,1.3,1.339,1.378,2.962.247,4.015s-2.481.939-3.858-.408a70.749,70.749,0,0,1-5.228-5.339,3.831,3.831,0,0,1-.5-2.953C481.606,668.222,482.671,667.763,483.452,667.106Z" fill="#ef8b3f"/>
      <path id="パス_113" data-name="パス 113" d="M431.79,647.683c1.27,0,2.541-.035,3.81.006a2.546,2.546,0,0,1,2.748,2.511,2.454,2.454,0,0,1-2.532,2.556c-2.719.088-5.445.1-8.163-.007a2.531,2.531,0,0,1,.145-5.059C429.128,647.663,430.459,647.684,431.79,647.683Z" fill="#ef8b3e"/>
      <path id="パス_114" data-name="パス 114" d="M495.857,652.792c-1.215,0-2.431.03-3.645-.008-1.788-.055-2.939-1.072-2.961-2.554-.022-1.46,1.16-2.522,2.929-2.543,2.491-.03,4.983-.038,7.473.005,1.745.031,2.715.975,2.725,2.512.01,1.512-.983,2.464-2.693,2.583-.121.008-.243.005-.364.005Q497.588,652.794,495.857,652.792Z" fill="#ef8a3e"/>
      <path id="パス_115" data-name="パス 115" d="M463.847,636.66A13.361,13.361,0,1,1,450.5,649.947,13.278,13.278,0,0,1,463.847,636.66Z" fill="#fefdfd" opacity="0"/>
    </g>
    <g id="グループ_18" data-name="グループ 18">
      <path id="パス_116" data-name="パス 116" d="M628.632,702.077h-104v-104h104ZM595.49,640.089c.886,0,1.556-.037,2.22.006,5.383.354,8.4,2.71,9.354,7.286,1.211,5.8-.563,9.979-5.567,12.276a26.585,26.585,0,0,1-6.115,1.538c-1.517.289-2.486.95-2.534,2.568a2.413,2.413,0,0,0,2.5,2.552c9.534.707,17.891-7.557,17.134-17.065-.439-5.508-2.519-10.125-7.784-12.729a19.48,19.48,0,0,1-6.2-5.687c-2.969-4.78-7.537-6.377-12.883-6.52a3.789,3.789,0,0,1-2.524-.891c-6.273-7.132-16.742-7.293-24.065-2.222-5.605,3.881-7.678,9.658-8.468,16.074a2.337,2.337,0,0,1-1.612,2.279,12.717,12.717,0,0,0-7.713,13.362c1.135,8.442,7.174,13.564,15.814,13.412,1.979-.034,3.111-.953,3.122-2.534s-1.124-2.43-3.094-2.594a19.426,19.426,0,0,1-4.812-.8c-4.169-1.472-6.418-5.589-5.815-10.225.512-3.94,2.949-6.04,7.718-6.468,1.226-.11,1.258-.646,1.244-1.65a25.554,25.554,0,0,1,2.537-12.182c3.838-7.537,16.742-10.594,22.518-1.3A2.1,2.1,0,0,0,583,629.639a15.067,15.067,0,0,1,3.814-.119c4.982.421,7.842,2.947,8.513,7.468C595.471,637.932,595.434,638.9,595.49,640.089Zm-10.417,28.046c0,2.85-.03,5.7.01,8.549.026,1.845,1.006,2.916,2.532,2.916s2.552-1.082,2.564-2.908q.057-8.457,0-16.915c-.012-1.956-1.036-3.034-2.651-2.986-1.552.046-2.426,1.058-2.45,2.978C585.046,662.557,585.071,665.346,585.073,668.135Zm-21.532-.02c0,2.85-.025,5.7.009,8.548.022,1.84.993,2.928,2.506,2.94s2.573-1.063,2.587-2.892q.069-8.548,0-17.1c-.016-1.836-1.076-2.861-2.632-2.825s-2.439,1.051-2.46,2.959C563.518,662.537,563.541,665.326,563.541,668.115Zm10.742,3.115c0,2.849-.018,5.7.007,8.545.017,1.98.96,3.043,2.6,3.022,1.579-.022,2.482-1.032,2.489-2.922q.031-8.454,0-16.908c-.007-1.9-.9-2.9-2.48-2.928-1.638-.026-2.587,1.037-2.605,3.01C574.264,665.776,574.283,668.5,574.283,671.23Z" fill="#fefefe" opacity="0"/>
      <path id="パス_117" data-name="パス 117" d="M595.49,640.089c-.056-1.186-.019-2.157-.16-3.1-.671-4.521-3.531-7.047-8.513-7.468a15.067,15.067,0,0,0-3.814.119,2.1,2.1,0,0,1-2.534-1.073c-5.776-9.29-18.68-6.233-22.518,1.3a25.554,25.554,0,0,0-2.537,12.182c.014,1-.018,1.54-1.244,1.65-4.769.428-7.206,2.528-7.718,6.468-.6,4.636,1.646,8.753,5.815,10.225a19.426,19.426,0,0,0,4.812.8c1.97.164,3.1,1.017,3.094,2.594s-1.143,2.5-3.122,2.534c-8.64.152-14.679-4.97-15.814-13.412a12.717,12.717,0,0,1,7.713-13.362,2.337,2.337,0,0,0,1.612-2.279c.79-6.416,2.863-12.193,8.468-16.074,7.323-5.071,17.792-4.91,24.065,2.222a3.789,3.789,0,0,0,2.524.891c5.346.143,9.914,1.74,12.883,6.52a19.48,19.48,0,0,0,6.2,5.687c5.265,2.6,7.345,7.221,7.784,12.729.757,9.508-7.6,17.772-17.134,17.065a2.413,2.413,0,0,1-2.5-2.552c.048-1.618,1.017-2.279,2.534-2.568a26.585,26.585,0,0,0,6.115-1.538c5-2.3,6.778-6.476,5.567-12.276-.955-4.576-3.971-6.932-9.354-7.286C597.046,640.052,596.376,640.089,595.49,640.089Z" fill="#77769c"/>
      <path id="パス_118" data-name="パス 118" d="M585.072,668.135c0-2.789-.026-5.578.008-8.366.024-1.92.9-2.932,2.45-2.978,1.615-.048,2.639,1.03,2.651,2.986q.051,8.457,0,16.915c-.012,1.826-1.045,2.907-2.564,2.908s-2.506-1.071-2.532-2.916C585.043,673.835,585.073,670.985,585.072,668.135Z" fill="#36479a"/>
      <path id="パス_119" data-name="パス 119" d="M563.541,668.115c0-2.789-.023-5.578.008-8.366.021-1.908.9-2.924,2.46-2.959s2.616.989,2.632,2.825q.075,8.547,0,17.1c-.014,1.829-1.073,2.9-2.587,2.892s-2.484-1.1-2.506-2.94C563.516,673.814,563.541,670.965,563.541,668.115Z" fill="#36479a"/>
      <path id="パス_120" data-name="パス 120" d="M574.283,671.23c0-2.727-.019-5.454.007-8.181.018-1.973.967-3.036,2.605-3.01,1.583.025,2.473,1.028,2.48,2.928q.03,8.454,0,16.908c-.007,1.89-.91,2.9-2.489,2.922-1.636.021-2.579-1.042-2.6-3.022C574.265,676.927,574.283,674.079,574.283,671.23Z" fill="#349"/>
    </g>
  </g>
</svg>
