<svg xmlns="http://www.w3.org/2000/svg" width="216" height="104" viewBox="0 0 216 104">
  <g id="icon_day02_00" transform="translate(-788.066 -322.546)">
    <path id="パス_299" data-name="パス 299" d="M1004.066,426.546h-216v-104h216ZM895.355,398.461c6.631,0,13.265.09,19.893-.053a20.6,20.6,0,0,0,6.219-1.144c6.992-2.433,11-8.128,10.661-15.074-.35-7.187-3.619-13-11.394-14.767-.492-.112-.967-.753-1.244-1.26a35.1,35.1,0,0,0-2.116-4.2c-2.994-4.043-7.28-5.4-12.13-5.538a4.062,4.062,0,0,1-2.676-1c-8.69-9.693-24.734-6.009-29.707,4.567a46.372,46.372,0,0,0-2.654,8.84c-.342,1.414-.615,2.388-2.188,3.086-4.651,2.062-7,5.974-7.268,10.947a14.526,14.526,0,0,0,14.71,15.591C882.092,398.526,888.724,398.466,895.355,398.461Z" fill="#fefefe" opacity="0"/>
    <path id="パス_300" data-name="パス 300" d="M895.355,398.464c-6.631,0-13.263.062-19.894-.013a14.526,14.526,0,0,1-14.71-15.591c.272-4.973,2.617-8.885,7.268-10.947,1.573-.7,1.846-1.672,2.188-3.086a46.372,46.372,0,0,1,2.654-8.84c4.973-10.576,21.017-14.26,29.707-4.567a4.062,4.062,0,0,0,2.676,1c4.85.141,9.136,1.495,12.13,5.538a35.1,35.1,0,0,1,2.116,4.2c.277.507.752,1.148,1.244,1.26,7.775,1.769,11.044,7.58,11.394,14.767.338,6.946-3.669,12.641-10.661,15.074a20.6,20.6,0,0,1-6.219,1.144C908.62,398.551,901.986,398.461,895.355,398.464ZM874.529,375.7c-.388.036-.982.074-1.571.148-3.677.457-6.005,2.383-6.808,5.621a9.409,9.409,0,0,0,9.207,11.844q20.159.159,40.32,0c7.43-.061,12.229-5.984,11.05-13.274a8.469,8.469,0,0,0-8.046-7.587c-1.188-.127-2.374-.283-3.674-.439,0-.66.035-1.2-.006-1.742-.323-4.328-2.375-7.259-6.1-8.1a23.317,23.317,0,0,0-6.117-.342c-1.277.055-2.123-.039-2.857-1.252a11.094,11.094,0,0,0-6.969-5.214,13.869,13.869,0,0,0-16.876,10.357C875.276,368.914,875.045,372.258,874.529,375.7Z" fill="#a1a1a1"/>
    <path id="パス_301" data-name="パス 301" d="M874.529,375.7c.516-3.439.747-6.783,1.551-9.983a13.869,13.869,0,0,1,16.876-10.357,11.094,11.094,0,0,1,6.969,5.214c.734,1.213,1.58,1.307,2.857,1.252a23.317,23.317,0,0,1,6.117.342c3.727.845,5.779,3.776,6.1,8.1.041.538.006,1.082.006,1.742,1.3.156,2.486.312,3.674.439a8.469,8.469,0,0,1,8.046,7.587c1.179,7.29-3.62,13.213-11.05,13.274q-20.16.166-40.32,0a9.409,9.409,0,0,1-9.207-11.844c.8-3.238,3.131-5.164,6.808-5.621C873.547,375.771,874.141,375.733,874.529,375.7Z" fill="#fefefe" opacity="0"/>
  </g>
</svg>
