<svg xmlns="http://www.w3.org/2000/svg" width="215.756" height="104.278" viewBox="0 0 215.756 104.278">
  <g id="icon_day04_06" transform="translate(-2240.657 -745.06)">
    <path id="パス_12" data-name="パス 12" d="M2335.1,830.312h29.929l-7.981-10.974" fill="none" stroke="#bbb" stroke-linecap="round" stroke-linejoin="round" stroke-width="4"/>
    <g id="グループ_37" data-name="グループ 37">
      <path id="パス_251" data-name="パス 251" d="M2456.413,849.06h-104v-104h104Zm-33.141-61.988c.885,0,1.555-.037,2.219.006,5.383.354,8.4,2.711,9.355,7.286,1.21,5.8-.564,9.979-5.567,12.276a26.6,26.6,0,0,1-6.116,1.538c-1.516.289-2.485.951-2.534,2.568a2.413,2.413,0,0,0,2.5,2.552c9.535.708,17.892-7.557,17.134-17.065-.438-5.508-2.518-10.125-7.784-12.729a19.471,19.471,0,0,1-6.2-5.687c-2.97-4.78-7.538-6.377-12.884-6.52a3.785,3.785,0,0,1-2.523-.891c-6.273-7.132-16.743-7.293-24.066-2.221-5.6,3.881-7.678,9.657-8.468,16.074a2.338,2.338,0,0,1-1.612,2.279,12.716,12.716,0,0,0-7.713,13.361c1.135,8.442,7.174,13.564,15.815,13.413,1.979-.035,3.11-.954,3.121-2.535s-1.124-2.43-3.093-2.594a19.417,19.417,0,0,1-4.812-.8c-4.169-1.472-6.419-5.588-5.816-10.224.513-3.941,2.95-6.041,7.718-6.469,1.227-.11,1.258-.646,1.244-1.65a25.549,25.549,0,0,1,2.538-12.181c3.837-7.538,16.741-10.594,22.517-1.3a2.1,2.1,0,0,0,2.535,1.073,15.058,15.058,0,0,1,3.813-.119c4.982.421,7.842,2.948,8.514,7.468C2423.252,784.916,2423.216,785.886,2423.272,787.072Zm-10.418,28.046c0,2.85-.029,5.7.011,8.549.025,1.845,1.005,2.916,2.531,2.916s2.552-1.082,2.564-2.908q.057-8.457,0-16.915c-.011-1.955-1.036-3.034-2.65-2.986-1.553.046-2.426,1.058-2.45,2.978C2412.827,809.54,2412.853,812.329,2412.854,815.118Zm-21.532-.02c0,2.85-.025,5.7.009,8.549.023,1.839.993,2.927,2.506,2.939s2.573-1.063,2.588-2.892q.067-8.547,0-17.1c-.016-1.836-1.076-2.86-2.632-2.825s-2.439,1.051-2.46,2.959C2391.3,809.52,2391.322,812.309,2391.322,815.1Zm10.743,3.116c0,2.848-.019,5.7.006,8.545.017,1.98.96,3.042,2.6,3.021,1.579-.021,2.482-1.032,2.489-2.922q.031-8.454,0-16.908c-.006-1.9-.9-2.9-2.48-2.928-1.637-.026-2.586,1.037-2.6,3.01C2402.045,812.759,2402.064,815.486,2402.065,818.214Z" fill="#fefefe" opacity="0"/>
      <path id="パス_252" data-name="パス 252" d="M2423.272,787.072c-.056-1.186-.02-2.156-.16-3.1-.672-4.52-3.532-7.047-8.514-7.468a15.058,15.058,0,0,0-3.813.119,2.1,2.1,0,0,1-2.535-1.073c-5.776-9.289-18.68-6.233-22.517,1.3a25.549,25.549,0,0,0-2.538,12.181c.014,1-.017,1.54-1.244,1.65-4.768.428-7.2,2.528-7.718,6.469-.6,4.636,1.647,8.752,5.816,10.224a19.417,19.417,0,0,0,4.812.8c1.969.164,3.1,1.017,3.093,2.594s-1.142,2.5-3.121,2.535c-8.641.151-14.68-4.971-15.815-13.413a12.716,12.716,0,0,1,7.713-13.361,2.338,2.338,0,0,0,1.612-2.279c.79-6.417,2.864-12.193,8.468-16.074,7.323-5.072,17.793-4.911,24.066,2.221a3.785,3.785,0,0,0,2.523.891c5.346.143,9.914,1.74,12.884,6.52a19.471,19.471,0,0,0,6.2,5.687c5.266,2.6,7.346,7.221,7.784,12.729.758,9.508-7.6,17.773-17.134,17.065a2.413,2.413,0,0,1-2.5-2.552c.049-1.617,1.018-2.279,2.534-2.568a26.6,26.6,0,0,0,6.116-1.538c5-2.3,6.777-6.476,5.567-12.276-.956-4.575-3.972-6.932-9.355-7.286C2424.827,787.035,2424.157,787.072,2423.272,787.072Z" fill="#77769c"/>
      <path id="パス_253" data-name="パス 253" d="M2412.853,815.118c0-2.789-.026-5.578.009-8.366.024-1.92.9-2.932,2.45-2.978,1.614-.048,2.639,1.031,2.65,2.986q.051,8.457,0,16.915c-.012,1.826-1.045,2.907-2.564,2.908s-2.506-1.071-2.531-2.916C2412.825,820.818,2412.854,817.968,2412.853,815.118Z" fill="#36479a"/>
      <path id="パス_254" data-name="パス 254" d="M2391.322,815.1c0-2.789-.023-5.578.008-8.366.021-1.908.9-2.924,2.46-2.959s2.616.989,2.632,2.825q.075,8.547,0,17.1c-.015,1.829-1.073,2.9-2.588,2.892s-2.483-1.1-2.506-2.939C2391.3,820.8,2391.322,817.948,2391.322,815.1Z" fill="#36479a"/>
      <path id="パス_255" data-name="パス 255" d="M2402.065,818.214c0-2.728-.02-5.455.006-8.182.019-1.973.968-3.036,2.6-3.01,1.584.025,2.474,1.028,2.48,2.928q.03,8.454,0,16.908c-.007,1.89-.91,2.9-2.489,2.922-1.636.021-2.579-1.041-2.6-3.021C2402.046,823.91,2402.065,821.062,2402.065,818.214Z" fill="#349"/>
    </g>
    <g id="グループ_53" data-name="グループ 53">
      <path id="パス_361" data-name="パス 361" d="M2240.657,745.338h104v104h-104Zm70.93,42.383c.908.073,1.805.163,2.705.214,4.554.258,7.313,2.253,8.481,6.149,1.546,5.155.557,9.482-3.154,11.953a30.264,30.264,0,0,1-6.268,2.738c-1.572.587-2.482,1.681-2.191,3.059a2.717,2.717,0,0,0,3.393,1.946,18.329,18.329,0,0,0,9.373-4.566c4.588-4.255,5.414-9.553,4.073-15.387a13.359,13.359,0,0,0-10.46-10.7,2.2,2.2,0,0,1-1.447-1.026c-2.333-7.325-7.747-9.971-14.94-10.1a3.3,3.3,0,0,1-2.147-.964c-8.46-9.349-22.914-6.113-28.643,2.606a26.816,26.816,0,0,0-3.842,11.278c-.106.759-.6,1.881-1.184,2.091-7.863,2.83-10.594,12.949-5.773,20.363a14.247,14.247,0,0,0,11.945,6.6,2.333,2.333,0,0,0,2.677-2.162c.216-1.6-.733-2.482-2.194-2.87a10.712,10.712,0,0,0-1.086-.113c-3.913-.613-6.772-2.553-8.066-6.442-1.833-5.511.912-10.056,6.6-10.939.642-.1,1.288-.177,1.952-.268a29.686,29.686,0,0,1,1.785-11.9c2.088-5.272,6.191-8.049,11.651-8.668,5.026-.569,8.964,1.495,11.781,5.757a2.965,2.965,0,0,0,2.031.991c1.8.145,3.639-.09,5.432.1a7.717,7.717,0,0,1,7.076,6.546C2311.383,785.179,2311.437,786.392,2311.587,787.721ZM2276.74,811.1a3.74,3.74,0,0,0,3.729,3.873,3.956,3.956,0,0,0,3.828-3.861,3.864,3.864,0,0,0-3.728-3.738A3.646,3.646,0,0,0,2276.74,811.1Zm23.7.1a3.72,3.72,0,0,0,3.817,3.772,3.941,3.941,0,0,0,3.72-3.771,3.825,3.825,0,0,0-3.81-3.827A3.65,3.65,0,0,0,2300.443,811.2Zm-8.062-1.652a3.757,3.757,0,0,0-3.877,3.741,3.928,3.928,0,0,0,3.841,3.849,3.886,3.886,0,0,0,3.763-3.718A3.732,3.732,0,0,0,2292.381,809.547Zm0,19.362a3.729,3.729,0,0,0,3.731-3.867,3.8,3.8,0,0,0-7.6.114A3.788,3.788,0,0,0,2292.377,828.909Zm-11.85-2.169a3.822,3.822,0,0,0,3.77-3.663,3.95,3.95,0,0,0-3.957-3.907,3.838,3.838,0,0,0-3.6,3.825A3.607,3.607,0,0,0,2280.527,826.74Zm23.579,0a3.781,3.781,0,0,0,3.87-3.738,3.956,3.956,0,0,0-3.844-3.832,3.9,3.9,0,0,0-3.753,3.718A3.73,3.73,0,0,0,2304.106,826.74Z" fill="#fefefe" opacity="0"/>
      <path id="パス_362" data-name="パス 362" d="M2311.587,787.721c-.15-1.329-.2-2.542-.436-3.719a7.717,7.717,0,0,0-7.076-6.546c-1.793-.189-3.63.046-5.432-.1a2.965,2.965,0,0,1-2.031-.991c-2.817-4.262-6.755-6.326-11.781-5.757-5.46.619-9.563,3.4-11.651,8.668a29.686,29.686,0,0,0-1.785,11.9c-.664.091-1.31.168-1.952.268-5.692.883-8.437,5.428-6.6,10.939,1.294,3.889,4.153,5.829,8.066,6.442a10.712,10.712,0,0,1,1.086.113c1.461.388,2.41,1.267,2.194,2.87a2.333,2.333,0,0,1-2.677,2.162,14.247,14.247,0,0,1-11.945-6.6c-4.821-7.414-2.09-17.533,5.773-20.363.583-.21,1.078-1.332,1.184-2.091a26.816,26.816,0,0,1,3.842-11.278c5.729-8.719,20.183-11.955,28.643-2.606a3.3,3.3,0,0,0,2.147.964c7.193.131,12.607,2.777,14.94,10.1a2.2,2.2,0,0,0,1.447,1.026,13.359,13.359,0,0,1,10.46,10.7c1.341,5.834.515,11.132-4.073,15.387a18.329,18.329,0,0,1-9.373,4.566,2.717,2.717,0,0,1-3.393-1.946c-.291-1.378.619-2.472,2.191-3.059a30.264,30.264,0,0,0,6.268-2.738c3.711-2.471,4.7-6.8,3.154-11.953-1.168-3.9-3.927-5.891-8.481-6.149C2313.392,787.884,2312.5,787.794,2311.587,787.721Z" fill="#8d8d8d"/>
      <path id="パス_363" data-name="パス 363" d="M2276.74,811.1a3.646,3.646,0,0,1,3.829-3.726,3.864,3.864,0,0,1,3.728,3.738,3.956,3.956,0,0,1-3.828,3.861A3.74,3.74,0,0,1,2276.74,811.1Z" fill="#8e8e8e"/>
      <path id="パス_364" data-name="パス 364" d="M2300.443,811.2a3.65,3.65,0,0,1,3.727-3.826,3.825,3.825,0,0,1,3.81,3.827,3.941,3.941,0,0,1-3.72,3.771A3.72,3.72,0,0,1,2300.443,811.2Z" fill="#8e8e8e"/>
      <path id="パス_365" data-name="パス 365" d="M2292.381,809.547a3.732,3.732,0,0,1,3.727,3.872,3.886,3.886,0,0,1-3.763,3.718,3.928,3.928,0,0,1-3.841-3.849A3.757,3.757,0,0,1,2292.381,809.547Z" fill="#8e8e8e"/>
      <path id="パス_366" data-name="パス 366" d="M2292.377,828.909a3.788,3.788,0,0,1-3.873-3.753,3.8,3.8,0,0,1,7.6-.114A3.729,3.729,0,0,1,2292.377,828.909Z" fill="#8e8e8e"/>
      <path id="パス_367" data-name="パス 367" d="M2280.527,826.74a3.607,3.607,0,0,1-3.788-3.745,3.838,3.838,0,0,1,3.6-3.825,3.95,3.95,0,0,1,3.957,3.907A3.822,3.822,0,0,1,2280.527,826.74Z" fill="#8e8e8e"/>
      <path id="パス_368" data-name="パス 368" d="M2304.106,826.74a3.73,3.73,0,0,1-3.727-3.852,3.9,3.9,0,0,1,3.753-3.718,3.956,3.956,0,0,1,3.844,3.832A3.781,3.781,0,0,1,2304.106,826.74Z" fill="#8e8e8e"/>
    </g>
  </g>
</svg>
