<svg xmlns="http://www.w3.org/2000/svg" width="104" height="104" viewBox="0 0 104 104">
  <g id="icon_hour02" transform="translate(-297.449 -199.031)">
    <path id="パス_100" data-name="パス 100" d="M401.449,303.031h-104v-104h104Zm-33.142-61.988c.886,0,1.556-.037,2.22.006,5.383.354,8.4,2.711,9.354,7.286,1.211,5.8-.563,9.979-5.567,12.276a26.586,26.586,0,0,1-6.115,1.538c-1.517.289-2.486.951-2.535,2.568a2.414,2.414,0,0,0,2.5,2.552c9.534.708,17.891-7.557,17.134-17.065-.439-5.508-2.519-10.125-7.784-12.729a19.481,19.481,0,0,1-6.2-5.687c-2.969-4.78-7.537-6.377-12.883-6.52a3.789,3.789,0,0,1-2.524-.891c-6.273-7.132-16.742-7.293-24.065-2.221-5.6,3.881-7.678,9.657-8.468,16.074a2.337,2.337,0,0,1-1.612,2.278,12.717,12.717,0,0,0-7.713,13.362c1.135,8.442,7.174,13.564,15.814,13.413,1.979-.035,3.111-.954,3.121-2.535s-1.123-2.43-3.093-2.594a19.426,19.426,0,0,1-4.812-.8c-4.169-1.472-6.418-5.589-5.815-10.225.512-3.94,2.949-6.04,7.717-6.468,1.227-.11,1.259-.646,1.245-1.65a25.548,25.548,0,0,1,2.537-12.181c3.837-7.538,16.742-10.594,22.518-1.3a2.1,2.1,0,0,0,2.534,1.073,15.067,15.067,0,0,1,3.814-.119c4.982.421,7.841,2.947,8.513,7.468C368.287,238.886,368.251,239.857,368.307,241.043ZM357.89,269.089c0,2.85-.03,5.7.01,8.549.026,1.845,1.006,2.916,2.532,2.916s2.552-1.082,2.564-2.908q.057-8.457,0-16.915c-.012-1.955-1.036-3.034-2.651-2.986-1.552.046-2.426,1.058-2.45,2.978C357.862,263.511,357.888,266.3,357.89,269.089Zm-21.532-.02c0,2.85-.025,5.7.009,8.548.022,1.84.992,2.928,2.506,2.94s2.573-1.063,2.587-2.892q.069-8.547,0-17.1c-.016-1.836-1.076-2.86-2.632-2.825s-2.439,1.051-2.46,2.959C336.335,263.491,336.358,266.28,336.358,269.069Zm10.742,3.115c0,2.849-.018,5.7.007,8.546.017,1.98.959,3.042,2.6,3.021,1.579-.021,2.482-1.032,2.489-2.922q.03-8.454,0-16.908c-.007-1.9-.9-2.9-2.481-2.928-1.637-.026-2.586,1.037-2.6,3.01C347.081,266.73,347.1,269.457,347.1,272.184Z" fill="#fefefe" opacity="0"/>
    <path id="パス_101" data-name="パス 101" d="M368.307,241.043c-.056-1.186-.02-2.157-.16-3.1-.672-4.521-3.531-7.047-8.513-7.468a15.067,15.067,0,0,0-3.814.119,2.1,2.1,0,0,1-2.534-1.073c-5.776-9.289-18.681-6.233-22.518,1.3a25.548,25.548,0,0,0-2.537,12.181c.014,1-.018,1.54-1.245,1.65-4.768.428-7.2,2.528-7.717,6.468-.6,4.636,1.646,8.753,5.815,10.225a19.426,19.426,0,0,0,4.812.8c1.97.164,3.1,1.017,3.093,2.594s-1.142,2.5-3.121,2.535c-8.64.151-14.679-4.971-15.814-13.413a12.717,12.717,0,0,1,7.713-13.362,2.337,2.337,0,0,0,1.612-2.278c.79-6.417,2.863-12.193,8.468-16.074,7.323-5.072,17.792-4.911,24.065,2.221a3.789,3.789,0,0,0,2.524.891c5.346.143,9.914,1.74,12.883,6.52a19.481,19.481,0,0,0,6.2,5.687c5.265,2.6,7.345,7.221,7.784,12.729.757,9.508-7.6,17.773-17.134,17.065a2.414,2.414,0,0,1-2.5-2.552c.049-1.617,1.018-2.279,2.535-2.568a26.586,26.586,0,0,0,6.115-1.538c5-2.3,6.778-6.476,5.567-12.276-.955-4.575-3.971-6.932-9.354-7.286C369.863,241.006,369.193,241.043,368.307,241.043Z" fill="#77769c"/>
    <path id="パス_102" data-name="パス 102" d="M357.889,269.089c0-2.789-.027-5.578.008-8.366.024-1.92.9-2.932,2.45-2.978,1.615-.048,2.639,1.031,2.651,2.986q.05,8.457,0,16.915c-.012,1.826-1.045,2.907-2.564,2.908s-2.506-1.071-2.532-2.916C357.86,274.789,357.89,271.939,357.889,269.089Z" fill="#36479a"/>
    <path id="パス_103" data-name="パス 103" d="M336.358,269.069c0-2.789-.023-5.578.008-8.366.021-1.908.9-2.924,2.46-2.959s2.616.989,2.632,2.825q.075,8.547,0,17.1c-.014,1.829-1.073,2.9-2.587,2.892s-2.484-1.1-2.506-2.94C336.333,274.768,336.358,271.919,336.358,269.069Z" fill="#36479a"/>
    <path id="パス_104" data-name="パス 104" d="M347.1,272.184c0-2.727-.019-5.454.007-8.181.018-1.973.967-3.036,2.6-3.01,1.584.025,2.474,1.028,2.481,2.928q.03,8.454,0,16.908c-.007,1.89-.91,2.9-2.489,2.922-1.637.021-2.579-1.041-2.6-3.021C347.082,277.881,347.1,275.033,347.1,272.184Z" fill="#349"/>
  </g>
</svg>
