<svg xmlns="http://www.w3.org/2000/svg" width="216.817" height="104.519" viewBox="0 0 216.817 104.519">
  <g id="icon_day03_04" transform="translate(-1630.799 -455.23)">
    <path id="パス_7" data-name="パス 7" d="M1725.552,543.994h29.929l-7.981-10.974" fill="none" stroke="#bbb" stroke-linecap="round" stroke-linejoin="round" stroke-width="4"/>
    <g id="グループ_33" data-name="グループ 33">
      <path id="パス_231" data-name="パス 231" d="M1734.8,559.749h-104v-104h104Zm-33.141-61.987c.885,0,1.555-.038,2.219.006,5.383.354,8.4,2.71,9.354,7.286,1.211,5.8-.563,9.979-5.566,12.275a26.593,26.593,0,0,1-6.116,1.538c-1.516.29-2.485.951-2.534,2.569a2.412,2.412,0,0,0,2.5,2.551c9.535.708,17.892-7.557,17.134-17.065-.439-5.508-2.518-10.124-7.784-12.728a19.5,19.5,0,0,1-6.2-5.688c-2.969-4.78-7.537-6.376-12.883-6.52a3.784,3.784,0,0,1-2.523-.891c-6.273-7.132-16.743-7.292-24.066-2.221-5.6,3.881-7.678,9.657-8.468,16.074a2.336,2.336,0,0,1-1.612,2.279,12.716,12.716,0,0,0-7.713,13.361c1.135,8.443,7.174,13.564,15.815,13.413,1.979-.035,3.11-.953,3.121-2.534s-1.124-2.43-3.093-2.595a19.382,19.382,0,0,1-4.813-.8c-4.168-1.471-6.418-5.588-5.815-10.224.513-3.94,2.95-6.04,7.718-6.469,1.227-.11,1.258-.646,1.244-1.65a25.547,25.547,0,0,1,2.538-12.181c3.837-7.537,16.741-10.594,22.517-1.3a2.1,2.1,0,0,0,2.534,1.074,15.067,15.067,0,0,1,3.814-.119c4.982.421,7.842,2.947,8.514,7.468C1701.638,495.605,1701.6,496.575,1701.658,497.762Zm-10.418,28.046c0,2.849-.029,5.7.01,8.548.026,1.846,1.006,2.917,2.532,2.916s2.552-1.081,2.564-2.908q.057-8.457,0-16.915c-.011-1.955-1.036-3.034-2.65-2.986-1.553.046-2.426,1.059-2.45,2.978C1691.213,520.229,1691.239,523.019,1691.24,525.808Zm-21.532-.02c0,2.849-.025,5.7.009,8.548.022,1.84.993,2.928,2.506,2.939s2.573-1.062,2.588-2.892q.067-8.547,0-17.1c-.016-1.836-1.076-2.86-2.632-2.825s-2.439,1.052-2.46,2.959C1669.685,520.21,1669.708,523,1669.708,525.788Zm10.743,3.115c0,2.848-.019,5.7.006,8.545.017,1.98.96,3.043,2.6,3.021,1.579-.021,2.482-1.032,2.489-2.921q.031-8.454,0-16.909c-.006-1.9-.9-2.9-2.48-2.927-1.637-.027-2.586,1.036-2.6,3.009C1680.431,523.448,1680.45,526.176,1680.451,528.9Z" fill="#fefefe" opacity="0"/>
      <path id="パス_232" data-name="パス 232" d="M1701.658,497.762c-.056-1.187-.02-2.157-.16-3.1-.672-4.521-3.532-7.047-8.514-7.468a15.067,15.067,0,0,0-3.814.119,2.1,2.1,0,0,1-2.534-1.074c-5.776-9.289-18.68-6.232-22.517,1.3a25.547,25.547,0,0,0-2.538,12.181c.014,1-.017,1.54-1.244,1.65-4.768.429-7.205,2.529-7.718,6.469-.6,4.636,1.647,8.753,5.815,10.224a19.382,19.382,0,0,0,4.813.8c1.969.165,3.1,1.017,3.093,2.595s-1.142,2.5-3.121,2.534c-8.641.151-14.68-4.97-15.815-13.413a12.716,12.716,0,0,1,7.713-13.361,2.336,2.336,0,0,0,1.612-2.279c.79-6.417,2.863-12.193,8.468-16.074,7.323-5.071,17.793-4.911,24.066,2.221a3.784,3.784,0,0,0,2.523.891c5.346.144,9.914,1.74,12.883,6.52a19.5,19.5,0,0,0,6.2,5.688c5.266,2.6,7.345,7.22,7.784,12.728.758,9.508-7.6,17.773-17.134,17.065a2.412,2.412,0,0,1-2.5-2.551c.049-1.618,1.018-2.279,2.534-2.569a26.593,26.593,0,0,0,6.116-1.538c5-2.3,6.777-6.476,5.566-12.275-.955-4.576-3.971-6.932-9.354-7.286C1703.213,497.724,1702.543,497.762,1701.658,497.762Z" fill="#77769c"/>
      <path id="パス_233" data-name="パス 233" d="M1691.239,525.808c0-2.789-.026-5.579.009-8.367.024-1.919.9-2.932,2.45-2.978,1.614-.048,2.639,1.031,2.65,2.986q.051,8.457,0,16.915c-.012,1.827-1.045,2.907-2.564,2.908s-2.506-1.07-2.532-2.916C1691.211,531.507,1691.24,528.657,1691.239,525.808Z" fill="#36479a"/>
      <path id="パス_234" data-name="パス 234" d="M1669.708,525.788c0-2.789-.023-5.578.008-8.367.021-1.907.9-2.924,2.46-2.959s2.616.989,2.632,2.825q.075,8.547,0,17.1c-.015,1.83-1.073,2.9-2.588,2.892s-2.484-1.1-2.506-2.939C1669.683,531.487,1669.708,528.637,1669.708,525.788Z" fill="#36479a"/>
      <path id="パス_235" data-name="パス 235" d="M1680.45,528.9c0-2.727-.019-5.455.007-8.182.019-1.973.968-3.036,2.6-3.009,1.584.025,2.474,1.027,2.48,2.927q.03,8.454,0,16.909c-.007,1.889-.91,2.9-2.489,2.921-1.636.022-2.579-1.041-2.6-3.021C1680.432,534.6,1680.451,531.751,1680.45,528.9Z" fill="#349"/>
    </g>
    <g id="グループ_41" data-name="グループ 41">
      <path id="パス_275" data-name="パス 275" d="M1847.616,559.23h-104v-104h104Zm-51.789-70.578c-9.712-.256-18.376,7.857-18.649,17.462-.3,10.608,7.51,19.228,17.683,19.514,10.294.29,18.956-7.669,19.2-17.636C1814.315,497.243,1806.482,488.932,1795.827,488.652Zm2.333,50.71c0-1.273.056-2.548-.014-3.816a2.618,2.618,0,0,0-2.58-2.727,2.575,2.575,0,0,0-2.561,2.743c-.074,2.542-.063,5.089-.006,7.632a2.635,2.635,0,0,0,2.494,2.824c1.466.057,2.564-1.07,2.656-2.841C1798.215,541.908,1798.162,540.634,1798.16,539.362Zm-5.175-64.012h.01c0,1.331-.086,2.67.023,3.992a2.427,2.427,0,0,0,2.547,2.523,2.344,2.344,0,0,0,2.541-2.5c.1-2.659.1-5.326.017-7.986a2.51,2.51,0,0,0-2.628-2.643,2.613,2.613,0,0,0-2.5,2.8C1792.94,472.8,1792.985,474.079,1792.985,475.35Zm-23.033,3.612c-.768.623-1.877,1.083-2.074,1.795a3.669,3.669,0,0,0,.512,2.923,72.658,72.658,0,0,0,5.34,5.44c1.33,1.289,2.733,1.335,3.842.219,1.064-1.069.992-2.56-.264-3.852-1.729-1.781-3.478-3.544-5.275-5.257A12.605,12.605,0,0,0,1769.952,478.962Zm8.723,47.993c-.683-.765-1.178-1.8-1.912-2.014a3.408,3.408,0,0,0-2.756.508c-1.974,1.686-3.754,3.6-5.565,5.474a2.513,2.513,0,0,0-.214,3.719c1.078,1.123,2.536,1.1,3.857-.165,1.791-1.718,3.553-3.471,5.258-5.275A12.956,12.956,0,0,0,1778.675,526.955Zm45.236-45.389c-.617-.691-1.113-1.731-1.844-1.937a3.453,3.453,0,0,0-2.771.522c-1.982,1.693-3.765,3.621-5.589,5.493a2.481,2.481,0,0,0-.2,3.6,2.421,2.421,0,0,0,3.717.072c1.941-1.839,3.82-3.746,5.659-5.687A9.073,9.073,0,0,0,1823.911,481.566Zm-8.686,42.693c-.781.656-1.846,1.116-2.005,1.79a3.832,3.832,0,0,0,.5,2.953,70.549,70.549,0,0,0,5.227,5.339c1.378,1.347,2.725,1.463,3.859.408s1.056-2.676-.247-4.015c-1.655-1.7-3.318-3.392-5.045-5.016A15.315,15.315,0,0,0,1815.225,524.259Zm-51.662-19.422c-1.33,0-2.661-.021-3.991.006a2.531,2.531,0,0,0-.146,5.059c2.718.1,5.444.1,8.163.007a2.454,2.454,0,0,0,2.532-2.556,2.546,2.546,0,0,0-2.748-2.511C1766.1,504.8,1764.833,504.834,1763.563,504.837Zm64.067,5.108q1.733,0,3.464,0c.121,0,.243,0,.364-.005,1.711-.119,2.7-1.071,2.693-2.583-.01-1.537-.98-2.481-2.725-2.512-2.49-.043-4.982-.035-7.473-.005-1.769.021-2.951,1.083-2.929,2.543.022,1.482,1.173,2.5,2.961,2.554C1825.2,509.975,1826.415,509.945,1827.63,509.945Z" fill="#fefefe" opacity="0"/>
      <path id="パス_276" data-name="パス 276" d="M1795.827,488.652c10.655.28,18.488,8.591,18.23,19.34-.24,9.967-8.9,17.926-19.2,17.636-10.173-.286-17.984-8.906-17.683-19.514C1777.451,496.509,1786.115,488.4,1795.827,488.652Zm-.207,5.161a13.361,13.361,0,1,0,13.347,13.291A13.275,13.275,0,0,0,1795.62,493.813Z" fill="#ef8a3e"/>
      <path id="パス_277" data-name="パス 277" d="M1798.161,539.362c0,1.272.054,2.546-.012,3.815-.092,1.771-1.19,2.9-2.656,2.841a2.635,2.635,0,0,1-2.494-2.824c-.057-2.543-.068-5.09.006-7.632a2.575,2.575,0,0,1,2.561-2.743,2.618,2.618,0,0,1,2.58,2.727C1798.216,536.814,1798.16,538.089,1798.161,539.362Z" fill="#f08c41"/>
      <path id="パス_278" data-name="パス 278" d="M1792.985,475.35c0-1.271-.045-2.545.011-3.813a2.613,2.613,0,0,1,2.5-2.8,2.51,2.51,0,0,1,2.628,2.643c.086,2.66.078,5.327-.017,7.986a2.344,2.344,0,0,1-2.541,2.5,2.427,2.427,0,0,1-2.547-2.523c-.109-1.322-.023-2.661-.023-3.992Z" fill="#f08c41"/>
      <path id="パス_279" data-name="パス 279" d="M1769.952,478.962a12.605,12.605,0,0,1,2.081,1.268c1.8,1.713,3.546,3.476,5.275,5.257,1.256,1.292,1.328,2.783.264,3.852-1.109,1.116-2.512,1.07-3.842-.219a72.658,72.658,0,0,1-5.34-5.44,3.669,3.669,0,0,1-.512-2.923C1768.075,480.045,1769.184,479.585,1769.952,478.962Z" fill="#ef8b40"/>
      <path id="パス_280" data-name="パス 280" d="M1778.675,526.955a12.956,12.956,0,0,1-1.332,2.247c-1.705,1.8-3.467,3.557-5.258,5.275-1.321,1.268-2.779,1.288-3.857.165a2.513,2.513,0,0,1,.214-3.719c1.811-1.871,3.591-3.788,5.565-5.474a3.408,3.408,0,0,1,2.756-.508C1777.5,525.154,1777.992,526.19,1778.675,526.955Z" fill="#ef8b40"/>
      <path id="パス_281" data-name="パス 281" d="M1823.911,481.566a9.073,9.073,0,0,1-1.028,2.067c-1.839,1.941-3.718,3.848-5.659,5.687a2.421,2.421,0,0,1-3.717-.072,2.481,2.481,0,0,1,.2-3.6c1.824-1.872,3.607-3.8,5.589-5.493a3.453,3.453,0,0,1,2.771-.522C1822.8,479.835,1823.294,480.875,1823.911,481.566Z" fill="#ef8b3f"/>
      <path id="パス_282" data-name="パス 282" d="M1815.225,524.259a15.315,15.315,0,0,1,2.288,1.459c1.727,1.624,3.39,3.317,5.045,5.016,1.3,1.339,1.377,2.962.247,4.015s-2.481.939-3.859-.408a70.549,70.549,0,0,1-5.227-5.339,3.832,3.832,0,0,1-.5-2.953C1813.379,525.375,1814.444,524.915,1815.225,524.259Z" fill="#ef8b3f"/>
      <path id="パス_283" data-name="パス 283" d="M1763.563,504.836c1.27,0,2.541-.035,3.81.006a2.546,2.546,0,0,1,2.748,2.511,2.454,2.454,0,0,1-2.532,2.556c-2.719.088-5.445.1-8.163-.007a2.531,2.531,0,0,1,.146-5.059C1760.9,504.816,1762.233,504.837,1763.563,504.836Z" fill="#ef8b3e"/>
      <path id="パス_284" data-name="パス 284" d="M1827.63,509.945c-1.215,0-2.431.03-3.645-.008-1.788-.055-2.939-1.072-2.961-2.554-.022-1.46,1.16-2.522,2.929-2.543,2.491-.03,4.983-.038,7.473.005,1.745.031,2.715.975,2.725,2.512.01,1.512-.982,2.464-2.693,2.583-.121.008-.243.005-.364.005Q1829.361,509.947,1827.63,509.945Z" fill="#ef8a3e"/>
      <path id="パス_285" data-name="パス 285" d="M1795.62,493.813a13.361,13.361,0,1,1-13.351,13.287A13.278,13.278,0,0,1,1795.62,493.813Z" fill="#fefdfd" opacity="0"/>
    </g>
  </g>
</svg>
