<svg xmlns="http://www.w3.org/2000/svg" width="216.264" height="104.188" viewBox="0 0 216.264 104.188">
  <g id="icon_day03_02" transform="translate(-1375.272 -598.077)">
    <line id="線_8" data-name="線 8" y2="53.207" transform="translate(1484.46 622.807)" fill="none" stroke="#bbb" stroke-linecap="round" stroke-miterlimit="10" stroke-width="4"/>
    <g id="グループ_9" data-name="グループ 9">
      <path id="パス_61" data-name="パス 61" d="M1591.536,702.265h-104v-104h104Zm-53.294-28.085c6.631,0,13.264.09,19.892-.053a20.6,20.6,0,0,0,6.219-1.144c6.993-2.433,11-8.128,10.662-15.075-.35-7.187-3.619-13-11.4-14.767-.491-.111-.966-.752-1.243-1.259a35.154,35.154,0,0,0-2.116-4.2c-2.994-4.043-7.28-5.4-12.131-5.538a4.062,4.062,0,0,1-2.676-1c-8.69-9.693-24.733-6.009-29.706,4.567a46.3,46.3,0,0,0-2.654,8.84c-.343,1.414-.615,2.387-2.189,3.085-4.651,2.063-6.995,5.975-7.267,10.948a14.525,14.525,0,0,0,14.71,15.591C1524.978,674.245,1531.61,674.185,1538.242,674.18Z" fill="#fefefe" opacity="0"/>
      <path id="パス_62" data-name="パス 62" d="M1538.242,674.182c-6.632,0-13.264.063-19.894-.012a14.525,14.525,0,0,1-14.71-15.591c.272-4.973,2.616-8.885,7.267-10.948,1.574-.7,1.846-1.671,2.189-3.085a46.3,46.3,0,0,1,2.654-8.84c4.973-10.576,21.016-14.26,29.706-4.567a4.062,4.062,0,0,0,2.676,1c4.851.141,9.137,1.495,12.131,5.538a35.154,35.154,0,0,1,2.116,4.2c.277.507.752,1.148,1.243,1.259,7.776,1.77,11.045,7.58,11.4,14.767.338,6.947-3.669,12.642-10.662,15.075a20.6,20.6,0,0,1-6.219,1.144C1551.506,674.27,1544.873,674.18,1538.242,674.182Zm-20.827-22.767c-.387.036-.981.075-1.57.149-3.677.456-6.005,2.383-6.808,5.621a9.409,9.409,0,0,0,9.207,11.844q20.158.159,40.319,0c7.431-.061,12.229-5.984,11.051-13.274a8.471,8.471,0,0,0-8.046-7.587c-1.189-.127-2.374-.283-3.675-.439,0-.66.035-1.2-.005-1.742-.324-4.328-2.375-7.259-6.1-8.1a23.322,23.322,0,0,0-6.117-.342c-1.277.055-2.123-.039-2.857-1.252a11.1,11.1,0,0,0-6.97-5.215,13.87,13.87,0,0,0-16.875,10.358C1518.162,644.633,1517.931,647.976,1517.415,651.415Z" fill="#a1a1a1"/>
      <path id="パス_63" data-name="パス 63" d="M1517.415,651.415c.516-3.439.747-6.782,1.552-9.982a13.87,13.87,0,0,1,16.875-10.358,11.1,11.1,0,0,1,6.97,5.215c.734,1.213,1.58,1.307,2.857,1.252a23.322,23.322,0,0,1,6.117.342c3.727.845,5.778,3.776,6.1,8.1.04.538.005,1.082.005,1.742,1.3.156,2.486.312,3.675.439a8.471,8.471,0,0,1,8.046,7.587c1.178,7.29-3.62,13.213-11.051,13.274q-20.158.166-40.319,0a9.409,9.409,0,0,1-9.207-11.844c.8-3.238,3.131-5.165,6.808-5.621C1516.434,651.49,1517.028,651.451,1517.415,651.415Z" fill="#fefefe" opacity="0"/>
    </g>
    <g id="グループ_31" data-name="グループ 31">
      <path id="パス_221" data-name="パス 221" d="M1479.272,702.077h-104v-104h104Zm-33.142-61.988c.886,0,1.556-.037,2.22.006,5.383.354,8.4,2.71,9.354,7.286,1.211,5.8-.563,9.979-5.567,12.276a26.584,26.584,0,0,1-6.115,1.538c-1.517.289-2.486.95-2.535,2.568a2.414,2.414,0,0,0,2.5,2.552c9.534.707,17.891-7.557,17.134-17.065-.439-5.508-2.519-10.125-7.784-12.729a19.482,19.482,0,0,1-6.2-5.687c-2.969-4.78-7.537-6.377-12.883-6.52a3.789,3.789,0,0,1-2.524-.891c-6.273-7.132-16.742-7.293-24.065-2.222-5.605,3.881-7.678,9.658-8.468,16.074a2.337,2.337,0,0,1-1.612,2.279,12.717,12.717,0,0,0-7.713,13.362c1.135,8.442,7.174,13.564,15.814,13.412,1.979-.034,3.111-.953,3.121-2.534s-1.123-2.43-3.093-2.594a19.427,19.427,0,0,1-4.812-.8c-4.169-1.472-6.418-5.589-5.815-10.225.512-3.94,2.949-6.04,7.718-6.468,1.226-.11,1.258-.646,1.244-1.65a25.556,25.556,0,0,1,2.537-12.182c3.838-7.537,16.742-10.594,22.518-1.3a2.1,2.1,0,0,0,2.534,1.073,15.068,15.068,0,0,1,3.814-.119c4.982.421,7.842,2.947,8.513,7.468C1446.111,637.932,1446.074,638.9,1446.13,640.089Zm-10.417,28.046c0,2.85-.03,5.7.01,8.549.026,1.845,1.006,2.916,2.532,2.916s2.552-1.082,2.564-2.908q.057-8.457,0-16.915c-.012-1.956-1.036-3.034-2.651-2.986-1.552.046-2.426,1.058-2.45,2.978C1435.685,662.557,1435.711,665.346,1435.713,668.135Zm-21.532-.02c0,2.85-.025,5.7.009,8.548.022,1.84.992,2.928,2.506,2.94s2.573-1.063,2.587-2.892q.069-8.548,0-17.1c-.016-1.836-1.076-2.861-2.632-2.825s-2.439,1.051-2.46,2.959C1414.158,662.537,1414.181,665.326,1414.181,668.115Zm10.742,3.115c0,2.849-.018,5.7.007,8.545.017,1.98.959,3.043,2.6,3.022,1.579-.022,2.482-1.032,2.489-2.922q.03-8.454,0-16.908c-.007-1.9-.9-2.9-2.481-2.928-1.637-.026-2.586,1.037-2.6,3.01C1424.9,665.776,1424.923,668.5,1424.923,671.23Z" fill="#fefefe" opacity="0"/>
      <path id="パス_222" data-name="パス 222" d="M1446.13,640.089c-.056-1.186-.019-2.157-.16-3.1-.671-4.521-3.531-7.047-8.513-7.468a15.068,15.068,0,0,0-3.814.119,2.1,2.1,0,0,1-2.534-1.073c-5.776-9.29-18.68-6.233-22.518,1.3a25.556,25.556,0,0,0-2.537,12.182c.014,1-.018,1.54-1.244,1.65-4.769.428-7.206,2.528-7.718,6.468-.6,4.636,1.646,8.753,5.815,10.225a19.427,19.427,0,0,0,4.812.8c1.97.164,3.1,1.017,3.093,2.594s-1.142,2.5-3.121,2.534c-8.64.152-14.679-4.97-15.814-13.412a12.717,12.717,0,0,1,7.713-13.362,2.337,2.337,0,0,0,1.612-2.279c.79-6.416,2.863-12.193,8.468-16.074,7.323-5.071,17.792-4.91,24.065,2.222a3.789,3.789,0,0,0,2.524.891c5.346.143,9.914,1.74,12.883,6.52a19.482,19.482,0,0,0,6.2,5.687c5.265,2.6,7.345,7.221,7.784,12.729.757,9.508-7.6,17.772-17.134,17.065a2.414,2.414,0,0,1-2.5-2.552c.049-1.618,1.018-2.279,2.535-2.568a26.584,26.584,0,0,0,6.115-1.538c5-2.3,6.778-6.476,5.567-12.276-.955-4.576-3.971-6.932-9.354-7.286C1447.686,640.052,1447.016,640.089,1446.13,640.089Z" fill="#77769c"/>
      <path id="パス_223" data-name="パス 223" d="M1435.712,668.135c0-2.789-.027-5.578.008-8.366.024-1.92.9-2.932,2.45-2.978,1.615-.048,2.639,1.03,2.651,2.986q.051,8.457,0,16.915c-.012,1.826-1.045,2.907-2.564,2.908s-2.506-1.071-2.532-2.916C1435.683,673.835,1435.713,670.985,1435.712,668.135Z" fill="#36479a"/>
      <path id="パス_224" data-name="パス 224" d="M1414.181,668.115c0-2.789-.023-5.578.008-8.366.021-1.908.9-2.924,2.46-2.959s2.616.989,2.632,2.825q.075,8.547,0,17.1c-.014,1.829-1.073,2.9-2.587,2.892s-2.484-1.1-2.506-2.94C1414.156,673.814,1414.181,670.965,1414.181,668.115Z" fill="#36479a"/>
      <path id="パス_225" data-name="パス 225" d="M1424.923,671.23c0-2.727-.019-5.454.007-8.181.018-1.973.967-3.036,2.6-3.01,1.584.025,2.474,1.028,2.481,2.928q.03,8.454,0,16.908c-.007,1.89-.91,2.9-2.489,2.922-1.637.021-2.579-1.042-2.6-3.022C1424.905,676.927,1424.923,674.079,1424.923,671.23Z" fill="#349"/>
    </g>
  </g>
</svg>
