<svg xmlns="http://www.w3.org/2000/svg" width="216.024" height="104.453" viewBox="0 0 216.024 104.453">
  <g id="icon_day04_02" transform="translate(-1985.06 -597.812)">
    <line id="線_11" data-name="線 11" y2="53.207" transform="translate(2094.007 622.807)" fill="none" stroke="#bbb" stroke-linecap="round" stroke-miterlimit="10" stroke-width="4"/>
    <g id="グループ_46" data-name="グループ 46">
      <path id="パス_307" data-name="パス 307" d="M2201.084,702.265h-104v-104h104Zm-53.295-28.085c6.632,0,13.265.09,19.893-.053a20.6,20.6,0,0,0,6.219-1.144c6.993-2.433,11-8.128,10.661-15.075-.35-7.187-3.618-13-11.394-14.767-.491-.111-.967-.752-1.244-1.259a35.022,35.022,0,0,0-2.115-4.2c-3-4.043-7.28-5.4-12.131-5.538a4.062,4.062,0,0,1-2.676-1c-8.69-9.693-24.734-6.009-29.706,4.567a46.228,46.228,0,0,0-2.654,8.84c-.343,1.414-.615,2.387-2.189,3.085-4.651,2.063-6.995,5.975-7.268,10.948A14.527,14.527,0,0,0,2127.9,674.17C2134.526,674.245,2141.158,674.185,2147.789,674.18Z" fill="#fefefe" opacity="0"/>
      <path id="パス_308" data-name="パス 308" d="M2147.789,674.182c-6.631,0-13.263.063-19.893-.012a14.527,14.527,0,0,1-14.711-15.591c.273-4.973,2.617-8.885,7.268-10.948,1.574-.7,1.846-1.671,2.189-3.085a46.228,46.228,0,0,1,2.654-8.84c4.972-10.576,21.016-14.26,29.706-4.567a4.062,4.062,0,0,0,2.676,1c4.851.141,9.136,1.495,12.131,5.538a35.022,35.022,0,0,1,2.115,4.2c.277.507.753,1.148,1.244,1.259,7.776,1.77,11.044,7.58,11.394,14.767.339,6.947-3.668,12.642-10.661,15.075a20.6,20.6,0,0,1-6.219,1.144C2161.054,674.27,2154.421,674.18,2147.789,674.182Zm-20.826-22.767c-.388.036-.981.075-1.57.149-3.677.456-6.005,2.383-6.808,5.621a9.408,9.408,0,0,0,9.206,11.844q20.16.159,40.32,0c7.431-.061,12.229-5.984,11.051-13.274a8.471,8.471,0,0,0-8.046-7.587c-1.189-.127-2.374-.283-3.675-.439,0-.66.035-1.2,0-1.742-.324-4.328-2.376-7.259-6.1-8.1a23.312,23.312,0,0,0-6.116-.342c-1.277.055-2.124-.039-2.857-1.252a11.1,11.1,0,0,0-6.97-5.215,13.87,13.87,0,0,0-16.875,10.358C2127.71,644.633,2127.479,647.976,2126.963,651.415Z" fill="#a1a1a1"/>
      <path id="パス_309" data-name="パス 309" d="M2126.963,651.415c.516-3.439.747-6.782,1.552-9.982a13.87,13.87,0,0,1,16.875-10.358,11.1,11.1,0,0,1,6.97,5.215c.733,1.213,1.58,1.307,2.857,1.252a23.312,23.312,0,0,1,6.116.342c3.727.845,5.779,3.776,6.1,8.1.04.538,0,1.082,0,1.742,1.3.156,2.486.312,3.675.439a8.471,8.471,0,0,1,8.046,7.587c1.178,7.29-3.62,13.213-11.051,13.274q-20.158.166-40.32,0a9.408,9.408,0,0,1-9.206-11.844c.8-3.238,3.131-5.165,6.808-5.621C2125.982,651.49,2126.575,651.451,2126.963,651.415Z" fill="#fefefe" opacity="0"/>
    </g>
    <g id="グループ_49" data-name="グループ 49">
      <path id="パス_329" data-name="パス 329" d="M1985.06,597.812h104v104h-104Zm70.93,42.384c.908.073,1.8.163,2.705.214,4.554.257,7.313,2.253,8.481,6.149,1.546,5.155.557,9.482-3.154,11.952a30.205,30.205,0,0,1-6.268,2.739c-1.572.586-2.482,1.681-2.191,3.059a2.716,2.716,0,0,0,3.393,1.945,18.313,18.313,0,0,0,9.373-4.566c4.588-4.255,5.414-9.553,4.073-15.387a13.358,13.358,0,0,0-10.46-10.7,2.214,2.214,0,0,1-1.447-1.026c-2.333-7.325-7.747-9.971-14.94-10.1a3.291,3.291,0,0,1-2.147-.963c-8.46-9.35-22.914-6.113-28.643,2.605a26.827,26.827,0,0,0-3.842,11.279c-.106.758-.6,1.881-1.184,2.091-7.863,2.83-10.594,12.948-5.773,20.363a14.244,14.244,0,0,0,11.945,6.6,2.332,2.332,0,0,0,2.677-2.161c.216-1.6-.733-2.482-2.194-2.87a10.458,10.458,0,0,0-1.086-.113c-3.912-.613-6.772-2.553-8.066-6.442-1.833-5.511.912-10.056,6.6-10.939.642-.1,1.288-.178,1.952-.268a29.7,29.7,0,0,1,1.785-11.9c2.088-5.272,6.192-8.05,11.651-8.668,5.026-.569,8.964,1.494,11.781,5.756a2.957,2.957,0,0,0,2.032.991c1.8.146,3.638-.089,5.431.1a7.715,7.715,0,0,1,7.076,6.545C2055.786,637.654,2055.84,638.867,2055.99,640.2Zm-34.847,23.378a3.739,3.739,0,0,0,3.729,3.872,3.955,3.955,0,0,0,3.828-3.861,3.862,3.862,0,0,0-3.727-3.737A3.645,3.645,0,0,0,2021.143,663.574Zm23.7.1a3.72,3.72,0,0,0,3.817,3.773,3.943,3.943,0,0,0,3.72-3.771,3.825,3.825,0,0,0-3.81-3.827A3.649,3.649,0,0,0,2044.846,663.673Zm-8.062-1.651a3.757,3.757,0,0,0-3.877,3.741,3.928,3.928,0,0,0,3.841,3.849,3.888,3.888,0,0,0,3.764-3.719A3.733,3.733,0,0,0,2036.784,662.022Zm0,19.362a3.729,3.729,0,0,0,3.731-3.867,3.8,3.8,0,0,0-7.6.114A3.788,3.788,0,0,0,2036.78,681.384Zm-11.85-2.169a3.822,3.822,0,0,0,3.77-3.664,3.951,3.951,0,0,0-3.957-3.907,3.839,3.839,0,0,0-3.6,3.826A3.608,3.608,0,0,0,2024.93,679.215Zm23.579,0a3.781,3.781,0,0,0,3.87-3.738,3.956,3.956,0,0,0-3.844-3.833,3.9,3.9,0,0,0-3.753,3.718A3.731,3.731,0,0,0,2048.509,679.215Z" fill="#fefefe" opacity="0"/>
      <path id="パス_330" data-name="パス 330" d="M2055.99,640.2c-.15-1.329-.2-2.542-.436-3.72a7.715,7.715,0,0,0-7.076-6.545c-1.793-.189-3.63.046-5.431-.1a2.957,2.957,0,0,1-2.032-.991c-2.817-4.262-6.755-6.325-11.781-5.756-5.459.618-9.563,3.4-11.651,8.668a29.7,29.7,0,0,0-1.785,11.9c-.664.09-1.31.168-1.952.268-5.692.883-8.437,5.428-6.6,10.939,1.294,3.889,4.154,5.829,8.066,6.442a10.458,10.458,0,0,1,1.086.113c1.461.388,2.41,1.267,2.194,2.87a2.332,2.332,0,0,1-2.677,2.161,14.244,14.244,0,0,1-11.945-6.6c-4.821-7.415-2.09-17.533,5.773-20.363.583-.21,1.078-1.333,1.184-2.091a26.827,26.827,0,0,1,3.842-11.279c5.729-8.718,20.183-11.955,28.643-2.605a3.291,3.291,0,0,0,2.147.963c7.193.132,12.607,2.778,14.94,10.1a2.214,2.214,0,0,0,1.447,1.026,13.358,13.358,0,0,1,10.46,10.7c1.341,5.834.515,11.132-4.073,15.387a18.313,18.313,0,0,1-9.373,4.566,2.716,2.716,0,0,1-3.393-1.945c-.291-1.378.619-2.473,2.191-3.059a30.205,30.205,0,0,0,6.268-2.739c3.711-2.47,4.7-6.8,3.154-11.952-1.168-3.9-3.927-5.892-8.481-6.149C2057.795,640.359,2056.9,640.269,2055.99,640.2Z" fill="#8d8d8d"/>
      <path id="パス_331" data-name="パス 331" d="M2021.143,663.574a3.645,3.645,0,0,1,3.83-3.726,3.862,3.862,0,0,1,3.727,3.737,3.955,3.955,0,0,1-3.828,3.861A3.739,3.739,0,0,1,2021.143,663.574Z" fill="#8e8e8e"/>
      <path id="パス_332" data-name="パス 332" d="M2044.846,663.673a3.649,3.649,0,0,1,3.727-3.825,3.825,3.825,0,0,1,3.81,3.827,3.943,3.943,0,0,1-3.72,3.771A3.72,3.72,0,0,1,2044.846,663.673Z" fill="#8e8e8e"/>
      <path id="パス_333" data-name="パス 333" d="M2036.784,662.022a3.733,3.733,0,0,1,3.728,3.871,3.888,3.888,0,0,1-3.764,3.719,3.928,3.928,0,0,1-3.841-3.849A3.757,3.757,0,0,1,2036.784,662.022Z" fill="#8e8e8e"/>
      <path id="パス_334" data-name="パス 334" d="M2036.78,681.384a3.788,3.788,0,0,1-3.873-3.753,3.8,3.8,0,0,1,7.6-.114A3.729,3.729,0,0,1,2036.78,681.384Z" fill="#8e8e8e"/>
      <path id="パス_335" data-name="パス 335" d="M2024.93,679.215a3.608,3.608,0,0,1-3.788-3.745,3.839,3.839,0,0,1,3.6-3.826,3.951,3.951,0,0,1,3.957,3.907A3.822,3.822,0,0,1,2024.93,679.215Z" fill="#8e8e8e"/>
      <path id="パス_336" data-name="パス 336" d="M2048.509,679.215a3.731,3.731,0,0,1-3.727-3.853,3.9,3.9,0,0,1,3.753-3.718,3.956,3.956,0,0,1,3.844,3.833A3.781,3.781,0,0,1,2048.509,679.215Z" fill="#8e8e8e"/>
    </g>
  </g>
</svg>
