<svg xmlns="http://www.w3.org/2000/svg" width="215.826" height="104.278" viewBox="0 0 215.826 104.278">
  <g id="icon_day04_03" transform="translate(-1985.06 -745.06)">
    <line id="線_10" data-name="線 10" y2="53.207" transform="translate(2094.007 769.457)" fill="none" stroke="#bbb" stroke-linecap="round" stroke-miterlimit="10" stroke-width="4"/>
    <g id="グループ_36" data-name="グループ 36">
      <path id="パス_246" data-name="パス 246" d="M2200.886,849.06h-104v-104h104Zm-33.142-61.988c.886,0,1.556-.037,2.22.006,5.383.354,8.4,2.711,9.354,7.286,1.211,5.8-.563,9.979-5.567,12.276a26.587,26.587,0,0,1-6.115,1.538c-1.517.289-2.486.951-2.534,2.568a2.412,2.412,0,0,0,2.5,2.552c9.534.708,17.891-7.557,17.134-17.065-.439-5.508-2.518-10.125-7.784-12.729a19.48,19.48,0,0,1-6.2-5.687c-2.969-4.78-7.537-6.377-12.883-6.52a3.784,3.784,0,0,1-2.523-.891c-6.274-7.132-16.743-7.293-24.066-2.221-5.6,3.881-7.678,9.657-8.468,16.074a2.339,2.339,0,0,1-1.612,2.279,12.715,12.715,0,0,0-7.713,13.361c1.135,8.442,7.174,13.564,15.814,13.413,1.979-.035,3.111-.954,3.122-2.535s-1.124-2.43-3.094-2.594a19.427,19.427,0,0,1-4.812-.8c-4.169-1.472-6.418-5.588-5.815-10.224.512-3.941,2.949-6.041,7.718-6.469,1.226-.11,1.258-.646,1.244-1.65a25.545,25.545,0,0,1,2.537-12.181c3.838-7.538,16.742-10.594,22.518-1.3a2.1,2.1,0,0,0,2.534,1.073,15.067,15.067,0,0,1,3.814-.119c4.982.421,7.842,2.948,8.513,7.468C2167.725,784.916,2167.688,785.886,2167.744,787.072Zm-10.417,28.046c0,2.85-.03,5.7.01,8.549.026,1.845,1.006,2.916,2.532,2.916s2.552-1.082,2.564-2.908q.057-8.457,0-16.915c-.012-1.955-1.036-3.034-2.651-2.986-1.552.046-2.426,1.058-2.45,2.978C2157.3,809.54,2157.325,812.329,2157.327,815.118Zm-21.532-.02c0,2.85-.025,5.7.009,8.549.022,1.839.993,2.927,2.506,2.939s2.573-1.063,2.587-2.892q.069-8.547,0-17.1c-.016-1.836-1.076-2.86-2.632-2.825s-2.439,1.051-2.46,2.959C2135.772,809.52,2135.795,812.309,2135.795,815.1Zm10.742,3.116c0,2.848-.018,5.7.007,8.545.017,1.98.96,3.042,2.6,3.021,1.579-.021,2.482-1.032,2.489-2.922q.031-8.454,0-16.908c-.007-1.9-.9-2.9-2.48-2.928-1.638-.026-2.587,1.037-2.6,3.01C2146.518,812.759,2146.537,815.486,2146.537,818.214Z" fill="#fefefe" opacity="0"/>
      <path id="パス_247" data-name="パス 247" d="M2167.744,787.072c-.056-1.186-.019-2.156-.16-3.1-.671-4.52-3.531-7.047-8.513-7.468a15.067,15.067,0,0,0-3.814.119,2.1,2.1,0,0,1-2.534-1.073c-5.776-9.289-18.68-6.233-22.518,1.3a25.545,25.545,0,0,0-2.537,12.181c.014,1-.018,1.54-1.244,1.65-4.769.428-7.206,2.528-7.718,6.469-.6,4.636,1.646,8.752,5.815,10.224a19.427,19.427,0,0,0,4.812.8c1.97.164,3.1,1.017,3.094,2.594s-1.143,2.5-3.122,2.535c-8.64.151-14.679-4.971-15.814-13.413a12.715,12.715,0,0,1,7.713-13.361,2.339,2.339,0,0,0,1.612-2.279c.79-6.417,2.863-12.193,8.468-16.074,7.323-5.072,17.792-4.911,24.066,2.221a3.784,3.784,0,0,0,2.523.891c5.346.143,9.914,1.74,12.883,6.52a19.48,19.48,0,0,0,6.2,5.687c5.266,2.6,7.345,7.221,7.784,12.729.757,9.508-7.6,17.773-17.134,17.065a2.412,2.412,0,0,1-2.5-2.552c.048-1.617,1.017-2.279,2.534-2.568a26.587,26.587,0,0,0,6.115-1.538c5-2.3,6.778-6.476,5.567-12.276-.955-4.575-3.971-6.932-9.354-7.286C2169.3,787.035,2168.63,787.072,2167.744,787.072Z" fill="#77769c"/>
      <path id="パス_248" data-name="パス 248" d="M2157.326,815.118c0-2.789-.026-5.578.008-8.366.024-1.92.9-2.932,2.45-2.978,1.615-.048,2.639,1.031,2.651,2.986q.051,8.457,0,16.915c-.012,1.826-1.045,2.907-2.564,2.908s-2.506-1.071-2.532-2.916C2157.3,820.818,2157.327,817.968,2157.326,815.118Z" fill="#36479a"/>
      <path id="パス_249" data-name="パス 249" d="M2135.795,815.1c0-2.789-.023-5.578.008-8.366.021-1.908.9-2.924,2.46-2.959s2.616.989,2.632,2.825q.075,8.547,0,17.1c-.014,1.829-1.072,2.9-2.587,2.892s-2.484-1.1-2.506-2.939C2135.77,820.8,2135.795,817.948,2135.795,815.1Z" fill="#36479a"/>
      <path id="パス_250" data-name="パス 250" d="M2146.537,818.214c0-2.728-.019-5.455.007-8.182.018-1.973.967-3.036,2.6-3.01,1.583.025,2.473,1.028,2.48,2.928q.03,8.454,0,16.908c-.007,1.89-.91,2.9-2.489,2.922-1.636.021-2.579-1.041-2.6-3.021C2146.519,823.91,2146.537,821.062,2146.537,818.214Z" fill="#349"/>
    </g>
    <g id="グループ_50" data-name="グループ 50">
      <path id="パス_337" data-name="パス 337" d="M1985.06,745.338h104v104h-104Zm70.93,42.383c.908.073,1.8.163,2.705.214,4.554.258,7.313,2.253,8.481,6.149,1.546,5.155.557,9.482-3.154,11.953a30.261,30.261,0,0,1-6.268,2.738c-1.572.587-2.482,1.681-2.191,3.059a2.717,2.717,0,0,0,3.393,1.946,18.329,18.329,0,0,0,9.373-4.566c4.588-4.255,5.414-9.553,4.073-15.387a13.359,13.359,0,0,0-10.46-10.7,2.207,2.207,0,0,1-1.447-1.026c-2.333-7.325-7.747-9.971-14.94-10.1a3.3,3.3,0,0,1-2.147-.964c-8.46-9.349-22.914-6.113-28.643,2.606a26.817,26.817,0,0,0-3.842,11.278c-.106.759-.6,1.881-1.184,2.091-7.863,2.83-10.594,12.949-5.773,20.363a14.248,14.248,0,0,0,11.945,6.6,2.333,2.333,0,0,0,2.677-2.162c.216-1.6-.733-2.482-2.194-2.87a10.714,10.714,0,0,0-1.086-.113c-3.912-.613-6.772-2.553-8.066-6.442-1.833-5.511.912-10.056,6.6-10.939.642-.1,1.288-.177,1.952-.268a29.7,29.7,0,0,1,1.785-11.9c2.088-5.272,6.192-8.049,11.651-8.668,5.026-.569,8.964,1.495,11.781,5.757a2.965,2.965,0,0,0,2.032.991c1.8.145,3.638-.09,5.431.1a7.716,7.716,0,0,1,7.076,6.546C2055.786,785.179,2055.84,786.392,2055.99,787.721ZM2021.143,811.1a3.74,3.74,0,0,0,3.729,3.873,3.956,3.956,0,0,0,3.828-3.861,3.864,3.864,0,0,0-3.727-3.738A3.646,3.646,0,0,0,2021.143,811.1Zm23.7.1a3.72,3.72,0,0,0,3.817,3.772,3.941,3.941,0,0,0,3.72-3.771,3.825,3.825,0,0,0-3.81-3.827A3.65,3.65,0,0,0,2044.846,811.2Zm-8.062-1.652a3.757,3.757,0,0,0-3.877,3.741,3.928,3.928,0,0,0,3.841,3.849,3.887,3.887,0,0,0,3.764-3.718A3.733,3.733,0,0,0,2036.784,809.547Zm0,19.362a3.729,3.729,0,0,0,3.731-3.867,3.8,3.8,0,0,0-7.6.114A3.788,3.788,0,0,0,2036.78,828.909Zm-11.85-2.169a3.821,3.821,0,0,0,3.77-3.663,3.949,3.949,0,0,0-3.957-3.907,3.838,3.838,0,0,0-3.6,3.825A3.607,3.607,0,0,0,2024.93,826.74Zm23.579,0a3.781,3.781,0,0,0,3.87-3.738,3.955,3.955,0,0,0-3.844-3.832,3.9,3.9,0,0,0-3.753,3.718A3.73,3.73,0,0,0,2048.509,826.74Z" fill="#fefefe" opacity="0"/>
      <path id="パス_338" data-name="パス 338" d="M2055.99,787.721c-.15-1.329-.2-2.542-.436-3.719a7.716,7.716,0,0,0-7.076-6.546c-1.793-.189-3.63.046-5.431-.1a2.965,2.965,0,0,1-2.032-.991c-2.817-4.262-6.755-6.326-11.781-5.757-5.459.619-9.563,3.4-11.651,8.668a29.7,29.7,0,0,0-1.785,11.9c-.664.091-1.31.168-1.952.268-5.692.883-8.437,5.428-6.6,10.939,1.294,3.889,4.154,5.829,8.066,6.442a10.714,10.714,0,0,1,1.086.113c1.461.388,2.41,1.267,2.194,2.87a2.333,2.333,0,0,1-2.677,2.162,14.248,14.248,0,0,1-11.945-6.6c-4.821-7.414-2.09-17.533,5.773-20.363.583-.21,1.078-1.332,1.184-2.091a26.817,26.817,0,0,1,3.842-11.278c5.729-8.719,20.183-11.955,28.643-2.606a3.3,3.3,0,0,0,2.147.964c7.193.131,12.607,2.777,14.94,10.1a2.207,2.207,0,0,0,1.447,1.026,13.359,13.359,0,0,1,10.46,10.7c1.341,5.834.515,11.132-4.073,15.387a18.329,18.329,0,0,1-9.373,4.566,2.717,2.717,0,0,1-3.393-1.946c-.291-1.378.619-2.472,2.191-3.059a30.261,30.261,0,0,0,6.268-2.738c3.711-2.471,4.7-6.8,3.154-11.953-1.168-3.9-3.927-5.891-8.481-6.149C2057.795,787.884,2056.9,787.794,2055.99,787.721Z" fill="#8d8d8d"/>
      <path id="パス_339" data-name="パス 339" d="M2021.143,811.1a3.646,3.646,0,0,1,3.83-3.726,3.864,3.864,0,0,1,3.727,3.738,3.956,3.956,0,0,1-3.828,3.861A3.74,3.74,0,0,1,2021.143,811.1Z" fill="#8e8e8e"/>
      <path id="パス_340" data-name="パス 340" d="M2044.846,811.2a3.65,3.65,0,0,1,3.727-3.826,3.825,3.825,0,0,1,3.81,3.827,3.941,3.941,0,0,1-3.72,3.771A3.72,3.72,0,0,1,2044.846,811.2Z" fill="#8e8e8e"/>
      <path id="パス_341" data-name="パス 341" d="M2036.784,809.547a3.733,3.733,0,0,1,3.728,3.872,3.887,3.887,0,0,1-3.764,3.718,3.928,3.928,0,0,1-3.841-3.849A3.757,3.757,0,0,1,2036.784,809.547Z" fill="#8e8e8e"/>
      <path id="パス_342" data-name="パス 342" d="M2036.78,828.909a3.788,3.788,0,0,1-3.873-3.753,3.8,3.8,0,0,1,7.6-.114A3.729,3.729,0,0,1,2036.78,828.909Z" fill="#8e8e8e"/>
      <path id="パス_343" data-name="パス 343" d="M2024.93,826.74a3.607,3.607,0,0,1-3.788-3.745,3.838,3.838,0,0,1,3.6-3.825,3.949,3.949,0,0,1,3.957,3.907A3.821,3.821,0,0,1,2024.93,826.74Z" fill="#8e8e8e"/>
      <path id="パス_344" data-name="パス 344" d="M2048.509,826.74a3.73,3.73,0,0,1-3.727-3.852,3.9,3.9,0,0,1,3.753-3.718,3.955,3.955,0,0,1,3.844,3.832A3.781,3.781,0,0,1,2048.509,826.74Z" fill="#8e8e8e"/>
    </g>
  </g>
</svg>
