<svg xmlns="http://www.w3.org/2000/svg" width="104" height="104" viewBox="0 0 104 104">
  <g id="icon_hour03" transform="translate(-438.496 -199.103)">
    <path id="パス_46" data-name="パス 46" d="M542.5,303.1h-104v-104h104ZM489.2,275.018c6.631,0,13.264.09,19.892-.053a20.594,20.594,0,0,0,6.219-1.144c6.993-2.433,11-8.128,10.661-15.074-.35-7.187-3.618-13-11.394-14.767-.491-.112-.966-.753-1.243-1.26a35.25,35.25,0,0,0-2.116-4.2c-2.995-4.043-7.28-5.4-12.131-5.538a4.062,4.062,0,0,1-2.676-1c-8.69-9.693-24.733-6.009-29.706,4.567a46.3,46.3,0,0,0-2.654,8.84c-.343,1.414-.615,2.388-2.189,3.086-4.651,2.062-6.995,5.974-7.267,10.947a14.525,14.525,0,0,0,14.71,15.591C475.938,275.083,482.57,275.023,489.2,275.018Z" fill="#fefefe" opacity="0"/>
    <path id="パス_47" data-name="パス 47" d="M489.2,275.021c-6.632,0-13.264.062-19.894-.013a14.525,14.525,0,0,1-14.71-15.591c.272-4.973,2.616-8.885,7.267-10.947,1.574-.7,1.846-1.672,2.189-3.086a46.3,46.3,0,0,1,2.654-8.84c4.973-10.576,21.016-14.26,29.706-4.567a4.062,4.062,0,0,0,2.676,1c4.851.141,9.136,1.495,12.131,5.538a35.25,35.25,0,0,1,2.116,4.2c.277.507.752,1.148,1.243,1.26,7.776,1.769,11.044,7.58,11.394,14.767.339,6.946-3.668,12.641-10.661,15.074a20.594,20.594,0,0,1-6.219,1.144C502.466,275.108,495.833,275.018,489.2,275.021Zm-20.827-22.767c-.387.036-.981.074-1.57.148-3.677.457-6.005,2.383-6.808,5.621a9.408,9.408,0,0,0,9.207,11.844q20.158.159,40.319,0c7.431-.061,12.229-5.984,11.051-13.274a8.471,8.471,0,0,0-8.046-7.587c-1.189-.127-2.374-.283-3.675-.439,0-.66.035-1.2-.005-1.742-.324-4.328-2.376-7.259-6.1-8.1a23.309,23.309,0,0,0-6.116-.342c-1.277.055-2.123-.039-2.857-1.252a11.093,11.093,0,0,0-6.97-5.214,13.869,13.869,0,0,0-16.875,10.357C469.122,245.471,468.891,248.815,468.375,252.254Z" fill="#a1a1a1"/>
    <path id="パス_48" data-name="パス 48" d="M468.375,252.254c.516-3.439.747-6.783,1.552-9.983A13.869,13.869,0,0,1,486.8,231.914a11.093,11.093,0,0,1,6.97,5.214c.734,1.213,1.58,1.307,2.857,1.252a23.309,23.309,0,0,1,6.116.342c3.727.845,5.779,3.776,6.1,8.1.04.538.005,1.082.005,1.742,1.3.156,2.486.312,3.675.439a8.471,8.471,0,0,1,8.046,7.587c1.178,7.29-3.62,13.213-11.051,13.274q-20.158.166-40.319,0A9.408,9.408,0,0,1,460,258.023c.8-3.238,3.131-5.164,6.808-5.621C467.394,252.328,467.988,252.29,468.375,252.254Z" fill="#fefefe" opacity="0"/>
  </g>
</svg>
