<svg xmlns="http://www.w3.org/2000/svg" width="216.047" height="104.553" viewBox="0 0 216.047 104.553">
  <g id="icon_day04_01" transform="translate(-1985.06 -455.23)">
    <line id="線_12" data-name="線 12" y2="53.207" transform="translate(2094.007 480.147)" fill="none" stroke="#bbb" stroke-linecap="round" stroke-miterlimit="10" stroke-width="4"/>
    <g id="グループ_47" data-name="グループ 47">
      <path id="パス_310" data-name="パス 310" d="M2201.107,559.23h-104v-104h104Zm-51.789-70.578c-9.712-.256-18.376,7.857-18.649,17.462-.3,10.608,7.51,19.228,17.684,19.514,10.293.29,18.955-7.669,19.2-17.636C2167.806,497.243,2159.973,488.932,2149.318,488.652Zm2.333,50.71c0-1.273.056-2.548-.014-3.816a2.618,2.618,0,0,0-2.58-2.727,2.575,2.575,0,0,0-2.561,2.743c-.074,2.542-.063,5.089-.005,7.632a2.633,2.633,0,0,0,2.493,2.824c1.466.057,2.564-1.07,2.656-2.841C2151.706,541.908,2151.653,540.634,2151.651,539.362Zm-5.175-64.012h.01c0,1.331-.086,2.67.023,3.992a2.427,2.427,0,0,0,2.547,2.523,2.343,2.343,0,0,0,2.541-2.5c.095-2.659.1-5.326.017-7.986a2.51,2.51,0,0,0-2.628-2.643,2.614,2.614,0,0,0-2.5,2.8C2146.431,472.8,2146.476,474.079,2146.476,475.35Zm-23.033,3.612c-.768.623-1.877,1.083-2.074,1.795a3.673,3.673,0,0,0,.512,2.923,72.823,72.823,0,0,0,5.34,5.44c1.33,1.289,2.733,1.335,3.843.219,1.063-1.069.991-2.56-.265-3.852-1.729-1.781-3.478-3.544-5.275-5.257A12.6,12.6,0,0,0,2123.443,478.962Zm8.723,47.993c-.683-.765-1.178-1.8-1.912-2.014a3.407,3.407,0,0,0-2.756.508c-1.973,1.686-3.754,3.6-5.565,5.474a2.512,2.512,0,0,0-.213,3.719c1.077,1.123,2.535,1.1,3.856-.165,1.791-1.718,3.553-3.471,5.258-5.275A12.948,12.948,0,0,0,2132.166,526.955Zm45.236-45.389c-.617-.691-1.113-1.731-1.844-1.937a3.453,3.453,0,0,0-2.771.522c-1.981,1.693-3.765,3.621-5.589,5.493a2.482,2.482,0,0,0-.2,3.6,2.421,2.421,0,0,0,3.717.072c1.941-1.839,3.82-3.746,5.66-5.687A9.113,9.113,0,0,0,2177.4,481.566Zm-8.686,42.693c-.781.656-1.846,1.116-2.005,1.79a3.832,3.832,0,0,0,.5,2.953,70.572,70.572,0,0,0,5.227,5.339c1.378,1.347,2.725,1.463,3.859.408s1.057-2.676-.247-4.015c-1.655-1.7-3.318-3.392-5.045-5.016A15.319,15.319,0,0,0,2168.716,524.259Zm-51.662-19.422c-1.33,0-2.661-.021-3.991.006a2.531,2.531,0,0,0-.146,5.059c2.718.1,5.444.1,8.163.007a2.455,2.455,0,0,0,2.533-2.556,2.547,2.547,0,0,0-2.749-2.511C2119.6,504.8,2118.324,504.834,2117.054,504.837Zm64.067,5.108q1.732,0,3.464,0c.121,0,.243,0,.364-.005,1.711-.119,2.7-1.071,2.693-2.583-.01-1.537-.98-2.481-2.724-2.512-2.491-.043-4.983-.035-7.474-.005-1.769.021-2.951,1.083-2.929,2.543.022,1.482,1.173,2.5,2.961,2.554C2178.69,509.975,2179.906,509.945,2181.121,509.945Z" fill="#fefefe" opacity="0"/>
      <path id="パス_311" data-name="パス 311" d="M2149.318,488.652c10.655.28,18.488,8.591,18.23,19.34-.24,9.967-8.9,17.926-19.2,17.636-10.174-.286-17.985-8.906-17.684-19.514C2130.942,496.509,2139.606,488.4,2149.318,488.652Zm-.207,5.161a13.361,13.361,0,1,0,13.347,13.291A13.276,13.276,0,0,0,2149.111,493.813Z" fill="#ef8a3e"/>
      <path id="パス_312" data-name="パス 312" d="M2151.652,539.362c0,1.272.054,2.546-.012,3.815-.092,1.771-1.19,2.9-2.656,2.841a2.633,2.633,0,0,1-2.493-2.824c-.058-2.543-.069-5.09.005-7.632a2.575,2.575,0,0,1,2.561-2.743,2.618,2.618,0,0,1,2.58,2.727C2151.707,536.814,2151.651,538.089,2151.652,539.362Z" fill="#f08c41"/>
      <path id="パス_313" data-name="パス 313" d="M2146.476,475.35c0-1.271-.045-2.545.011-3.813a2.614,2.614,0,0,1,2.5-2.8,2.51,2.51,0,0,1,2.628,2.643c.086,2.66.078,5.327-.017,7.986a2.343,2.343,0,0,1-2.541,2.5,2.427,2.427,0,0,1-2.547-2.523c-.109-1.322-.023-2.661-.023-3.992Z" fill="#f08c41"/>
      <path id="パス_314" data-name="パス 314" d="M2123.443,478.962a12.6,12.6,0,0,1,2.081,1.268c1.8,1.713,3.546,3.476,5.275,5.257,1.256,1.292,1.328,2.783.265,3.852-1.11,1.116-2.513,1.07-3.843-.219a72.823,72.823,0,0,1-5.34-5.44,3.673,3.673,0,0,1-.512-2.923C2121.566,480.045,2122.675,479.585,2123.443,478.962Z" fill="#ef8b40"/>
      <path id="パス_315" data-name="パス 315" d="M2132.166,526.955a12.948,12.948,0,0,1-1.332,2.247c-1.705,1.8-3.467,3.557-5.258,5.275-1.321,1.268-2.779,1.288-3.856.165a2.512,2.512,0,0,1,.213-3.719c1.811-1.871,3.592-3.788,5.565-5.474a3.407,3.407,0,0,1,2.756-.508C2130.988,525.154,2131.483,526.19,2132.166,526.955Z" fill="#ef8b40"/>
      <path id="パス_316" data-name="パス 316" d="M2177.4,481.566a9.113,9.113,0,0,1-1.027,2.067c-1.84,1.941-3.719,3.848-5.66,5.687a2.421,2.421,0,0,1-3.717-.072,2.482,2.482,0,0,1,.2-3.6c1.824-1.872,3.608-3.8,5.589-5.493a3.453,3.453,0,0,1,2.771-.522C2176.289,479.835,2176.785,480.875,2177.4,481.566Z" fill="#ef8b3f"/>
      <path id="パス_317" data-name="パス 317" d="M2168.716,524.259a15.319,15.319,0,0,1,2.288,1.459c1.727,1.624,3.39,3.317,5.045,5.016,1.3,1.339,1.377,2.962.247,4.015s-2.481.939-3.859-.408A70.572,70.572,0,0,1,2167.21,529a3.832,3.832,0,0,1-.5-2.953C2166.87,525.375,2167.935,524.915,2168.716,524.259Z" fill="#ef8b3f"/>
      <path id="パス_318" data-name="パス 318" d="M2117.054,504.836c1.27,0,2.542-.035,3.81.006a2.547,2.547,0,0,1,2.749,2.511,2.455,2.455,0,0,1-2.533,2.556c-2.719.088-5.445.1-8.163-.007a2.531,2.531,0,0,1,.146-5.059C2114.393,504.816,2115.724,504.837,2117.054,504.836Z" fill="#ef8b3e"/>
      <path id="パス_319" data-name="パス 319" d="M2181.121,509.945c-1.215,0-2.431.03-3.645-.008-1.788-.055-2.939-1.072-2.961-2.554-.022-1.46,1.16-2.522,2.929-2.543,2.491-.03,4.983-.038,7.474.005,1.744.031,2.714.975,2.724,2.512.01,1.512-.982,2.464-2.693,2.583-.121.008-.243.005-.364.005Q2182.852,509.947,2181.121,509.945Z" fill="#ef8a3e"/>
      <path id="パス_320" data-name="パス 320" d="M2149.111,493.813A13.361,13.361,0,1,1,2135.76,507.1,13.278,13.278,0,0,1,2149.111,493.813Z" fill="#fefdfd" opacity="0"/>
    </g>
    <g id="グループ_48" data-name="グループ 48">
      <path id="パス_321" data-name="パス 321" d="M1985.06,455.783h104v104h-104Zm70.93,42.384c.908.073,1.8.163,2.705.214,4.554.257,7.313,2.253,8.481,6.149,1.546,5.155.557,9.482-3.154,11.952a30.208,30.208,0,0,1-6.268,2.739c-1.572.586-2.482,1.681-2.191,3.059a2.716,2.716,0,0,0,3.393,1.945,18.313,18.313,0,0,0,9.373-4.566c4.588-4.255,5.414-9.553,4.073-15.387a13.358,13.358,0,0,0-10.46-10.7,2.214,2.214,0,0,1-1.447-1.026c-2.333-7.325-7.747-9.971-14.94-10.1a3.292,3.292,0,0,1-2.147-.963c-8.46-9.35-22.914-6.113-28.643,2.605a26.827,26.827,0,0,0-3.842,11.279c-.106.758-.6,1.881-1.184,2.091-7.863,2.83-10.594,12.948-5.773,20.363a14.244,14.244,0,0,0,11.945,6.6,2.332,2.332,0,0,0,2.677-2.161c.216-1.6-.733-2.482-2.194-2.871a10.732,10.732,0,0,0-1.086-.112c-3.912-.613-6.772-2.553-8.066-6.442-1.833-5.511.912-10.056,6.6-10.939.642-.1,1.288-.178,1.952-.268a29.7,29.7,0,0,1,1.785-11.9c2.088-5.272,6.192-8.05,11.651-8.668,5.026-.569,8.964,1.494,11.781,5.756a2.957,2.957,0,0,0,2.032.991c1.8.146,3.638-.089,5.431.1a7.715,7.715,0,0,1,7.076,6.545C2055.786,495.625,2055.84,496.838,2055.99,498.167Zm-34.847,23.378a3.739,3.739,0,0,0,3.729,3.872,3.956,3.956,0,0,0,3.828-3.861,3.862,3.862,0,0,0-3.727-3.737A3.645,3.645,0,0,0,2021.143,521.545Zm23.7.1a3.721,3.721,0,0,0,3.817,3.773,3.943,3.943,0,0,0,3.72-3.771,3.825,3.825,0,0,0-3.81-3.827A3.649,3.649,0,0,0,2044.846,521.644Zm-8.062-1.651a3.757,3.757,0,0,0-3.877,3.741,3.928,3.928,0,0,0,3.841,3.849,3.888,3.888,0,0,0,3.764-3.719A3.733,3.733,0,0,0,2036.784,519.993Zm0,19.362a3.729,3.729,0,0,0,3.731-3.867,3.8,3.8,0,0,0-7.6.114A3.788,3.788,0,0,0,2036.78,539.355Zm-11.85-2.169a3.822,3.822,0,0,0,3.77-3.664,3.951,3.951,0,0,0-3.957-3.907,3.839,3.839,0,0,0-3.6,3.826A3.608,3.608,0,0,0,2024.93,537.186Zm23.579,0a3.781,3.781,0,0,0,3.87-3.738,3.956,3.956,0,0,0-3.844-3.833,3.9,3.9,0,0,0-3.753,3.718A3.731,3.731,0,0,0,2048.509,537.186Z" fill="#fefefe" opacity="0"/>
      <path id="パス_322" data-name="パス 322" d="M2055.99,498.167c-.15-1.329-.2-2.542-.436-3.72a7.715,7.715,0,0,0-7.076-6.545c-1.793-.189-3.63.046-5.431-.1a2.957,2.957,0,0,1-2.032-.991c-2.817-4.262-6.755-6.325-11.781-5.756-5.459.618-9.563,3.4-11.651,8.668a29.7,29.7,0,0,0-1.785,11.9c-.664.09-1.31.168-1.952.268-5.692.883-8.437,5.428-6.6,10.939,1.294,3.889,4.154,5.829,8.066,6.442a10.732,10.732,0,0,1,1.086.112c1.461.389,2.41,1.268,2.194,2.871a2.332,2.332,0,0,1-2.677,2.161,14.244,14.244,0,0,1-11.945-6.6c-4.821-7.415-2.09-17.533,5.773-20.363.583-.21,1.078-1.333,1.184-2.091a26.827,26.827,0,0,1,3.842-11.279c5.729-8.718,20.183-11.955,28.643-2.605a3.292,3.292,0,0,0,2.147.963c7.193.132,12.607,2.778,14.94,10.1a2.214,2.214,0,0,0,1.447,1.026,13.358,13.358,0,0,1,10.46,10.7c1.341,5.834.515,11.132-4.073,15.387a18.313,18.313,0,0,1-9.373,4.566,2.716,2.716,0,0,1-3.393-1.945c-.291-1.378.619-2.473,2.191-3.059a30.208,30.208,0,0,0,6.268-2.739c3.711-2.47,4.7-6.8,3.154-11.952-1.168-3.9-3.927-5.892-8.481-6.149C2057.795,498.33,2056.9,498.24,2055.99,498.167Z" fill="#8d8d8d"/>
      <path id="パス_323" data-name="パス 323" d="M2021.143,521.545a3.645,3.645,0,0,1,3.83-3.726,3.862,3.862,0,0,1,3.727,3.737,3.956,3.956,0,0,1-3.828,3.861A3.739,3.739,0,0,1,2021.143,521.545Z" fill="#8e8e8e"/>
      <path id="パス_324" data-name="パス 324" d="M2044.846,521.644a3.649,3.649,0,0,1,3.727-3.825,3.825,3.825,0,0,1,3.81,3.827,3.943,3.943,0,0,1-3.72,3.771A3.721,3.721,0,0,1,2044.846,521.644Z" fill="#8e8e8e"/>
      <path id="パス_325" data-name="パス 325" d="M2036.784,519.993a3.733,3.733,0,0,1,3.728,3.871,3.888,3.888,0,0,1-3.764,3.719,3.928,3.928,0,0,1-3.841-3.849A3.757,3.757,0,0,1,2036.784,519.993Z" fill="#8e8e8e"/>
      <path id="パス_326" data-name="パス 326" d="M2036.78,539.355a3.788,3.788,0,0,1-3.873-3.753,3.8,3.8,0,0,1,7.6-.114A3.729,3.729,0,0,1,2036.78,539.355Z" fill="#8e8e8e"/>
      <path id="パス_327" data-name="パス 327" d="M2024.93,537.186a3.608,3.608,0,0,1-3.788-3.745,3.839,3.839,0,0,1,3.6-3.826,3.951,3.951,0,0,1,3.957,3.907A3.822,3.822,0,0,1,2024.93,537.186Z" fill="#8e8e8e"/>
      <path id="パス_328" data-name="パス 328" d="M2048.509,537.186a3.731,3.731,0,0,1-3.727-3.853,3.9,3.9,0,0,1,3.753-3.718,3.956,3.956,0,0,1,3.844,3.833A3.781,3.781,0,0,1,2048.509,537.186Z" fill="#8e8e8e"/>
    </g>
  </g>
</svg>
