<svg xmlns="http://www.w3.org/2000/svg" width="217.42" height="104.042" viewBox="0 0 217.42 104.042">
  <g id="icon_day02_04" transform="translate(-1042.264 -455.23)">
    <path id="パス_4" data-name="パス 4" d="M1137.619,543.994h29.929l-7.981-10.974" fill="none" stroke="#bbb" stroke-linecap="round" stroke-linejoin="round" stroke-width="4"/>
    <g id="グループ_8" data-name="グループ 8">
      <path id="パス_58" data-name="パス 58" d="M1146.264,559.272h-104v-104h104Zm-53.3-28.085c6.632,0,13.265.09,19.893-.053a20.6,20.6,0,0,0,6.219-1.144c6.993-2.433,11-8.128,10.661-15.074-.35-7.187-3.618-13-11.394-14.767-.491-.112-.967-.752-1.244-1.259a35.037,35.037,0,0,0-2.115-4.2c-2.995-4.043-7.281-5.4-12.131-5.538a4.061,4.061,0,0,1-2.676-1c-8.69-9.693-24.734-6.01-29.707,4.566a46.355,46.355,0,0,0-2.654,8.841c-.342,1.414-.614,2.387-2.188,3.085-4.651,2.063-7,5.975-7.268,10.947a14.527,14.527,0,0,0,14.711,15.591C1079.706,531.252,1086.338,531.192,1092.969,531.187Z" fill="#fefefe" opacity="0"/>
      <path id="パス_59" data-name="パス 59" d="M1092.969,531.19c-6.631,0-13.263.062-19.893-.013a14.527,14.527,0,0,1-14.711-15.591c.273-4.972,2.617-8.884,7.268-10.947,1.574-.7,1.846-1.671,2.188-3.085a46.355,46.355,0,0,1,2.654-8.841c4.973-10.576,21.017-14.259,29.707-4.566a4.061,4.061,0,0,0,2.676,1c4.85.142,9.136,1.495,12.131,5.538a35.037,35.037,0,0,1,2.115,4.2c.277.507.753,1.147,1.244,1.259,7.776,1.769,11.044,7.58,11.394,14.767.338,6.946-3.668,12.641-10.661,15.074a20.6,20.6,0,0,1-6.219,1.144C1106.234,531.277,1099.6,531.187,1092.969,531.19Zm-20.826-22.767c-.388.036-.981.075-1.571.148-3.676.457-6.005,2.383-6.808,5.621a9.41,9.41,0,0,0,9.207,11.845q20.159.158,40.32,0c7.43-.061,12.229-5.984,11.05-13.274a8.469,8.469,0,0,0-8.045-7.587c-1.189-.127-2.375-.282-3.675-.438,0-.661.035-1.205-.005-1.743-.324-4.328-2.376-7.259-6.1-8.1a23.357,23.357,0,0,0-6.117-.342c-1.276.056-2.123-.039-2.856-1.252a11.1,11.1,0,0,0-6.97-5.214,13.868,13.868,0,0,0-16.875,10.358C1072.89,501.64,1072.659,504.984,1072.143,508.423Z" fill="#a1a1a1"/>
      <path id="パス_60" data-name="パス 60" d="M1072.143,508.423c.516-3.439.747-6.783,1.552-9.982a13.868,13.868,0,0,1,16.875-10.358,11.1,11.1,0,0,1,6.97,5.214c.733,1.213,1.58,1.308,2.856,1.252a23.357,23.357,0,0,1,6.117.342c3.727.845,5.779,3.776,6.1,8.1.04.538.005,1.082.005,1.743,1.3.156,2.486.311,3.675.438a8.469,8.469,0,0,1,8.045,7.587c1.179,7.29-3.62,13.213-11.05,13.274q-20.158.167-40.32,0a9.41,9.41,0,0,1-9.207-11.845c.8-3.238,3.132-5.164,6.808-5.621C1071.162,508.5,1071.755,508.459,1072.143,508.423Z" fill="#fefefe" opacity="0"/>
    </g>
    <g id="グループ_23" data-name="グループ 23">
      <path id="パス_165" data-name="パス 165" d="M1259.684,559.23h-104v-104h104ZM1207.9,488.652c-9.712-.256-18.377,7.857-18.649,17.462-.3,10.608,7.51,19.228,17.683,19.514,10.293.29,18.955-7.669,19.2-17.636C1226.383,497.243,1218.549,488.932,1207.9,488.652Zm2.332,50.71c0-1.273.056-2.548-.014-3.816a2.617,2.617,0,0,0-2.579-2.727,2.575,2.575,0,0,0-2.562,2.743c-.074,2.542-.063,5.089-.005,7.632a2.634,2.634,0,0,0,2.493,2.824c1.467.057,2.565-1.07,2.656-2.841C1210.282,541.908,1210.229,540.634,1210.227,539.362Zm-5.174-64.012h.009c0,1.331-.085,2.67.023,3.992a2.427,2.427,0,0,0,2.547,2.523,2.344,2.344,0,0,0,2.541-2.5c.095-2.659.1-5.326.018-7.986a2.51,2.51,0,0,0-2.629-2.643,2.612,2.612,0,0,0-2.5,2.8C1205.007,472.8,1205.053,474.079,1205.053,475.35Zm-23.034,3.612c-.768.623-1.877,1.083-2.074,1.795a3.673,3.673,0,0,0,.512,2.923,72.848,72.848,0,0,0,5.34,5.44c1.33,1.289,2.733,1.335,3.843.219,1.063-1.069.992-2.56-.264-3.852-1.73-1.781-3.479-3.544-5.275-5.257A12.662,12.662,0,0,0,1182.019,478.962Zm8.723,47.993c-.683-.765-1.178-1.8-1.912-2.014a3.4,3.4,0,0,0-2.755.508c-1.974,1.686-3.755,3.6-5.566,5.474a2.512,2.512,0,0,0-.213,3.719c1.077,1.123,2.536,1.1,3.856-.165,1.792-1.718,3.553-3.471,5.258-5.275A12.957,12.957,0,0,0,1190.742,526.955Zm45.236-45.389c-.617-.691-1.113-1.731-1.843-1.937a3.455,3.455,0,0,0-2.772.522c-1.981,1.693-3.764,3.621-5.589,5.493a2.482,2.482,0,0,0-.2,3.6,2.421,2.421,0,0,0,3.717.072c1.941-1.839,3.82-3.746,5.66-5.687A9.078,9.078,0,0,0,1235.978,481.566Zm-8.685,42.693c-.782.656-1.846,1.116-2.006,1.79a3.831,3.831,0,0,0,.5,2.953,70.547,70.547,0,0,0,5.227,5.339c1.378,1.347,2.725,1.463,3.859.408s1.057-2.676-.247-4.015c-1.654-1.7-3.318-3.392-5.044-5.016A15.374,15.374,0,0,0,1227.293,524.259Zm-51.662-19.422c-1.331,0-2.662-.021-3.992.006a2.531,2.531,0,0,0-.145,5.059c2.717.1,5.444.1,8.162.007a2.455,2.455,0,0,0,2.533-2.556,2.546,2.546,0,0,0-2.748-2.511C1178.172,504.8,1176.9,504.834,1175.631,504.837Zm64.067,5.108q1.731,0,3.463,0c.122,0,.244,0,.365-.005,1.71-.119,2.7-1.071,2.693-2.583-.01-1.537-.981-2.481-2.725-2.512-2.491-.043-4.983-.035-7.474-.005-1.769.021-2.95,1.083-2.929,2.543.023,1.482,1.173,2.5,2.961,2.554C1237.266,509.975,1238.483,509.945,1239.7,509.945Z" fill="#fefefe" opacity="0"/>
      <path id="パス_166" data-name="パス 166" d="M1207.9,488.652c10.654.28,18.488,8.591,18.229,19.34-.24,9.967-8.9,17.926-19.2,17.636-10.173-.286-17.984-8.906-17.683-19.514C1189.518,496.509,1198.183,488.4,1207.9,488.652Zm-.208,5.161a13.361,13.361,0,1,0,13.347,13.291A13.276,13.276,0,0,0,1207.687,493.813Z" fill="#ef8a3e"/>
      <path id="パス_167" data-name="パス 167" d="M1210.228,539.362c0,1.272.054,2.546-.012,3.815-.091,1.771-1.189,2.9-2.656,2.841a2.634,2.634,0,0,1-2.493-2.824c-.058-2.543-.069-5.09.005-7.632a2.575,2.575,0,0,1,2.562-2.743,2.617,2.617,0,0,1,2.579,2.727C1210.283,536.814,1210.227,538.089,1210.228,539.362Z" fill="#f08c41"/>
      <path id="パス_168" data-name="パス 168" d="M1205.053,475.35c0-1.271-.046-2.545.011-3.813a2.612,2.612,0,0,1,2.5-2.8,2.51,2.51,0,0,1,2.629,2.643c.085,2.66.077,5.327-.018,7.986a2.344,2.344,0,0,1-2.541,2.5,2.427,2.427,0,0,1-2.547-2.523c-.108-1.322-.023-2.661-.023-3.992Z" fill="#f08c41"/>
      <path id="パス_169" data-name="パス 169" d="M1182.019,478.962a12.662,12.662,0,0,1,2.082,1.268c1.8,1.713,3.545,3.476,5.275,5.257,1.256,1.292,1.327,2.783.264,3.852-1.11,1.116-2.513,1.07-3.843-.219a72.848,72.848,0,0,1-5.34-5.44,3.673,3.673,0,0,1-.512-2.923C1180.142,480.045,1181.251,479.585,1182.019,478.962Z" fill="#ef8b40"/>
      <path id="パス_170" data-name="パス 170" d="M1190.742,526.955a12.957,12.957,0,0,1-1.332,2.247c-1.705,1.8-3.466,3.557-5.258,5.275-1.32,1.268-2.779,1.288-3.856.165a2.512,2.512,0,0,1,.213-3.719c1.811-1.871,3.592-3.788,5.566-5.474a3.4,3.4,0,0,1,2.755-.508C1189.564,525.154,1190.059,526.19,1190.742,526.955Z" fill="#ef8b40"/>
      <path id="パス_171" data-name="パス 171" d="M1235.978,481.566a9.078,9.078,0,0,1-1.027,2.067c-1.84,1.941-3.719,3.848-5.66,5.687a2.421,2.421,0,0,1-3.717-.072,2.482,2.482,0,0,1,.2-3.6c1.825-1.872,3.608-3.8,5.589-5.493a3.455,3.455,0,0,1,2.772-.522C1234.865,479.835,1235.361,480.875,1235.978,481.566Z" fill="#ef8b3f"/>
      <path id="パス_172" data-name="パス 172" d="M1227.293,524.259a15.374,15.374,0,0,1,2.288,1.459c1.726,1.624,3.39,3.317,5.044,5.016,1.3,1.339,1.378,2.962.247,4.015s-2.481.939-3.859-.408a70.547,70.547,0,0,1-5.227-5.339,3.831,3.831,0,0,1-.5-2.953C1225.447,525.375,1226.511,524.915,1227.293,524.259Z" fill="#ef8b3f"/>
      <path id="パス_173" data-name="パス 173" d="M1175.631,504.836c1.27,0,2.541-.035,3.81.006a2.546,2.546,0,0,1,2.748,2.511,2.455,2.455,0,0,1-2.533,2.556c-2.718.088-5.445.1-8.162-.007a2.531,2.531,0,0,1,.145-5.059C1172.969,504.816,1174.3,504.837,1175.631,504.836Z" fill="#ef8b3e"/>
      <path id="パス_174" data-name="パス 174" d="M1239.7,509.945c-1.215,0-2.432.03-3.646-.008-1.788-.055-2.938-1.072-2.961-2.554-.021-1.46,1.16-2.522,2.929-2.543,2.491-.03,4.983-.038,7.474.005,1.744.031,2.715.975,2.725,2.512.009,1.512-.983,2.464-2.693,2.583-.121.008-.243.005-.365.005Q1241.43,509.947,1239.7,509.945Z" fill="#ef8a3e"/>
      <path id="パス_175" data-name="パス 175" d="M1207.687,493.813a13.361,13.361,0,1,1-13.351,13.287A13.277,13.277,0,0,1,1207.687,493.813Z" fill="#fefdfd" opacity="0"/>
    </g>
  </g>
</svg>
