<svg xmlns="http://www.w3.org/2000/svg" width="218.057" height="104.144" viewBox="0 0 218.057 104.144">
  <g id="icon_day02_06" transform="translate(-1042.264 -744.583)">
    <path id="パス_6" data-name="パス 6" d="M1137.619,830.312h29.929l-7.981-10.974" fill="none" stroke="#bbb" stroke-linecap="round" stroke-linejoin="round" stroke-width="4"/>
    <g id="グループ_11" data-name="グループ 11">
      <path id="パス_67" data-name="パス 67" d="M1146.264,848.583h-104v-104h104Zm-53.3-28.085c6.632,0,13.265.09,19.893-.053a20.606,20.606,0,0,0,6.219-1.144c6.993-2.433,11-8.128,10.661-15.074-.35-7.188-3.618-13-11.394-14.767-.491-.112-.967-.753-1.244-1.26a35.022,35.022,0,0,0-2.115-4.2c-2.995-4.043-7.281-5.4-12.131-5.538a4.062,4.062,0,0,1-2.676-1c-8.69-9.693-24.734-6.009-29.707,4.567a46.369,46.369,0,0,0-2.654,8.84c-.342,1.414-.614,2.387-2.188,3.085-4.651,2.063-7,5.975-7.268,10.948a14.527,14.527,0,0,0,14.711,15.591C1079.706,820.563,1086.338,820.5,1092.969,820.5Z" fill="#fefefe" opacity="0"/>
      <path id="パス_68" data-name="パス 68" d="M1092.969,820.5c-6.631,0-13.263.063-19.893-.012a14.527,14.527,0,0,1-14.711-15.591c.273-4.973,2.617-8.885,7.268-10.948,1.574-.7,1.846-1.671,2.188-3.085a46.369,46.369,0,0,1,2.654-8.84c4.973-10.576,21.017-14.26,29.707-4.567a4.062,4.062,0,0,0,2.676,1c4.85.141,9.136,1.495,12.131,5.538a35.022,35.022,0,0,1,2.115,4.2c.277.507.753,1.148,1.244,1.26,7.776,1.769,11.044,7.579,11.394,14.767.338,6.946-3.668,12.641-10.661,15.074a20.606,20.606,0,0,1-6.219,1.144C1106.234,820.588,1099.6,820.5,1092.969,820.5Zm-20.826-22.766c-.388.035-.981.074-1.571.148-3.676.457-6.005,2.383-6.808,5.621a9.409,9.409,0,0,0,9.207,11.844q20.159.159,40.32,0c7.43-.061,12.229-5.984,11.05-13.274a8.469,8.469,0,0,0-8.045-7.587c-1.189-.127-2.375-.283-3.675-.439,0-.66.035-1.2-.005-1.742-.324-4.328-2.376-7.259-6.1-8.1a23.314,23.314,0,0,0-6.117-.342c-1.276.055-2.123-.039-2.856-1.252a11.1,11.1,0,0,0-6.97-5.214,13.869,13.869,0,0,0-16.875,10.357C1072.89,790.951,1072.659,794.295,1072.143,797.734Z" fill="#a1a1a1"/>
      <path id="パス_69" data-name="パス 69" d="M1072.143,797.734c.516-3.439.747-6.783,1.552-9.983a13.869,13.869,0,0,1,16.875-10.357,11.1,11.1,0,0,1,6.97,5.214c.733,1.213,1.58,1.307,2.856,1.252a23.314,23.314,0,0,1,6.117.342c3.727.845,5.779,3.776,6.1,8.1.04.538.005,1.082.005,1.742,1.3.156,2.486.312,3.675.439a8.469,8.469,0,0,1,8.045,7.587c1.179,7.29-3.62,13.213-11.05,13.274q-20.158.166-40.32,0a9.409,9.409,0,0,1-9.207-11.844c.8-3.238,3.132-5.164,6.808-5.621C1071.162,797.808,1071.755,797.769,1072.143,797.734Z" fill="#fefefe" opacity="0"/>
    </g>
    <g id="グループ_28" data-name="グループ 28">
      <path id="パス_203" data-name="パス 203" d="M1156.321,744.727h104v104h-104Zm70.93,42.384c.908.073,1.805.163,2.705.214,4.554.257,7.313,2.253,8.481,6.148,1.546,5.156.557,9.483-3.154,11.953a30.216,30.216,0,0,1-6.268,2.739c-1.572.586-2.482,1.681-2.191,3.059a2.717,2.717,0,0,0,3.393,1.945,18.313,18.313,0,0,0,9.373-4.566c4.588-4.255,5.414-9.553,4.073-15.387a13.36,13.36,0,0,0-10.46-10.7,2.207,2.207,0,0,1-1.447-1.025c-2.333-7.326-7.747-9.972-14.94-10.1a3.29,3.29,0,0,1-2.147-.963c-8.46-9.35-22.914-6.113-28.643,2.6a26.822,26.822,0,0,0-3.842,11.279c-.107.758-.6,1.881-1.184,2.09-7.863,2.831-10.594,12.949-5.773,20.364a14.246,14.246,0,0,0,11.945,6.6,2.333,2.333,0,0,0,2.677-2.162c.216-1.6-.733-2.481-2.194-2.87a10.75,10.75,0,0,0-1.086-.112c-3.913-.613-6.772-2.553-8.066-6.442-1.833-5.511.912-10.056,6.6-10.939.642-.1,1.288-.178,1.952-.268a29.688,29.688,0,0,1,1.785-11.9c2.088-5.272,6.191-8.049,11.651-8.667,5.026-.569,8.964,1.494,11.781,5.756a2.956,2.956,0,0,0,2.031.991c1.8.146,3.639-.089,5.432.1a7.716,7.716,0,0,1,7.076,6.545C1227.047,784.569,1227.1,785.782,1227.251,787.111ZM1192.4,810.489a3.739,3.739,0,0,0,3.729,3.872,3.956,3.956,0,0,0,3.828-3.861,3.862,3.862,0,0,0-3.728-3.737A3.645,3.645,0,0,0,1192.4,810.489Zm23.7.1a3.721,3.721,0,0,0,3.817,3.773,3.943,3.943,0,0,0,3.72-3.771,3.824,3.824,0,0,0-3.81-3.827A3.649,3.649,0,0,0,1216.107,810.588Zm-8.062-1.652a3.758,3.758,0,0,0-3.877,3.742,3.928,3.928,0,0,0,3.841,3.849,3.886,3.886,0,0,0,3.763-3.719A3.733,3.733,0,0,0,1208.045,808.936Zm0,19.363a3.729,3.729,0,0,0,3.731-3.867,3.8,3.8,0,0,0-7.6.113A3.789,3.789,0,0,0,1208.041,828.3Zm-11.85-2.169a3.823,3.823,0,0,0,3.77-3.664,3.951,3.951,0,0,0-3.957-3.907,3.839,3.839,0,0,0-3.6,3.826A3.608,3.608,0,0,0,1196.191,826.13Zm23.579,0a3.781,3.781,0,0,0,3.87-3.738,3.956,3.956,0,0,0-3.844-3.833,3.9,3.9,0,0,0-3.753,3.718A3.731,3.731,0,0,0,1219.77,826.13Z" fill="#fefefe" opacity="0"/>
      <path id="パス_204" data-name="パス 204" d="M1227.251,787.111c-.15-1.329-.2-2.542-.436-3.72a7.716,7.716,0,0,0-7.076-6.545c-1.793-.189-3.63.046-5.432-.1a2.956,2.956,0,0,1-2.031-.991c-2.817-4.262-6.755-6.325-11.781-5.756-5.46.618-9.563,3.395-11.651,8.667a29.688,29.688,0,0,0-1.785,11.9c-.664.09-1.31.168-1.952.268-5.692.883-8.437,5.428-6.6,10.939,1.294,3.889,4.153,5.829,8.066,6.442a10.75,10.75,0,0,1,1.086.112c1.461.389,2.41,1.268,2.194,2.87a2.333,2.333,0,0,1-2.677,2.162,14.246,14.246,0,0,1-11.945-6.6c-4.821-7.415-2.09-17.533,5.773-20.364.583-.209,1.077-1.332,1.184-2.09a26.822,26.822,0,0,1,3.842-11.279c5.729-8.718,20.183-11.955,28.643-2.6a3.29,3.29,0,0,0,2.147.963c7.193.131,12.607,2.777,14.94,10.1a2.207,2.207,0,0,0,1.447,1.025,13.36,13.36,0,0,1,10.46,10.7c1.341,5.834.515,11.132-4.073,15.387a18.313,18.313,0,0,1-9.373,4.566,2.717,2.717,0,0,1-3.393-1.945c-.291-1.378.619-2.473,2.191-3.059a30.216,30.216,0,0,0,6.268-2.739c3.711-2.47,4.7-6.8,3.154-11.953-1.168-3.9-3.927-5.891-8.481-6.148C1229.056,787.274,1228.159,787.184,1227.251,787.111Z" fill="#8d8d8d"/>
      <path id="パス_205" data-name="パス 205" d="M1192.4,810.489a3.645,3.645,0,0,1,3.829-3.726,3.862,3.862,0,0,1,3.728,3.737,3.956,3.956,0,0,1-3.828,3.861A3.739,3.739,0,0,1,1192.4,810.489Z" fill="#8e8e8e"/>
      <path id="パス_206" data-name="パス 206" d="M1216.107,810.588a3.649,3.649,0,0,1,3.727-3.825,3.824,3.824,0,0,1,3.81,3.827,3.943,3.943,0,0,1-3.72,3.771A3.721,3.721,0,0,1,1216.107,810.588Z" fill="#8e8e8e"/>
      <path id="パス_207" data-name="パス 207" d="M1208.045,808.936a3.733,3.733,0,0,1,3.727,3.872,3.886,3.886,0,0,1-3.763,3.719,3.928,3.928,0,0,1-3.841-3.849A3.758,3.758,0,0,1,1208.045,808.936Z" fill="#8e8e8e"/>
      <path id="パス_208" data-name="パス 208" d="M1208.041,828.3a3.789,3.789,0,0,1-3.873-3.754,3.8,3.8,0,0,1,7.6-.113A3.729,3.729,0,0,1,1208.041,828.3Z" fill="#8e8e8e"/>
      <path id="パス_209" data-name="パス 209" d="M1196.191,826.13a3.608,3.608,0,0,1-3.788-3.745,3.839,3.839,0,0,1,3.6-3.826,3.951,3.951,0,0,1,3.957,3.907A3.823,3.823,0,0,1,1196.191,826.13Z" fill="#8e8e8e"/>
      <path id="パス_210" data-name="パス 210" d="M1219.77,826.13a3.731,3.731,0,0,1-3.727-3.853,3.9,3.9,0,0,1,3.753-3.718,3.956,3.956,0,0,1,3.844,3.833A3.781,3.781,0,0,1,1219.77,826.13Z" fill="#8e8e8e"/>
    </g>
  </g>
</svg>
