<svg xmlns="http://www.w3.org/2000/svg" width="216.507" height="104.553" viewBox="0 0 216.507 104.553">
  <g id="icon_day04_04" transform="translate(-2240.657 -455.23)">
    <path id="パス_10" data-name="パス 10" d="M2335.1,543.994h29.929l-7.981-10.974" fill="none" stroke="#bbb" stroke-linecap="round" stroke-linejoin="round" stroke-width="4"/>
    <g id="グループ_51" data-name="グループ 51">
      <path id="パス_345" data-name="パス 345" d="M2240.657,455.783h104v104h-104Zm70.93,42.384c.908.073,1.805.163,2.705.214,4.554.257,7.313,2.253,8.481,6.149,1.546,5.155.557,9.482-3.154,11.952a30.212,30.212,0,0,1-6.268,2.739c-1.572.586-2.482,1.681-2.191,3.059a2.716,2.716,0,0,0,3.393,1.945,18.313,18.313,0,0,0,9.373-4.566c4.588-4.255,5.414-9.553,4.073-15.387a13.357,13.357,0,0,0-10.46-10.7,2.211,2.211,0,0,1-1.447-1.026c-2.333-7.325-7.747-9.971-14.94-10.1a3.29,3.29,0,0,1-2.147-.963c-8.46-9.35-22.914-6.113-28.643,2.605a26.825,26.825,0,0,0-3.842,11.279c-.106.758-.6,1.881-1.184,2.091-7.863,2.83-10.594,12.948-5.773,20.363a14.244,14.244,0,0,0,11.945,6.6,2.333,2.333,0,0,0,2.677-2.161c.216-1.6-.733-2.482-2.194-2.871a10.73,10.73,0,0,0-1.086-.112c-3.913-.613-6.772-2.553-8.066-6.442-1.833-5.511.912-10.056,6.6-10.939.642-.1,1.288-.178,1.952-.268a29.686,29.686,0,0,1,1.785-11.9c2.088-5.272,6.191-8.05,11.651-8.668,5.026-.569,8.964,1.494,11.781,5.756a2.956,2.956,0,0,0,2.031.991c1.8.146,3.639-.089,5.432.1a7.716,7.716,0,0,1,7.076,6.545C2311.383,495.625,2311.437,496.838,2311.587,498.167Zm-34.847,23.378a3.739,3.739,0,0,0,3.729,3.872,3.956,3.956,0,0,0,3.828-3.861,3.862,3.862,0,0,0-3.728-3.737A3.645,3.645,0,0,0,2276.74,521.545Zm23.7.1a3.72,3.72,0,0,0,3.817,3.773,3.942,3.942,0,0,0,3.72-3.771,3.825,3.825,0,0,0-3.81-3.827A3.649,3.649,0,0,0,2300.443,521.644Zm-8.062-1.651a3.757,3.757,0,0,0-3.877,3.741,3.928,3.928,0,0,0,3.841,3.849,3.886,3.886,0,0,0,3.763-3.719A3.731,3.731,0,0,0,2292.381,519.993Zm0,19.362a3.729,3.729,0,0,0,3.731-3.867,3.8,3.8,0,0,0-7.6.114A3.788,3.788,0,0,0,2292.377,539.355Zm-11.85-2.169a3.823,3.823,0,0,0,3.77-3.664,3.951,3.951,0,0,0-3.957-3.907,3.839,3.839,0,0,0-3.6,3.826A3.608,3.608,0,0,0,2280.527,537.186Zm23.579,0a3.781,3.781,0,0,0,3.87-3.738,3.957,3.957,0,0,0-3.844-3.833,3.9,3.9,0,0,0-3.753,3.718A3.731,3.731,0,0,0,2304.106,537.186Z" fill="#fefefe" opacity="0"/>
      <path id="パス_346" data-name="パス 346" d="M2311.587,498.167c-.15-1.329-.2-2.542-.436-3.72a7.716,7.716,0,0,0-7.076-6.545c-1.793-.189-3.63.046-5.432-.1a2.956,2.956,0,0,1-2.031-.991c-2.817-4.262-6.755-6.325-11.781-5.756-5.46.618-9.563,3.4-11.651,8.668a29.686,29.686,0,0,0-1.785,11.9c-.664.09-1.31.168-1.952.268-5.692.883-8.437,5.428-6.6,10.939,1.294,3.889,4.153,5.829,8.066,6.442a10.73,10.73,0,0,1,1.086.112c1.461.389,2.41,1.268,2.194,2.871a2.333,2.333,0,0,1-2.677,2.161,14.244,14.244,0,0,1-11.945-6.6c-4.821-7.415-2.09-17.533,5.773-20.363.583-.21,1.078-1.333,1.184-2.091a26.825,26.825,0,0,1,3.842-11.279c5.729-8.718,20.183-11.955,28.643-2.605a3.29,3.29,0,0,0,2.147.963c7.193.132,12.607,2.778,14.94,10.1a2.211,2.211,0,0,0,1.447,1.026,13.357,13.357,0,0,1,10.46,10.7c1.341,5.834.515,11.132-4.073,15.387a18.313,18.313,0,0,1-9.373,4.566,2.716,2.716,0,0,1-3.393-1.945c-.291-1.378.619-2.473,2.191-3.059a30.212,30.212,0,0,0,6.268-2.739c3.711-2.47,4.7-6.8,3.154-11.952-1.168-3.9-3.927-5.892-8.481-6.149C2313.392,498.33,2312.5,498.24,2311.587,498.167Z" fill="#8d8d8d"/>
      <path id="パス_347" data-name="パス 347" d="M2276.74,521.545a3.645,3.645,0,0,1,3.829-3.726,3.862,3.862,0,0,1,3.728,3.737,3.956,3.956,0,0,1-3.828,3.861A3.739,3.739,0,0,1,2276.74,521.545Z" fill="#8e8e8e"/>
      <path id="パス_348" data-name="パス 348" d="M2300.443,521.644a3.649,3.649,0,0,1,3.727-3.825,3.825,3.825,0,0,1,3.81,3.827,3.942,3.942,0,0,1-3.72,3.771A3.72,3.72,0,0,1,2300.443,521.644Z" fill="#8e8e8e"/>
      <path id="パス_349" data-name="パス 349" d="M2292.381,519.993a3.731,3.731,0,0,1,3.727,3.871,3.886,3.886,0,0,1-3.763,3.719,3.928,3.928,0,0,1-3.841-3.849A3.757,3.757,0,0,1,2292.381,519.993Z" fill="#8e8e8e"/>
      <path id="パス_350" data-name="パス 350" d="M2292.377,539.355a3.788,3.788,0,0,1-3.873-3.753,3.8,3.8,0,0,1,7.6-.114A3.729,3.729,0,0,1,2292.377,539.355Z" fill="#8e8e8e"/>
      <path id="パス_351" data-name="パス 351" d="M2280.527,537.186a3.608,3.608,0,0,1-3.788-3.745,3.839,3.839,0,0,1,3.6-3.826,3.951,3.951,0,0,1,3.957,3.907A3.823,3.823,0,0,1,2280.527,537.186Z" fill="#8e8e8e"/>
      <path id="パス_352" data-name="パス 352" d="M2304.106,537.186a3.731,3.731,0,0,1-3.727-3.853,3.9,3.9,0,0,1,3.753-3.718,3.957,3.957,0,0,1,3.844,3.833A3.781,3.781,0,0,1,2304.106,537.186Z" fill="#8e8e8e"/>
    </g>
    <g id="グループ_56" data-name="グループ 56">
      <path id="パス_380" data-name="パス 380" d="M2457.164,559.23h-104v-104h104Zm-51.789-70.578c-9.712-.256-18.377,7.857-18.649,17.462-.3,10.608,7.51,19.228,17.683,19.514,10.293.29,18.956-7.669,19.2-17.636C2423.863,497.243,2416.029,488.932,2405.375,488.652Zm2.333,50.71c0-1.273.055-2.548-.014-3.816a2.618,2.618,0,0,0-2.58-2.727,2.575,2.575,0,0,0-2.562,2.743c-.073,2.542-.062,5.089,0,7.632a2.634,2.634,0,0,0,2.494,2.824c1.466.057,2.564-1.07,2.656-2.841C2407.762,541.908,2407.709,540.634,2407.708,539.362Zm-5.175-64.012h.01c0,1.331-.086,2.67.022,3.992a2.428,2.428,0,0,0,2.548,2.523,2.344,2.344,0,0,0,2.541-2.5c.095-2.659.1-5.326.017-7.986a2.51,2.51,0,0,0-2.629-2.643,2.613,2.613,0,0,0-2.5,2.8C2402.488,472.8,2402.533,474.079,2402.533,475.35Zm-23.034,3.612c-.768.623-1.876,1.083-2.073,1.795a3.664,3.664,0,0,0,.512,2.923,72.623,72.623,0,0,0,5.339,5.44c1.33,1.289,2.734,1.335,3.843.219,1.064-1.069.992-2.56-.264-3.852-1.73-1.781-3.479-3.544-5.275-5.257A12.622,12.622,0,0,0,2379.5,478.962Zm8.723,47.993c-.683-.765-1.178-1.8-1.912-2.014a3.406,3.406,0,0,0-2.755.508c-1.974,1.686-3.755,3.6-5.565,5.474a2.513,2.513,0,0,0-.214,3.719c1.077,1.123,2.536,1.1,3.857-.165,1.791-1.718,3.553-3.471,5.258-5.275A13.031,13.031,0,0,0,2388.222,526.955Zm45.236-45.389c-.617-.691-1.112-1.731-1.843-1.937a3.453,3.453,0,0,0-2.771.522c-1.982,1.693-3.765,3.621-5.59,5.493a2.481,2.481,0,0,0-.2,3.6,2.421,2.421,0,0,0,3.717.072c1.941-1.839,3.819-3.746,5.659-5.687A9.072,9.072,0,0,0,2433.458,481.566Zm-8.685,42.693c-.782.656-1.846,1.116-2,1.79a3.831,3.831,0,0,0,.5,2.953,70.709,70.709,0,0,0,5.227,5.339c1.378,1.347,2.726,1.463,3.859.408s1.057-2.676-.247-4.015c-1.654-1.7-3.318-3.392-5.044-5.016A15.361,15.361,0,0,0,2424.773,524.259Zm-51.662-19.422c-1.331,0-2.662-.021-3.992.006a2.531,2.531,0,0,0-.145,5.059c2.718.1,5.444.1,8.163.007a2.454,2.454,0,0,0,2.532-2.556,2.546,2.546,0,0,0-2.748-2.511C2375.652,504.8,2374.381,504.834,2373.111,504.837Zm64.067,5.108q1.733,0,3.464,0c.121,0,.243,0,.364-.005,1.71-.119,2.7-1.071,2.693-2.583-.01-1.537-.98-2.481-2.725-2.512-2.49-.043-4.982-.035-7.473-.005-1.769.021-2.951,1.083-2.929,2.543.022,1.482,1.172,2.5,2.961,2.554C2434.747,509.975,2435.963,509.945,2437.178,509.945Z" fill="#fefefe" opacity="0"/>
      <path id="パス_381" data-name="パス 381" d="M2405.375,488.652c10.654.28,18.488,8.591,18.229,19.34-.239,9.967-8.9,17.926-19.2,17.636-10.173-.286-17.984-8.906-17.683-19.514C2387,496.509,2395.663,488.4,2405.375,488.652Zm-.207,5.161a13.361,13.361,0,1,0,13.346,13.291A13.275,13.275,0,0,0,2405.168,493.813Z" fill="#ef8a3e"/>
      <path id="パス_382" data-name="パス 382" d="M2407.709,539.362c0,1.272.053,2.546-.012,3.815-.092,1.771-1.19,2.9-2.656,2.841a2.634,2.634,0,0,1-2.494-2.824c-.057-2.543-.068-5.09,0-7.632a2.575,2.575,0,0,1,2.562-2.743,2.618,2.618,0,0,1,2.58,2.727C2407.763,536.814,2407.708,538.089,2407.709,539.362Z" fill="#f08c41"/>
      <path id="パス_383" data-name="パス 383" d="M2402.533,475.35c0-1.271-.045-2.545.011-3.813a2.613,2.613,0,0,1,2.5-2.8,2.51,2.51,0,0,1,2.629,2.643c.085,2.66.078,5.327-.017,7.986a2.344,2.344,0,0,1-2.541,2.5,2.428,2.428,0,0,1-2.548-2.523c-.108-1.322-.022-2.661-.022-3.992Z" fill="#f08c41"/>
      <path id="パス_384" data-name="パス 384" d="M2379.5,478.962a12.622,12.622,0,0,1,2.082,1.268c1.8,1.713,3.545,3.476,5.275,5.257,1.256,1.292,1.328,2.783.264,3.852-1.109,1.116-2.513,1.07-3.843-.219a72.623,72.623,0,0,1-5.339-5.44,3.664,3.664,0,0,1-.512-2.923C2377.623,480.045,2378.731,479.585,2379.5,478.962Z" fill="#ef8b40"/>
      <path id="パス_385" data-name="パス 385" d="M2388.222,526.955a13.031,13.031,0,0,1-1.331,2.247c-1.705,1.8-3.467,3.557-5.258,5.275-1.321,1.268-2.78,1.288-3.857.165a2.513,2.513,0,0,1,.214-3.719c1.81-1.871,3.591-3.788,5.565-5.474a3.406,3.406,0,0,1,2.755-.508C2387.044,525.154,2387.539,526.19,2388.222,526.955Z" fill="#ef8b40"/>
      <path id="パス_386" data-name="パス 386" d="M2433.458,481.566a9.072,9.072,0,0,1-1.027,2.067c-1.84,1.941-3.718,3.848-5.659,5.687a2.421,2.421,0,0,1-3.717-.072,2.481,2.481,0,0,1,.2-3.6c1.825-1.872,3.608-3.8,5.59-5.493a3.453,3.453,0,0,1,2.771-.522C2432.346,479.835,2432.841,480.875,2433.458,481.566Z" fill="#ef8b3f"/>
      <path id="パス_387" data-name="パス 387" d="M2424.773,524.259a15.361,15.361,0,0,1,2.288,1.459c1.726,1.624,3.39,3.317,5.044,5.016,1.3,1.339,1.378,2.962.247,4.015s-2.481.939-3.859-.408a70.709,70.709,0,0,1-5.227-5.339,3.831,3.831,0,0,1-.5-2.953C2422.927,525.375,2423.991,524.915,2424.773,524.259Z" fill="#ef8b3f"/>
      <path id="パス_388" data-name="パス 388" d="M2373.111,504.836c1.27,0,2.541-.035,3.81.006a2.546,2.546,0,0,1,2.748,2.511,2.454,2.454,0,0,1-2.532,2.556c-2.719.088-5.445.1-8.163-.007a2.531,2.531,0,0,1,.145-5.059C2370.449,504.816,2371.78,504.837,2373.111,504.836Z" fill="#ef8b3e"/>
      <path id="パス_389" data-name="パス 389" d="M2437.178,509.945c-1.215,0-2.431.03-3.645-.008-1.789-.055-2.939-1.072-2.961-2.554-.022-1.46,1.16-2.522,2.929-2.543,2.491-.03,4.983-.038,7.473.005,1.745.031,2.715.975,2.725,2.512.009,1.512-.983,2.464-2.693,2.583-.121.008-.243.005-.364.005Q2438.91,509.947,2437.178,509.945Z" fill="#ef8a3e"/>
      <path id="パス_390" data-name="パス 390" d="M2405.168,493.813a13.361,13.361,0,1,1-13.351,13.287A13.277,13.277,0,0,1,2405.168,493.813Z" fill="#fefdfd" opacity="0"/>
    </g>
  </g>
</svg>
