<svg xmlns="http://www.w3.org/2000/svg" width="217.184" height="104" viewBox="0 0 217.184 104">
  <g id="icon_day01_01" transform="translate(-156.452 -455.23)">
    <line id="線_3" data-name="線 3" y2="53.207" transform="translate(265.644 480.147)" fill="none" stroke="#bbb" stroke-linecap="round" stroke-miterlimit="10" stroke-width="4"/>
    <g id="グループ_20" data-name="グループ 20">
      <path id="パス_132" data-name="パス 132" d="M260.452,559.23h-104v-104h104Zm-51.789-70.578c-9.713-.256-18.377,7.857-18.649,17.462-.3,10.608,7.51,19.228,17.683,19.514,10.293.29,18.955-7.669,19.195-17.636C227.151,497.243,219.317,488.932,208.663,488.652Zm2.332,50.71c0-1.273.056-2.548-.014-3.816a2.617,2.617,0,0,0-2.579-2.727,2.575,2.575,0,0,0-2.562,2.743c-.074,2.542-.063,5.089,0,7.632a2.634,2.634,0,0,0,2.493,2.824c1.466.057,2.565-1.07,2.656-2.841C211.05,541.908,211,540.634,210.995,539.362ZM205.82,475.35h.01c0,1.331-.085,2.67.023,3.992a2.427,2.427,0,0,0,2.547,2.523,2.344,2.344,0,0,0,2.541-2.5c.1-2.659.1-5.326.018-7.986a2.51,2.51,0,0,0-2.629-2.643,2.612,2.612,0,0,0-2.5,2.8C205.775,472.8,205.82,474.079,205.82,475.35Zm-23.033,3.612c-.768.623-1.877,1.083-2.074,1.795a3.673,3.673,0,0,0,.512,2.923,72.852,72.852,0,0,0,5.34,5.44c1.33,1.289,2.733,1.335,3.843.219,1.063-1.069.992-2.56-.264-3.852-1.73-1.781-3.479-3.544-5.276-5.257A12.6,12.6,0,0,0,182.787,478.962Zm8.723,47.993c-.683-.765-1.178-1.8-1.912-2.014a3.4,3.4,0,0,0-2.755.508c-1.974,1.686-3.755,3.6-5.566,5.474a2.512,2.512,0,0,0-.213,3.719c1.077,1.123,2.536,1.1,3.856-.165,1.792-1.718,3.553-3.471,5.258-5.275A12.953,12.953,0,0,0,191.51,526.955Zm45.236-45.389c-.617-.691-1.113-1.731-1.843-1.937a3.455,3.455,0,0,0-2.772.522c-1.981,1.693-3.764,3.621-5.589,5.493a2.482,2.482,0,0,0-.2,3.6,2.421,2.421,0,0,0,3.717.072c1.941-1.839,3.82-3.746,5.66-5.687A9.074,9.074,0,0,0,236.746,481.566Zm-8.685,42.693c-.782.656-1.846,1.116-2.006,1.79a3.831,3.831,0,0,0,.5,2.953,70.551,70.551,0,0,0,5.227,5.339c1.378,1.347,2.725,1.463,3.859.408s1.057-2.676-.247-4.015c-1.654-1.7-3.318-3.392-5.045-5.016A15.3,15.3,0,0,0,228.061,524.259ZM176.4,504.837c-1.33,0-2.661-.021-3.991.006a2.531,2.531,0,0,0-.145,5.059c2.717.1,5.444.1,8.162.007a2.455,2.455,0,0,0,2.533-2.556,2.546,2.546,0,0,0-2.748-2.511C178.94,504.8,177.669,504.834,176.4,504.837Zm64.068,5.108q1.731,0,3.463,0c.122,0,.244,0,.365-.005,1.71-.119,2.7-1.071,2.692-2.583-.009-1.537-.98-2.481-2.724-2.512-2.491-.043-4.983-.035-7.474-.005-1.769.021-2.95,1.083-2.929,2.543.022,1.482,1.173,2.5,2.961,2.554C238.034,509.975,239.25,509.945,240.466,509.945Z" fill="#fefefe" opacity="0"/>
      <path id="パス_133" data-name="パス 133" d="M208.663,488.652c10.654.28,18.488,8.591,18.229,19.34-.24,9.967-8.9,17.926-19.195,17.636-10.173-.286-17.985-8.906-17.683-19.514C190.286,496.509,198.95,488.4,208.663,488.652Zm-.208,5.161A13.361,13.361,0,1,0,221.8,507.1,13.276,13.276,0,0,0,208.455,493.813Z" fill="#ef8a3e"/>
      <path id="パス_134" data-name="パス 134" d="M211,539.362c0,1.272.054,2.546-.012,3.815-.091,1.771-1.19,2.9-2.656,2.841a2.634,2.634,0,0,1-2.493-2.824c-.058-2.543-.069-5.09,0-7.632a2.575,2.575,0,0,1,2.562-2.743,2.617,2.617,0,0,1,2.579,2.727C211.051,536.814,210.995,538.089,211,539.362Z" fill="#f08c41"/>
      <path id="パス_135" data-name="パス 135" d="M205.82,475.35c0-1.271-.045-2.545.012-3.813a2.612,2.612,0,0,1,2.5-2.8,2.51,2.51,0,0,1,2.629,2.643c.085,2.66.077,5.327-.018,7.986a2.344,2.344,0,0,1-2.541,2.5,2.427,2.427,0,0,1-2.547-2.523c-.108-1.322-.023-2.661-.023-3.992Z" fill="#f08c41"/>
      <path id="パス_136" data-name="パス 136" d="M182.787,478.962a12.6,12.6,0,0,1,2.081,1.268c1.8,1.713,3.546,3.476,5.276,5.257,1.256,1.292,1.327,2.783.264,3.852-1.11,1.116-2.513,1.07-3.843-.219a72.852,72.852,0,0,1-5.34-5.44,3.673,3.673,0,0,1-.512-2.923C180.91,480.045,182.019,479.585,182.787,478.962Z" fill="#ef8b40"/>
      <path id="パス_137" data-name="パス 137" d="M191.51,526.955a12.953,12.953,0,0,1-1.332,2.247c-1.7,1.8-3.466,3.557-5.258,5.275-1.32,1.268-2.779,1.288-3.856.165a2.512,2.512,0,0,1,.213-3.719c1.811-1.871,3.592-3.788,5.566-5.474a3.4,3.4,0,0,1,2.755-.508C190.332,525.154,190.827,526.19,191.51,526.955Z" fill="#ef8b40"/>
      <path id="パス_138" data-name="パス 138" d="M236.746,481.566a9.074,9.074,0,0,1-1.027,2.067c-1.84,1.941-3.719,3.848-5.66,5.687a2.421,2.421,0,0,1-3.717-.072,2.482,2.482,0,0,1,.2-3.6c1.825-1.872,3.608-3.8,5.589-5.493a3.455,3.455,0,0,1,2.772-.522C235.633,479.835,236.129,480.875,236.746,481.566Z" fill="#ef8b3f"/>
      <path id="パス_139" data-name="パス 139" d="M228.061,524.259a15.3,15.3,0,0,1,2.287,1.459c1.727,1.624,3.391,3.317,5.045,5.016,1.3,1.339,1.378,2.962.247,4.015s-2.481.939-3.859-.408A70.551,70.551,0,0,1,226.554,529a3.831,3.831,0,0,1-.5-2.953C226.215,525.375,227.279,524.915,228.061,524.259Z" fill="#ef8b3f"/>
      <path id="パス_140" data-name="パス 140" d="M176.4,504.836c1.271,0,2.542-.035,3.811.006a2.546,2.546,0,0,1,2.748,2.511,2.455,2.455,0,0,1-2.533,2.556c-2.718.088-5.445.1-8.162-.007a2.531,2.531,0,0,1,.145-5.059C173.737,504.816,175.068,504.837,176.4,504.836Z" fill="#ef8b3e"/>
      <path id="パス_141" data-name="パス 141" d="M240.466,509.945c-1.216,0-2.432.03-3.646-.008-1.788-.055-2.939-1.072-2.961-2.554-.021-1.46,1.16-2.522,2.929-2.543,2.491-.03,4.983-.038,7.474.005,1.744.031,2.715.975,2.724,2.512.01,1.512-.982,2.464-2.692,2.583-.121.008-.243.005-.365.005Q242.2,509.947,240.466,509.945Z" fill="#ef8a3e"/>
      <path id="パス_142" data-name="パス 142" d="M208.455,493.813A13.361,13.361,0,1,1,195.1,507.1,13.277,13.277,0,0,1,208.455,493.813Z" fill="#fefdfd" opacity="0"/>
    </g>
    <g id="グループ_24" data-name="グループ 24">
      <path id="パス_176" data-name="パス 176" d="M373.636,559.23h-104v-104h104Zm-53.295-28.085c6.631,0,13.265.09,19.893-.053a20.606,20.606,0,0,0,6.219-1.144c6.992-2.433,11-8.128,10.661-15.075-.35-7.187-3.619-13-11.394-14.767-.492-.111-.967-.752-1.244-1.259a35.03,35.03,0,0,0-2.116-4.2c-2.994-4.043-7.28-5.4-12.13-5.538a4.062,4.062,0,0,1-2.676-1c-8.69-9.693-24.734-6.009-29.707,4.567a46.373,46.373,0,0,0-2.654,8.84c-.342,1.414-.614,2.387-2.188,3.085-4.651,2.063-7,5.975-7.268,10.948a14.527,14.527,0,0,0,14.71,15.591C307.078,531.21,313.71,531.15,320.341,531.145Z" fill="#fefefe" opacity="0"/>
      <path id="パス_177" data-name="パス 177" d="M320.341,531.147c-6.631,0-13.263.063-19.894-.012a14.527,14.527,0,0,1-14.71-15.591c.272-4.973,2.617-8.885,7.268-10.948,1.574-.7,1.846-1.671,2.188-3.085a46.373,46.373,0,0,1,2.654-8.84c4.973-10.576,21.017-14.26,29.707-4.567a4.062,4.062,0,0,0,2.676,1c4.85.141,9.136,1.495,12.13,5.538a35.03,35.03,0,0,1,2.116,4.2c.277.507.752,1.148,1.244,1.259,7.775,1.77,11.044,7.58,11.394,14.767.338,6.947-3.669,12.642-10.661,15.075a20.606,20.606,0,0,1-6.219,1.144C333.606,531.235,326.972,531.145,320.341,531.147ZM299.515,508.38c-.388.036-.981.075-1.571.149-3.677.456-6.005,2.383-6.808,5.621a9.409,9.409,0,0,0,9.207,11.844q20.159.159,40.32,0c7.43-.061,12.229-5.984,11.05-13.274a8.469,8.469,0,0,0-8.045-7.587c-1.189-.127-2.375-.283-3.675-.439,0-.66.035-1.2-.006-1.742-.323-4.328-2.375-7.259-6.1-8.1a23.318,23.318,0,0,0-6.117-.342c-1.277.055-2.123-.039-2.857-1.252a11.091,11.091,0,0,0-6.969-5.214A13.869,13.869,0,0,0,301.066,498.4C300.262,501.6,300.031,504.941,299.515,508.38Z" fill="#a1a1a1"/>
      <path id="パス_178" data-name="パス 178" d="M299.515,508.38c.516-3.439.747-6.782,1.551-9.982a13.869,13.869,0,0,1,16.876-10.357,11.091,11.091,0,0,1,6.969,5.214c.734,1.213,1.58,1.307,2.857,1.252a23.318,23.318,0,0,1,6.117.342c3.727.845,5.779,3.776,6.1,8.1.041.538.006,1.082.006,1.742,1.3.156,2.486.312,3.675.439a8.469,8.469,0,0,1,8.045,7.587c1.179,7.29-3.62,13.213-11.05,13.274q-20.16.167-40.32,0a9.409,9.409,0,0,1-9.207-11.844c.8-3.238,3.131-5.165,6.808-5.621C298.534,508.455,299.127,508.416,299.515,508.38Z" fill="#fefefe" opacity="0"/>
    </g>
  </g>
</svg>
