<svg xmlns="http://www.w3.org/2000/svg" width="52.833" height="6.23" viewBox="0 0 52.833 6.23">
  <g id="after_h3" transform="translate(-2312.62 1143.841)">
    <path id="パス_355" data-name="パス 355" d="M2362.618-1137.891h-26.6a2.834,2.834,0,0,1-2.835-2.834,2.835,2.835,0,0,1,2.835-2.835h26.6a2.835,2.835,0,0,1,2.835,2.835A2.834,2.834,0,0,1,2362.618-1137.891Z" fill="#d9a53c"/>
    <g id="グループ_102" data-name="グループ 102">
      <path id="パス_356" data-name="パス 356" d="M2315.74-1137.611a3.149,3.149,0,0,1-2.21-.91,3.151,3.151,0,0,1-.91-2.21,3.125,3.125,0,0,1,.91-2.2,4.556,4.556,0,0,1,.48-.391,4.058,4.058,0,0,1,.53-.29,4.1,4.1,0,0,1,.59-.169,3.1,3.1,0,0,1,1.22,0,3.967,3.967,0,0,1,.58.169,3.655,3.655,0,0,1,.54.29,3.617,3.617,0,0,1,.47.391,3.134,3.134,0,0,1,.919,2.2,3.159,3.159,0,0,1-.919,2.21A3.13,3.13,0,0,1,2315.74-1137.611Z" fill="#d9a53c"/>
      <path id="パス_357" data-name="パス 357" d="M2326.04-1137.611a3.151,3.151,0,0,1-.61-.06,3,3,0,0,1-.58-.18,2.764,2.764,0,0,1-.54-.28,3.585,3.585,0,0,1-.47-.39,2.991,2.991,0,0,1-.39-.469,3.607,3.607,0,0,1-.29-.54,4.021,4.021,0,0,1-.17-.591,3.048,3.048,0,0,1-.06-.6,3.132,3.132,0,0,1,.91-2.21,3.6,3.6,0,0,1,.47-.391,2.867,2.867,0,0,1,.54-.28,3.055,3.055,0,0,1,.58-.179,3.1,3.1,0,0,1,1.22,0,2.845,2.845,0,0,1,.58.179,2.874,2.874,0,0,1,.54.28,4.556,4.556,0,0,1,.48.391,3.132,3.132,0,0,1,.91,2.21,3.066,3.066,0,0,1-.06.6,3.094,3.094,0,0,1-.18.591,3.512,3.512,0,0,1-.28.54,3.665,3.665,0,0,1-.39.469,4.533,4.533,0,0,1-.48.39,2.771,2.771,0,0,1-.54.28,2.794,2.794,0,0,1-.58.18A3.074,3.074,0,0,1,2326.04-1137.611Z" fill="#d9a53c"/>
    </g>
  </g>
</svg>
