<svg xmlns="http://www.w3.org/2000/svg" width="17" height="17.35" viewBox="0 0 17 17.35">
  <g id="グループ_161" data-name="グループ 161" transform="translate(-337.375 -3959.436)">
    <path id="パス_213" data-name="パス 213" d="M6.966,161.2H7.6a1.8,1.8,0,0,0,1.8-1.8v-4.227a1.8,1.8,0,0,0-1.8-1.8H6.966a1.8,1.8,0,0,0-1.8,1.8V159.4A1.8,1.8,0,0,0,6.966,161.2Z" transform="translate(332.213 3811.268)" fill="#333"/>
    <path id="パス_214" data-name="パス 214" d="M20.354,5.852V3.016L17.338,0H10.286V11.232a2.718,2.718,0,0,1-2.715,2.715H6.936a2.7,2.7,0,0,1-1.775-.665v1.832A2.235,2.235,0,0,0,7.4,17.35h12.53a2.235,2.235,0,0,0,2.235-2.235V8.045A2.235,2.235,0,0,0,20.354,5.852ZM11.2.91h5.765l.047.046V3.364h2.409l.028.028V5.81H11.2Zm1.755,13.674a.59.59,0,1,1,.59-.589A.589.589,0,0,1,12.951,14.584Zm0-1.921a.59.59,0,1,1,.59-.589A.589.589,0,0,1,12.951,12.663Zm0-1.921a.59.59,0,1,1,.59-.589A.589.589,0,0,1,12.951,10.742Zm3.033,3.842a.59.59,0,1,1,.59-.589A.589.589,0,0,1,15.984,14.584Zm0-1.921a.59.59,0,1,1,.59-.589A.589.589,0,0,1,15.984,12.663Zm0-1.921a.59.59,0,1,1,.59-.589A.589.589,0,0,1,15.984,10.742Zm3.033,3.842a.59.59,0,1,1,.59-.589A.589.589,0,0,1,19.017,14.584Zm0-1.921a.59.59,0,1,1,.59-.589A.589.589,0,0,1,19.017,12.663Zm0-1.921a.59.59,0,1,1,.59-.589A.589.589,0,0,1,19.017,10.742Zm.03-2.072H12.981a.607.607,0,0,1,0-1.213h6.065a.607.607,0,0,1,0,1.213Z" transform="translate(332.214 3959.436)" fill="#333"/>
  </g>
</svg>
