<svg xmlns="http://www.w3.org/2000/svg" width="26.383" height="25.138" viewBox="0 0 26.383 25.138">
  <g id="icon_line" transform="translate(-377.059 -256.905)">
    <g id="TYPE_A" data-name="TYPE A" transform="translate(377.059 256.905)">
      <g id="グループ_19" data-name="グループ 19">
        <path id="パス_93" data-name="パス 93" d="M403.442,267.61c0-5.9-5.917-10.7-13.191-10.7s-13.191,4.8-13.191,10.7c0,5.292,4.693,9.723,11.032,10.562.43.092,1.014.283,1.162.65a2.713,2.713,0,0,1,.043,1.193s-.155.931-.188,1.129c-.057.333-.265,1.3,1.143.711s7.6-4.473,10.364-7.659h0a9.524,9.524,0,0,0,2.827-6.586" transform="translate(-377.059 -256.905)" fill="#fff"/>
        <g id="グループ_18" data-name="グループ 18" transform="translate(4.327 7.852)">
          <path id="パス_94" data-name="パス 94" d="M409.139,282.914h-.925a.257.257,0,0,0-.257.256v5.748a.257.257,0,0,0,.257.256h.925a.257.257,0,0,0,.257-.256V283.17a.257.257,0,0,0-.257-.256" transform="translate(-402.956 -282.914)" fill="#333"/>
          <path id="パス_95" data-name="パス 95" d="M420.915,282.914h-.925a.257.257,0,0,0-.257.256v3.415l-2.634-3.557a.278.278,0,0,0-.02-.026l0,0-.015-.016,0,0-.014-.011-.007-.005-.013-.009-.008,0-.014-.008-.008,0-.015-.006-.008,0-.015,0-.009,0-.015,0-.011,0h-.961a.257.257,0,0,0-.257.256v5.748a.257.257,0,0,0,.257.256h.925a.257.257,0,0,0,.257-.256V285.5l2.637,3.562a.259.259,0,0,0,.065.063l0,0,.016.01.008,0,.012.006.013.005.008,0,.017.006h0a.263.263,0,0,0,.066.009h.925a.257.257,0,0,0,.257-.256V283.17a.257.257,0,0,0-.257-.256" transform="translate(-408.363 -282.914)" fill="#333"/>
          <path id="パス_96" data-name="パス 96" d="M395.345,287.735h-2.514V283.17a.257.257,0,0,0-.257-.257h-.925a.257.257,0,0,0-.257.257v5.747h0a.255.255,0,0,0,.072.178l0,0,0,0a.255.255,0,0,0,.178.072h3.7a.257.257,0,0,0,.257-.257v-.925a.257.257,0,0,0-.257-.257" transform="translate(-391.392 -282.913)" fill="#333"/>
          <path id="パス_97" data-name="パス 97" d="M440.75,284.353a.257.257,0,0,0,.256-.257v-.925a.257.257,0,0,0-.256-.257h-3.7a.255.255,0,0,0-.178.072l0,0,0,0a.254.254,0,0,0-.071.177h0v5.747h0a.254.254,0,0,0,.072.178l0,0,0,0a.255.255,0,0,0,.178.072h3.7a.257.257,0,0,0,.256-.257v-.925a.257.257,0,0,0-.256-.257h-2.514v-.972h2.514a.257.257,0,0,0,.256-.257v-.925a.257.257,0,0,0-.256-.257h-2.514v-.971Z" transform="translate(-423.088 -282.914)" fill="#333"/>
        </g>
      </g>
    </g>
  </g>
</svg>
