<svg xmlns="http://www.w3.org/2000/svg" width="25.399" height="20.638" viewBox="0 0 25.399 20.638">
  <path id="icon_twitter" d="M82.987,119.09a14.726,14.726,0,0,0,14.827-14.827c0-.226,0-.45-.015-.674a10.6,10.6,0,0,0,2.6-2.7,10.4,10.4,0,0,1-2.993.82A5.229,5.229,0,0,0,99.7,98.83a10.442,10.442,0,0,1-3.309,1.265,5.216,5.216,0,0,0-8.88,4.753A14.8,14.8,0,0,1,76.768,99.4a5.215,5.215,0,0,0,1.613,6.956,5.172,5.172,0,0,1-2.365-.652v.066a5.213,5.213,0,0,0,4.181,5.108,5.2,5.2,0,0,1-2.353.089,5.217,5.217,0,0,0,4.868,3.619,10.457,10.457,0,0,1-6.472,2.235,10.612,10.612,0,0,1-1.24-.075,14.752,14.752,0,0,0,7.987,2.337" transform="translate(-75 -98.452)" fill="#fff"/>
</svg>
