<svg xmlns="http://www.w3.org/2000/svg" width="29" height="29" viewBox="0 0 29 29">
  <g id="icon_clender_white" transform="translate(-304 -241.836)">
    <rect id="Path" width="29" height="29" transform="translate(304 241.836)" fill="rgba(0,0,0,0)"/>
    <path id="Icon" d="M326.436,268.294H309.429A2.429,2.429,0,0,1,307,265.865l.012-17.006a2.429,2.429,0,0,1,2.417-2.429h1.215v-1.215a1.215,1.215,0,0,1,2.429,0v1.215h9.718v-1.215a1.215,1.215,0,0,1,2.429,0v1.215h1.215a2.429,2.429,0,0,1,2.429,2.429v17.006A2.429,2.429,0,0,1,326.436,268.294ZM309.429,252.5h0V264.65a1.215,1.215,0,0,0,1.215,1.215h14.577a1.215,1.215,0,0,0,1.215-1.215V252.5Zm14.577,4.859h-2.429v-2.429h2.429Zm-4.859,0h-2.429v-2.429h2.429Zm-4.859,0h-2.429v-2.429h2.429Z" transform="translate(0.644 0.429)" fill="#fff"/>
  </g>
</svg>
