<svg xmlns="http://www.w3.org/2000/svg" width="24.758" height="21.76" viewBox="0 0 24.758 21.76">
  <g id="icon_access" transform="translate(0.003 -31)">
    <path id="パス_151" data-name="パス 151" d="M265.708,380.993l-.583-.493a3.58,3.58,0,0,0-.742,1.65l.75.142A2.826,2.826,0,0,1,265.708,380.993Z" transform="translate(-251.601 -332.6)" fill="#99c443"/>
    <path id="パス_152" data-name="パス 152" d="M296.429,354.648l-.45-.617a2.608,2.608,0,0,1-.768.376,3.132,3.132,0,0,0-.674.3l.391.656a2.349,2.349,0,0,1,.508-.224A3.339,3.339,0,0,0,296.429,354.648Z" transform="translate(-280.298 -307.411)" fill="#99c443"/>
    <path id="パス_153" data-name="パス 153" d="M334.781,316.438a2.487,2.487,0,0,1-.43,1.328l.623.44a3.253,3.253,0,0,0,.569-1.736Z" transform="translate(-318.186 -271.636)" fill="#99c443"/>
    <path id="パス_154" data-name="パス 154" d="M142.3,394.56a3.931,3.931,0,0,0-.651-1.529l-.625.438h0a3.154,3.154,0,0,1,.526,1.233Z" transform="translate(-134.207 -344.525)" fill="#99c443"/>
    <path id="パス_155" data-name="パス 155" d="M108.817,360.2l-.372.666a5.289,5.289,0,0,1,1.131.836l.537-.543A6.048,6.048,0,0,0,108.817,360.2Z" transform="translate(-103.204 -313.284)" fill="#99c443"/>
    <path id="パス_156" data-name="パス 156" d="M24.746,269.82l-.421-.925-4.378-9.645H13.841c-.082.145-.157.283-.244.431-.235.4-.453.766-.654,1.1h3.378l-.006.006a1.217,1.217,0,0,1,.218.512l.743-.169a2.994,2.994,0,0,0-.107-.349h1.794l3.482,7.671h-9.6l.638-.1v-.006a4.428,4.428,0,0,1-.034-.567c0-.039,0-.079,0-.121l-.762-.017c0,.048,0,.093,0,.138a5.151,5.151,0,0,0,.041.672H8.141c.012-.125.02-.247.022-.366L7.4,268.07c0,.121-.011.248-.026.377H2.307l1.872-4.125c.112.038.255.091.42.16l.3-.7c-.153-.065-.287-.116-.4-.157l1.293-2.848H7.667c-.2-.329-.419-.694-.654-1.1-.087-.148-.162-.286-.244-.431H4.805l-4.8,10.57a.111.111,0,0,0,.008.1.11.11,0,0,0,.091.048H24.647a.11.11,0,0,0,.091-.048A.111.111,0,0,0,24.746,269.82Z" transform="translate(0 -217.213)" fill="#99c443"/>
    <path id="パス_157" data-name="パス 157" d="M113.078,45.973c.242,0,5.085-7.079,5.085-9.889a5.085,5.085,0,0,0-10.17,0C107.992,38.894,112.836,45.973,113.078,45.973Zm-1.945-9.889a1.945,1.945,0,1,1,1.945,1.946A1.945,1.945,0,0,1,111.133,36.085Z" transform="translate(-102.773)" fill="#99c443"/>
  </g>
</svg>
