<svg xmlns="http://www.w3.org/2000/svg" width="22.729" height="22.729" viewBox="0 0 22.729 22.729">
  <g id="icon_instagram" transform="translate(-4.079 -4.079)">
    <path id="パス_90" data-name="パス 90" d="M15.443,6.127c3.034,0,3.394.012,4.592.066a6.29,6.29,0,0,1,2.11.391A3.764,3.764,0,0,1,24.3,8.741a6.29,6.29,0,0,1,.391,2.11c.055,1.2.066,1.558.066,4.592s-.012,3.394-.066,4.592a6.29,6.29,0,0,1-.391,2.11A3.764,3.764,0,0,1,22.146,24.3a6.29,6.29,0,0,1-2.11.391c-1.2.055-1.558.066-4.592.066s-3.394-.012-4.592-.066a6.29,6.29,0,0,1-2.11-.391,3.764,3.764,0,0,1-2.157-2.157,6.29,6.29,0,0,1-.391-2.11c-.055-1.2-.066-1.558-.066-4.592s.012-3.394.066-4.592a6.29,6.29,0,0,1,.391-2.11A3.764,3.764,0,0,1,8.741,6.584a6.29,6.29,0,0,1,2.11-.391c1.2-.055,1.558-.066,4.592-.066m0-2.048c-3.086,0-3.473.013-4.685.068A8.342,8.342,0,0,0,8,4.676,5.811,5.811,0,0,0,4.676,8a8.342,8.342,0,0,0-.528,2.759c-.055,1.212-.068,1.6-.068,4.685s.013,3.473.068,4.685a8.342,8.342,0,0,0,.528,2.759A5.811,5.811,0,0,0,8,26.211a8.342,8.342,0,0,0,2.759.528c1.212.055,1.6.068,4.685.068s3.473-.013,4.685-.068a8.342,8.342,0,0,0,2.759-.528,5.811,5.811,0,0,0,3.324-3.324,8.342,8.342,0,0,0,.528-2.759c.055-1.212.068-1.6.068-4.685s-.013-3.473-.068-4.685A8.342,8.342,0,0,0,26.211,8a5.811,5.811,0,0,0-3.324-3.324,8.342,8.342,0,0,0-2.759-.528c-1.212-.055-1.6-.068-4.685-.068Z" fill="#fff"/>
    <path id="パス_91" data-name="パス 91" d="M132.471,126.635a5.836,5.836,0,1,0,5.836,5.836A5.836,5.836,0,0,0,132.471,126.635Zm0,9.624a3.788,3.788,0,1,1,3.788-3.788A3.788,3.788,0,0,1,132.471,136.259Z" transform="translate(-117.027 -117.027)" fill="#fff"/>
    <circle id="楕円形_15" data-name="楕円形 15" cx="1.364" cy="1.364" r="1.364" transform="translate(20.146 8.013)" fill="#fff"/>
  </g>
</svg>
