<svg xmlns="http://www.w3.org/2000/svg" width="24" height="24" viewBox="0 0 24 24">
  <g id="icon_language" transform="translate(-644 -330)">
    <rect id="Path" width="24" height="24" transform="translate(644 330)" fill="rgba(0,0,0,0)"/>
    <path id="Icon" d="M10,20A10,10,0,1,1,20,10,10.011,10.011,0,0,1,10,20ZM8.1,14h0a14.06,14.06,0,0,0,1.91,3.96A14.087,14.087,0,0,0,11.92,14H8.1Zm5.88,0h0a15.69,15.69,0,0,1-1.38,3.56A8.023,8.023,0,0,0,16.93,14ZM3.09,14a7.993,7.993,0,0,0,4.33,3.56A15.606,15.606,0,0,1,6.04,14ZM7.67,8a14.335,14.335,0,0,0-.16,2,14.773,14.773,0,0,0,.16,2h4.68a14.722,14.722,0,0,0,.16-2,14.314,14.314,0,0,0-.16-2Zm6.7,0h0a16.685,16.685,0,0,1,.14,2,16.687,16.687,0,0,1-.14,2h3.38a8.265,8.265,0,0,0,.26-2,8.264,8.264,0,0,0-.26-2ZM2.27,8h0a8.264,8.264,0,0,0-.26,2,8.265,8.265,0,0,0,.26,2H5.649a16.275,16.275,0,0,1-.139-2,16.266,16.266,0,0,1,.139-2H2.27ZM12.6,2.44A15.686,15.686,0,0,1,13.98,6h2.95A8.025,8.025,0,0,0,12.6,2.44Zm-2.59-.4A14.058,14.058,0,0,0,8.1,6h3.82A14.087,14.087,0,0,0,10.01,2.04Zm-2.59.4A8,8,0,0,0,3.09,6H6.04A15.6,15.6,0,0,1,7.42,2.44Z" transform="translate(645.99 332)" fill="rgba(51,51,51,0.4)"/>
  </g>
</svg>
