<svg id="icon_facebook" xmlns="http://www.w3.org/2000/svg" width="25.685" height="25.685" viewBox="0 0 25.685 25.685">
  <path id="パス_98" data-name="パス 98" d="M25.685,12.842A12.842,12.842,0,1,0,10.836,25.529V16.555H7.575V12.842h3.261V10.013c0-3.219,1.917-5,4.851-5a19.749,19.749,0,0,1,2.875.251v3.16H16.942a1.856,1.856,0,0,0-2.093,2.006v2.409h3.562l-.569,3.712H14.849v8.974A12.845,12.845,0,0,0,25.685,12.842Z" fill="#fff"/>
  <path id="パス_99" data-name="パス 99" d="M312.266,211.538l.569-3.712h-3.562v-2.409a1.856,1.856,0,0,1,2.093-2.006h1.619v-3.16a19.749,19.749,0,0,0-2.875-.251c-2.933,0-4.851,1.778-4.851,5v2.829H302v3.712h3.261v8.974a12.978,12.978,0,0,0,4.013,0v-8.974Z" transform="translate(-294.425 -194.983)" fill="#333"/>
</svg>
