<svg xmlns="http://www.w3.org/2000/svg" width="266.78" height="108.24" viewBox="0 0 266.78 108.24">
  <g id="logo_yoshinote" transform="translate(-157.119 -315.985)">
    <g id="グループ_170" data-name="グループ 170" transform="translate(247.682 380.646)">
      <path id="パス_366" data-name="パス 366" d="M535.236,575.737a2.174,2.174,0,0,0-.122-.553l.155-.054a.6.6,0,0,0,.055-1.117.591.591,0,0,0-.458-.022c-.133.047-.27.092-.407.133a2.886,2.886,0,0,0-.883-.664.605.605,0,0,0-.908-.423c-.23.138-1.058.643-2.047,1.351-1.737,1.148-4.168,2.755-6.594,4.364,2.469-3.72,4.991-7.932,5.109-8.131a.6.6,0,0,0-.877-.8l-5.837,4.287c-1.271.934-3.4,2.5-5.332,3.7-3.186,1.977-3.768,1.669-3.844,1.6a.2.2,0,0,1-.006-.064c.009-.878,1.839-3.5,6.948-8.227,3.536-3.271,6.9-6.462,9.6-9.026l.283-.269c1.041-.989,1.979-1.878,2.784-2.638,1.452-1.368,3.89-4.466,2.732-6.4-1.1-1.841-4.89-1.646-11.579.595-15.32,5.133-37.867,28.311-38.093,28.545a.606.606,0,0,0,.014.855.618.618,0,0,0,.431.171.6.6,0,0,0,.425-.184c.224-.232,22.542-23.192,37.608-28.24,2.115-.708,9.1-2.884,10.157-1.12.577.964-.839,3.312-2.524,4.9-.87.82-1.893,1.792-3.034,2.875-2.706,2.57-6.074,5.768-9.622,9.051-4.852,4.488-7.32,7.55-7.336,9.1a1.236,1.236,0,0,0,.367.934c1.223,1.179,3.733-.032,10.742-5.181l3.368-2.474c-1.341,2.172-3.273,5.231-4.933,7.592l-.235.332c-2.387,1.586-4.124,2.747-5.166,3.452a30.683,30.683,0,0,0-5.445,5.121c-1.41,1.665-3.017,3.887-2.666,5.018a1.048,1.048,0,0,0,1.054.735h.065c3.23-.024,12.295-12.455,13.007-13.44,1.353-.9,2.789-1.851,4.173-2.767a2.257,2.257,0,0,0-.1,2.091c.251.484.906,1.228,2.485.775C531.226,580.811,535.349,577.135,535.236,575.737Zm-1.206.077c-.083.541-3.3,3.881-5.616,4.544-.863.247-1.019-.054-1.078-.168-.457-.883,1.1-2.749,4.069-4.87l.284-.188a.929.929,0,0,0,.142.178c.367.36,1.06.425,2.114.2A1.038,1.038,0,0,1,534.031,575.814Zm-14.831,7.6c-4.006,5.194-8.555,10.143-9.989,10.237.092-1.113,4.083-6.253,7.643-8.663C517.456,584.581,518.263,584.039,519.2,583.414Z" transform="translate(-485.744 -551.283)" fill="#717071"/>
      <path id="パス_367" data-name="パス 367" d="M686.89,573.44c-2.248,2.02-5.187,3.822-5.808,3.177-.116-.121.029-.87,1.219-2.417a19.216,19.216,0,0,0,1.446-1.669.6.6,0,0,0-.914-.788,20.55,20.55,0,0,0-1.519,1.743c-2.411,2.478-5.7,4.83-7.338,5.246-.7.177-1.04.089-1.12-.04-.13-.208-.016-.842.534-1.493a10.71,10.71,0,0,0,2.69-5.409,1.523,1.523,0,0,0-.707-1.83c-1.363-.71-4.393.6-5.9,1.9.44-1.008.906-2.084,1.391-3.207,2.888-6.677,6.843-15.821,8.365-16.945a.6.6,0,0,0,.127-.844.607.607,0,0,0-.846-.129c-1.783,1.318-5.326,9.51-8.756,17.438l-.011.026c-1.713,3.96-3.193,7.38-4.042,8.931a5.179,5.179,0,0,1-3.544,2.431,3.124,3.124,0,0,0,1.38-2.25c.187-1.445-1.048-2.071-2.14-2.623-.239-.121-.448-.227-.647-.337a1.669,1.669,0,0,0,.13-.567,1.769,1.769,0,0,0-1.179-1.771,1.213,1.213,0,0,0-1.408.336c-.192.26-.415.831.247,1.737a3.631,3.631,0,0,0,.593.631,30.5,30.5,0,0,1-4.656,4.293.6.6,0,1,0,.735.96,31.831,31.831,0,0,0,4.917-4.581c.248.139.5.264.722.378,1.088.55,1.557.848,1.487,1.388-.217,1.667-2.206,2.42-6.066,2.307a.6.6,0,0,0-.16,1.193,16.546,16.546,0,0,0,3.128.391c.151,0,.3.007.461.007a10.337,10.337,0,0,0,4.4-.866.6.6,0,0,0,.579.691h.018a.6.6,0,0,0,.53-.315c.032-.059,3.247-5.92,4.752-7.523,1.148-1.222,4.04-2.425,4.835-2.009.045.024.167.087.079.513a9.533,9.533,0,0,1-2.43,4.872,2.619,2.619,0,0,0-.635,2.916c.294.47.957.949,2.443.57a17.459,17.459,0,0,0,5.582-3.429,1.306,1.306,0,0,0,.356.982,1.6,1.6,0,0,0,1.206.469c2.158,0,5.511-2.894,6.282-3.586a.6.6,0,0,0-.809-.9Zm-27.484-.236a.537.537,0,0,1,.246.335,2.032,2.032,0,0,1-.134-.165A1.983,1.983,0,0,1,659.407,573.2Z" transform="translate(-607.807 -550.62)" fill="#717071"/>
      <path id="パス_368" data-name="パス 368" d="M768.909,602.555a.826.826,0,0,0-1.022-.411.735.735,0,0,0-.564.9,1.42,1.42,0,0,0,1.234.892,2.144,2.144,0,0,0,.328.026,1.345,1.345,0,0,0,1.218-.611l.212-.371-.422-.069A2.111,2.111,0,0,1,768.909,602.555Z" transform="translate(-689.711 -587.919)" fill="#717071"/>
      <path id="パス_369" data-name="パス 369" d="M883.444,586.177a.6.6,0,0,0-1.1-.2c-3.008,4.62-16.149,16.519-21.148,14,3.561-1.821,5.439-3.529,5.583-5.078a1.625,1.625,0,0,0-.625-1.509c-.322-.217-.727-.144-1.547.278-1.7.879-5.237,3.373-5.284,5.473a1.9,1.9,0,0,0,.031.389c-.378.176-.781.358-1.2.542-4.752,2.067-6.553,1.953-7.226,1.493-.7-.476-.653-1.722-.609-2.929l.013-.389c.031-1.028,1.65-3.735,4.429-7.463l9.58-2.147a.6.6,0,0,0-.265-1.18l-8.18,1.834c.368-.477.748-.964,1.147-1.467,1.429-1.7,2.3-2.808,2.3-2.817a.6.6,0,0,0-.937-.764c-.041.048-1.01,1.193-2.3,2.818-.618.738-1.409,1.666-2.317,2.7l-7.98,1.789a.6.6,0,0,0,.113,1.194h.019a.581.581,0,0,0,.132-.015l6.342-1.421c-.57.634-1.169,1.289-1.79,1.953-2.514,2.689-4.443,3.417-5.509,3.591a2.586,2.586,0,0,0-.222-.789,1.454,1.454,0,0,0-1.041-.836,1.331,1.331,0,0,0-1.346.5,1.431,1.431,0,0,0-.156,1.491,1.533,1.533,0,0,0,1.424.817l.092.021a1.276,1.276,0,0,1-.081.261c-.25.453-4.272,4.476-6.082,4.788a.528.528,0,0,1-.388-.039,1.917,1.917,0,0,1-.789-1.756,4.318,4.318,0,0,1,1.8-2.405,14.384,14.384,0,0,0,3.125-1.919.6.6,0,0,0-.663-.991,17.141,17.141,0,0,0-3.106,1.88c-1.275.641-2.735,1.31-4.147,1.957l-.08.037c-.991.454-1.926.883-2.732,1.274a7.842,7.842,0,0,1-1.9.718,2.238,2.238,0,0,1,.161-.235l.14-.181a42.919,42.919,0,0,1,3.459-4.066c.734-.733.934-1.361.6-1.866-.638-.958-2.748-.344-4.405.34a9.26,9.26,0,0,0-1.663.936c.543-.906.766-1.537.415-2-.4-.534-1.118-.322-1.957-.074l-.029.009c-.16.047-.327.1-.5.144a13.427,13.427,0,0,0-3.98,2.606.6.6,0,0,0,.388,1.05.591.591,0,0,0,.43-.159,11.833,11.833,0,0,1,3.478-2.329c.182-.049.361-.1.531-.153l.03-.009c.1-.031.244-.073.384-.111-.087.168-.216.393-.4.691a52.6,52.6,0,0,1-4.095,5.227c-.368.408-.616.7-.672.763a.6.6,0,0,0,.909.8c.035-.038.269-.3.619-.7,1.237-1.369,4.354-4.652,6.577-5.57a8.158,8.158,0,0,1,2.757-.744,3,3,0,0,1-.265.3,43.87,43.87,0,0,0-3.562,4.182l-.14.181c-.768.993-.531,1.575-.321,1.833.5.618,1.56.473,3.547-.489.8-.388,1.737-.817,2.727-1.271l.061-.028c.531-.243,1.065-.488,1.591-.732a3.305,3.305,0,0,0-.3.92,3.094,3.094,0,0,0,1.168,2.84,1.457,1.457,0,0,0,.965.371h.056a2.276,2.276,0,0,0,.417-.041c2.405-.443,6.6-4.775,6.922-5.422a2.8,2.8,0,0,0,.228-.78,9.538,9.538,0,0,0,5.128-2.727,7.133,7.133,0,0,0-1.095,2.849l-.013.384c-.053,1.462-.114,3.119,1.137,3.972,1.405.955,3.992.529,8.39-1.384.459-.2.9-.4,1.32-.6a2.738,2.738,0,0,0,.507.368c3.408,1.956,8.862-1.261,12.837-4.3,4.361-3.339,8.617-7.8,10.059-10.014A.6.6,0,0,0,883.444,586.177Zm-17.867,8.607c-.037.4-.515,1.867-5.01,4.154.408-1.641,3.923-3.968,4.991-4.4A.643.643,0,0,1,865.576,594.784Zm-21.691,2.04h-.029c-.216,0-.377-.055-.421-.145a.225.225,0,0,1,.031-.222c.024-.031.055-.063.151-.045.055.011.12.041.189.181A1.131,1.131,0,0,1,843.885,596.824Z" transform="translate(-728.51 -574.82)" fill="#717071"/>
      <path id="パス_370" data-name="パス 370" d="M796.6,629.768a1.419,1.419,0,0,0-1.043.4,1.457,1.457,0,0,0,.956,2.517h.045a1.457,1.457,0,0,0,.042-2.914Z" transform="translate(-709.847 -607.955)" fill="#717071"/>
    </g>
    <g id="グループ_171" data-name="グループ 171" transform="translate(401.329 315.985)">
      <path id="パス_371" data-name="パス 371" d="M1044.38,509.346c1.717-8.742,9.335-28.239,9.412-28.435a.555.555,0,0,0-1.034-.4c-.077.2-7.731,19.786-9.467,28.626a.555.555,0,1,0,1.089.214Z" transform="translate(-1043.28 -434.911)" fill="#231815"/>
      <path id="パス_372" data-name="パス 372" d="M1055.236,546.309c-5.24,3.678-9.977,12.538-10.176,12.913a.555.555,0,1,0,.981.52c.048-.089,4.812-9,9.834-12.524a.555.555,0,0,0-.638-.909Z" transform="translate(-1044.522 -482.763)" fill="#231815"/>
      <path id="パス_373" data-name="パス 373" d="M1095.066,521.578a.555.555,0,0,0-.723.306l-1.71,4.223a.555.555,0,0,0,.306.723.548.548,0,0,0,.208.041.555.555,0,0,0,.515-.347l1.71-4.223A.555.555,0,0,0,1095.066,521.578Z" transform="translate(-1079.003 -464.891)" fill="#231815"/>
      <path id="パス_374" data-name="パス 374" d="M1099.821,498.2l-1.838.528c-.316.091-1.055.3-1.06.916a.812.812,0,0,0,.537.727,1.574,1.574,0,0,0-1.057.653,1,1,0,0,0-.1.938,1.17,1.17,0,0,0,.382.473c-.2.044-.329.084-.347.09a.555.555,0,0,0,.349,1.054,4.117,4.117,0,0,1,2.593.12.555.555,0,0,0,.436-1.021,4.626,4.626,0,0,0-1.469-.351.555.555,0,0,0-.427-.573,1.554,1.554,0,0,1-.437-.18,3.07,3.07,0,0,1,2.12.053.555.555,0,0,0,.41-1.032,5.249,5.249,0,0,0-1.7-.3.528.528,0,0,0,.144-.523l1.772-.51a.555.555,0,1,0-.307-1.067Z" transform="translate(-1081.439 -447.967)" fill="#231815"/>
      <path id="パス_375" data-name="パス 375" d="M1087.774,323.1a.555.555,0,1,0-1.044-.378c-.054.15-5.471,15.155-7.172,22.613-.949,4.16-.7,5.423-.184,5.82-.927-.223-1.064-.459-1.263-.812-.051-.092-.106-.188-.165-.28-.3-.672.839-4.872,2.047-9.318l.2-.742c1.544-5.692,7.506-23.106,7.567-23.281a.555.555,0,0,0-1.051-.36c-.06.176-6.034,17.624-7.587,23.35l-.2.742c-1.787,6.579-2.49,9.285-1.92,10.19.053.086.1.167.142.244a2.268,2.268,0,0,0,.78.886c-1.847.05-3.753.219-4.134.578a.615.615,0,0,0-.182.6c.172.706,1.1.987,6.87,1.492a13.029,13.029,0,0,1,2.409.429c-.815.041-1.676.084-2.3.111-.683.03-1.769.006-2.726-.015-2.291-.051-2.478-.055-2.7.269a.577.577,0,0,0-.057.536c.1.246.15.365,2.183.691-2.365.243-2.431.522-2.5.828a.626.626,0,0,0,.336.7c.937.519,5.919.615,7.423.633h.006a.555.555,0,0,0,.007-1.11c-1.032-.012-2.13-.044-3.141-.092,1.078-.072,2.267-.135,3.4-.18a.555.555,0,0,0,.052-1.1l-.8-.109c1.516-.075,3.224-.166,3.246-.167a.555.555,0,0,0,.3-1,7.705,7.705,0,0,0-2.186-.984.555.555,0,0,0,.147-.976l0,0c1.09.136,1.737.209,1.748.21a.514.514,0,0,0,.062,0,.555.555,0,0,0,.06-1.107c-.019,0-1.9-.211-4.7-.6-.245-.034-.461-.068-.658-.1.8-.2,1.415-1.54,1.638-2.474.54-2.253,3.929-13.26,3.963-13.371a.555.555,0,0,0-1.061-.327c-.14.454-3.433,11.152-3.981,13.439a4.24,4.24,0,0,1-.614,1.413,15.752,15.752,0,0,1,.6-4.4C1082.327,338.189,1087.72,323.248,1087.774,323.1Zm-7.2,30.235c-.844-.074-2.473-.216-3.83-.392a29.615,29.615,0,0,1,4.589.008,6.31,6.31,0,0,1,1.445.742A14.577,14.577,0,0,0,1080.575,353.333Z" transform="translate(-1065.238 -315.985)" fill="#231815"/>
    </g>
    <path id="パス_376" data-name="パス 376" d="M559.72,381.349a12.828,12.828,0,0,0-3.03-6.414,19.29,19.29,0,0,0-3.668-3.078,12.6,12.6,0,0,0-3.926-1.541q-.819-.3-1.526-.52a17.967,17.967,0,0,0-2-.471l-.574-.011a4.712,4.712,0,0,0-2.273.64,38.633,38.633,0,0,0-9.9,3.47,31.439,31.439,0,0,0-7.075,5.534,22.552,22.552,0,0,0-5.036,7.676,21.494,21.494,0,0,0-1.662,6.727,11,11,0,0,0,.742,4.6,8.857,8.857,0,0,0,2.32,3.047,8.527,8.527,0,0,0,2.659,1.587,4.745,4.745,0,0,0,2.96-.069,22.269,22.269,0,0,0,4.3-2.027,27.384,27.384,0,0,0,7.441-6.672,48.47,48.47,0,0,0,5.265-8.659,47.164,47.164,0,0,0,3.255-9.168,14.6,14.6,0,0,1,1.815.449,6.728,6.728,0,0,1,2.089,1.059,3.965,3.965,0,0,1,1.26,1.649,12.1,12.1,0,0,1,.67,3.258,21.514,21.514,0,0,1-.151,5.467,39.5,39.5,0,0,1-1.554,6.882A21.878,21.878,0,0,1,550.5,399,15.313,15.313,0,0,1,548.863,401a2.291,2.291,0,0,0-.529,1.984,4.623,4.623,0,0,0,.7,1.756,4.4,4.4,0,0,0,1.806,1.433,4.031,4.031,0,0,0,1.692.479,1.721,1.721,0,0,0,.421-.05,2.58,2.58,0,0,0,1.455-.734,7.987,7.987,0,0,0,.948-1.469,34.375,34.375,0,0,0,2.533-5.487,50.187,50.187,0,0,0,1.873-8.014A25.314,25.314,0,0,0,559.72,381.349Zm-20.826.563a33.119,33.119,0,0,1-4.5,7.635,30.345,30.345,0,0,1-6.334,6.077,4.516,4.516,0,0,1-3.316.955,13.435,13.435,0,0,1,.433-5.026,19.288,19.288,0,0,1,3.534-6.648,21.253,21.253,0,0,1,6.754-5.767,40.271,40.271,0,0,1,5.411-2.583A56.508,56.508,0,0,1,538.894,381.912Z" transform="translate(-262.186 -38.633)" fill="#99c443"/>
    <path id="パス_377" data-name="パス 377" d="M714.2,420.1a2.523,2.523,0,0,1-1.992-.916,8.781,8.781,0,0,1-1.057-1.548,12.792,12.792,0,0,1-.714-1.626l-.034-.14a3.162,3.162,0,0,1,1.508-3.282l.084-.045a12.942,12.942,0,0,1,3.014-.912c1.027-.18,4.887-.539,11.8-1.1,6.791-.549,11.32-.928,13.461-1.128,1.9-.154,3.223-.228,4.05-.228h.376c.809.053,1.537.13,2.208.233l.178.027.141.114a8.544,8.544,0,0,1,1.756,1.771,2.051,2.051,0,0,1,.212,1.919c-.262.67-1.031,1.178-2.421,1.6l-.171.028c-1.521.049-6.32.629-14.265,1.725s-12.357,1.665-13.434,1.733a5.984,5.984,0,0,0-2.323,1.074,4.7,4.7,0,0,1-2.255.7Z" transform="translate(-400.786 -67.512)" fill="#99c443"/>
    <path id="パス_378" data-name="パス 378" d="M937.836,393.468a21.885,21.885,0,0,1-5.86-.8A10.63,10.63,0,0,1,924.9,385.7a8.139,8.139,0,0,1,.468-5.51,23.923,23.923,0,0,1,4.19-6.31,18.618,18.618,0,0,1-3.741-4.394,26.977,26.977,0,0,1-2.367-7.339,43.669,43.669,0,0,1-.615-11.846,4.816,4.816,0,0,1,.658-2.611l.061-.07a1.464,1.464,0,0,1,1.072-.422,5.127,5.127,0,0,1,1.917.505,3.639,3.639,0,0,1,2.209,3.292c.05,1.425.076,2.686.076,3.752s.1,3.662.3,7.68a11.051,11.051,0,0,0,1.677,4.775c.6,1.017,1.482,2.2,2.378,2.273,4.147-3.5,8.347-6.873,12.487-10.027,1.752-1.129,3.279-.877,4.338.682l.045.077a15.432,15.432,0,0,1,1.18,2.844l.02.161a2.32,2.32,0,0,1-.943,2.1c-.444.287-1.488.9-3.193,1.864a50.671,50.671,0,0,0-6.9,5.158,34.338,34.338,0,0,0-6.719,7.34,12.7,12.7,0,0,0-2.261,6.38c.56.53,1.79,1.155,4.481,1.442a22.8,22.8,0,0,0,8.407-.883c3.152-.868,5.708-1.636,7.6-2.283l.379-.13.292.275a3.5,3.5,0,0,1,1.411,2.716,2.909,2.909,0,0,1-.974,2.027,11.427,11.427,0,0,1-2.986,1.725,36.548,36.548,0,0,1-7.523,2.079A23.159,23.159,0,0,1,937.836,393.468Z" transform="translate(-554.602 -22.61)" fill="#99c443"/>
    <path id="パス_379" data-name="パス 379" d="M397,384.47a1.786,1.786,0,0,0-1.746-.782l-.19.018-.151.117c-3.925,3.031-7.15,5.361-9.585,6.927a51.657,51.657,0,0,1-7.832,4.1c-3.759.98-4.462.337-4.588.115a11.53,11.53,0,0,1-.93-4.483,116.094,116.094,0,0,1,.226-12.043,99.878,99.878,0,0,1,1.559-13.031,3.568,3.568,0,0,0-.55-3.381,5.3,5.3,0,0,0-2.883-2.11,6.009,6.009,0,0,0-1.272-.166,1.97,1.97,0,0,0-1.448.5l-.055.061a3.958,3.958,0,0,0-.594,2.643c-.5,4.257-.9,8.182-1.2,11.668a102.345,102.345,0,0,0-.341,10.831,28.2,28.2,0,0,0,1.367,9.007,15.413,15.413,0,0,0,3.464,5.266,7.76,7.76,0,0,0,5.334,2.217c.1,0,.207,0,.31,0a11.5,11.5,0,0,0,5.428-1.356,38.5,38.5,0,0,0,9.525-6.319c2.285-2.185,3.931-3.844,4.892-4.931a5.614,5.614,0,0,0,1.669-2.947A2.977,2.977,0,0,0,397,384.47Z" transform="translate(-150.879 -31.709)" fill="#d49820"/>
    <path id="パス_380" data-name="パス 380" d="M200.193,345.024a3.723,3.723,0,0,0-.737-1.464,3.319,3.319,0,0,0-2.468-.8c-3.118.2-6.208.494-9.184.869-2.738.345-5.408.554-7.947.621-.08-.687-.168-1.576-.262-2.654-.127-1.436-.369-3.214-.721-5.281a3.964,3.964,0,0,0-2.077-3.037,5.716,5.716,0,0,0-2.416-.828,1.314,1.314,0,0,0-1.405,1.141,6.612,6.612,0,0,0-.085,1.9c.194,3.017.442,6.1.736,9.161q-.337.666-.731,1.39a3.369,3.369,0,0,0-.334,2.282,6.361,6.361,0,0,0,1.009,2.338c.165.308.429,1.241.335,4.028-.073,2.211-.162,4.09-.262,5.583-.088,1.287-.215,2.521-.38,3.675-1.687.39-3.453.879-5.256,1.457a51.825,51.825,0,0,0-4.881,1.793,18.139,18.139,0,0,0-3.437,1.954l-.1.087c-1.779,1.945-2.562,3.338-2.466,4.384a8.224,8.224,0,0,0,1.748,3.687,11.575,11.575,0,0,0,4.346,3.512,29.059,29.059,0,0,0,5.319,1.935,9.142,9.142,0,0,0,1.669.161,7.029,7.029,0,0,0,6.029-3.421,21.757,21.757,0,0,0,2.328-6.016c.4-1.792.741-3.255,1.021-4.357a22.606,22.606,0,0,1,2.6-.393c.917-.076,2.42-.241,4.458-.491a4.316,4.316,0,0,0,1.555-.487,2.329,2.329,0,0,0,1.1-1.988,2.983,2.983,0,0,0-.731-2.392l-.19-.212-.285-.008c-1.763-.049-3.494-.063-5.146-.038q-1.941.03-3.238.036v-7.5c0-1.144.022-2.746.064-4.766,3.016-.642,6.174-1.157,9.394-1.534a60.7,60.7,0,0,0,10.31-2.131l.23-.068.133-.2A2.3,2.3,0,0,0,200.193,345.024Zm-27.957,27.382a11.482,11.482,0,0,1-1.125,2.718,3.632,3.632,0,0,1-1.909,1.71,3.77,3.77,0,0,1-2.368-.241,13.738,13.738,0,0,1-2.924-1.614,1.39,1.39,0,0,1-.471-.881.764.764,0,0,1,.349-.489,24.742,24.742,0,0,1,3.908-2.076,21.3,21.3,0,0,1,5.154-1.57C172.655,370.82,172.45,371.638,172.236,372.406Z" transform="translate(0 -11.929)" fill="#d49820"/>
  </g>
</svg>
