<svg xmlns="http://www.w3.org/2000/svg" width="24" height="24" viewBox="0 0 24 24">
  <g id="_redeem" data-name=" redeem" transform="translate(-372 -418)">
    <rect id="Path" width="24" height="24" transform="translate(372 418)" fill="rgba(0,0,0,0)"/>
    <path id="Icon" d="M392,439H376a2,2,0,0,1-2-2l.011-11a1.974,1.974,0,0,1,1.99-2h2.18a3,3,0,0,1,5.32-2.659l.5.679.5-.671A3,3,0,0,1,390,423a2.976,2.976,0,0,1-.18,1H392a2,2,0,0,1,2,2v11A2,2,0,0,1,392,439Zm-16-4h0v1a1,1,0,0,0,1,1h14a1,1,0,0,0,1-1v-1H376Zm1-9a1,1,0,0,0-1,1v5h16v-5a1,1,0,0,0-1-1h-4.08l1.48,2.02a1,1,0,0,1,.182.753,1,1,0,0,1-.982.835,1,1,0,0,1-.809-.407L384,425.4l-2.79,3.8a1,1,0,0,1-.81.407,1,1,0,0,1-.983-.835,1,1,0,0,1,.182-.753l1.48-2.02Zm10-4a1,1,0,1,0,1,1A1,1,0,0,0,387,422Zm-6,0a1,1,0,1,0,1,1A1,1,0,0,0,381,422Z" fill="#fff"/>
  </g>
</svg>
