<svg xmlns="http://www.w3.org/2000/svg" width="24" height="24" viewBox="0 0 24 24">
  <g id="_restaurant_menu" data-name=" restaurant_menu" transform="translate(-678 -3166)">
    <rect id="Path" width="24" height="24" transform="translate(678 3166)" fill="rgba(0,0,0,0)"/>
    <path id="Icon" d="M696.885,3186.883a.992.992,0,0,1-.706-.293L690,3180.41l-3.81,3.8-2.38,2.372a1,1,0,0,1-1.41-1.41l9.06-9.06a4.893,4.893,0,0,1,1.38-5.27,5.522,5.522,0,0,1,3.8-1.707,3.2,3.2,0,0,1,2.321.9c1.464,1.464,1.1,4.209-.81,6.12a5.46,5.46,0,0,1-3.768,1.7,3.539,3.539,0,0,1-1.5-.316L691.41,3179l6.18,6.179a1,1,0,0,1-.7,1.7ZM686.1,3179.34h0l-4.189-4.18a4.03,4.03,0,0,1-.78-4.56,1.006,1.006,0,0,1,1.61-.27l6.19,6.18-2.83,2.83Z" fill="#fff"/>
  </g>
</svg>
