<svg xmlns="http://www.w3.org/2000/svg" width="24" height="24" viewBox="0 0 24 24">
  <g id="_rowing" data-name=" rowing" transform="translate(-508 -418)">
    <rect id="Path" width="24" height="24" transform="translate(508 418)" fill="rgba(0,0,0,0)"/>
    <path id="Icon" d="M526,441.582a.994.994,0,0,1-.707-.292l-1.99-2.01a.964.964,0,0,1-.29-.7V437.5l-7.11-7.09a6.426,6.426,0,0,1-.9.07,1.08,1.08,0,1,1,0-2.16h.08a6.76,6.76,0,0,0,4.59-2.041l1.4-1.55a2.16,2.16,0,0,1,.689-.5,2.236,2.236,0,0,1,.96-.229h.02a2.262,2.262,0,0,1,2.26,2.26v5.75a3.019,3.019,0,0,1-.92,2.16l-3.58-3.58v-2.27a9.819,9.819,0,0,1-2.29,1.391L524.5,436h1.08a1.009,1.009,0,0,1,.71.29l2,2.011a.994.994,0,0,1,.292.714.972.972,0,0,1-.292.7l-1.58,1.579A1.018,1.018,0,0,1,526,441.582Zm-12.5-3.525a1.057,1.057,0,0,1-.75-1.807l3.75-3.75L519,435h-2l-2.75,2.75A1.054,1.054,0,0,1,513.5,438.057ZM523,423a2,2,0,1,1,2-2A2,2,0,0,1,523,423Z" fill="#fff"/>
  </g>
</svg>
